<svg width="48" height="48" viewBox="0 0 48 48" fill="none" xmlns="http://www.w3.org/2000/svg">
<rect width="48" height="48" fill="#444444"/>
<path d="M36.5416 22.6836C35.5471 22.6836 34.715 23.379 34.5526 24.3255C33.7204 28.8651 29.5598 32.3421 24.5466 32.3421C19.5335 32.3421 15.3728 28.8651 14.5407 24.3255C14.3783 23.379 13.5462 22.6836 12.5517 22.6836C11.3136 22.6836 10.3394 23.7267 10.5221 24.8857C11.5166 30.6809 16.3876 35.2204 22.517 36.051V40.069C22.517 41.1314 23.4304 42.0007 24.5466 42.0007C25.6629 42.0007 26.5762 41.1314 26.5762 40.069V36.051C32.7056 35.2204 37.5767 30.6809 38.5712 24.8857C38.7742 23.7267 37.7797 22.6836 36.5416 22.6836Z" fill="black"/>
<rect x="17.9634" y="6" width="13.1708" height="23.7074" rx="6.58538" fill="black"/>
</svg>
