<svg width="14" height="25" viewBox="0 0 14 25" fill="none" xmlns="http://www.w3.org/2000/svg">
<rect x="3.11121" y="1.55566" width="1.55556" height="1.55556" fill="#C4C4C4"/>
<rect x="3.11121" y="3.11121" width="1.55556" height="1.55556" fill="#C4C4C4"/>
<rect x="1.5556" y="3.11121" width="1.55556" height="1.55556" fill="#C4C4C4"/>
<rect x="7.77759" y="6.22241" width="1.55556" height="1.55556" fill="#C4C4C4"/>
<rect x="12.4444" y="10.8888" width="1.55556" height="1.55556" fill="#C4C4C4"/>
<rect x="12.4444" y="12.4443" width="1.55556" height="1.55556" fill="#C4C4C4"/>
<rect x="10.8888" y="10.8888" width="1.55556" height="1.55556" fill="#C4C4C4"/>
<rect x="9.33319" y="10.8888" width="1.55556" height="1.55556" fill="#C4C4C4"/>
<rect x="10.8888" y="12.4443" width="1.55556" height="1.55556" fill="#C4C4C4"/>
<rect x="9.33319" y="12.4443" width="1.55556" height="1.55556" fill="#C4C4C4"/>
<rect x="7.77759" y="17.1112" width="1.55556" height="1.55556" fill="#C4C4C4"/>
<rect x="6.22241" y="17.1112" width="1.55556" height="1.55556" fill="#C4C4C4"/>
<rect x="4.66681" y="17.1112" width="1.55556" height="1.55556" fill="#C4C4C4"/>
<rect x="3.11121" y="21.7776" width="1.55556" height="1.55556" fill="#C4C4C4"/>
<rect x="1.5556" y="21.7776" width="1.55556" height="1.55556" fill="#C4C4C4"/>
<rect x="10.8888" y="14" width="1.55556" height="1.55556" fill="#C4C4C4"/>
<rect x="9.33319" y="14" width="1.55556" height="1.55556" fill="#C4C4C4"/>
<rect x="7.77759" y="14" width="1.55556" height="1.55556" fill="#C4C4C4"/>
<rect x="6.22241" y="18.6667" width="1.55556" height="1.55556" fill="#C4C4C4"/>
<rect x="4.66681" y="18.6667" width="1.55556" height="1.55556" fill="#C4C4C4"/>
<rect x="3.11121" y="18.6667" width="1.55556" height="1.55556" fill="#C4C4C4"/>
<rect x="1.5556" y="23.3333" width="1.55556" height="1.55556" fill="#C4C4C4"/>
<rect y="23.3333" width="1.55556" height="1.55556" fill="#C4C4C4"/>
<rect x="9.33319" y="15.5557" width="1.55556" height="1.55556" fill="#C4C4C4"/>
<rect x="7.77759" y="15.5557" width="1.55556" height="1.55556" fill="#C4C4C4"/>
<rect x="6.22241" y="15.5557" width="1.55556" height="1.55556" fill="#C4C4C4"/>
<rect x="4.66681" y="20.2224" width="1.55556" height="1.55556" fill="#C4C4C4"/>
<rect x="3.11121" y="20.2224" width="1.55556" height="1.55556" fill="#C4C4C4"/>
<rect x="1.5556" y="20.2224" width="1.55556" height="1.55556" fill="#C4C4C4"/>
<rect y="21.7776" width="1.55556" height="1.55556" fill="#C4C4C4"/>
<rect x="1.5556" width="1.55556" height="1.55556" fill="#C4C4C4"/>
<rect x="1.5556" y="1.55566" width="1.55556" height="1.55556" fill="#C4C4C4"/>
<rect x="6.22241" y="4.66675" width="1.55556" height="1.55556" fill="#C4C4C4"/>
<rect x="6.22241" y="6.22241" width="1.55556" height="1.55556" fill="#C4C4C4"/>
<rect x="4.66681" y="6.22241" width="1.55556" height="1.55556" fill="#C4C4C4"/>
<rect x="10.8888" y="9.33325" width="1.55556" height="1.55556" fill="#C4C4C4"/>
<rect x="9.33319" y="9.33325" width="1.55556" height="1.55556" fill="#C4C4C4"/>
<rect x="7.77759" y="9.33325" width="1.55556" height="1.55556" fill="#C4C4C4"/>
<rect y="1.55566" width="1.55556" height="1.55556" fill="#C4C4C4"/>
<rect width="1.55556" height="1.55556" fill="#C4C4C4"/>
<rect x="4.66681" y="3.11121" width="1.55556" height="1.55556" fill="#C4C4C4"/>
<rect x="4.66681" y="4.66675" width="1.55556" height="1.55556" fill="#C4C4C4"/>
<rect x="3.11121" y="4.66675" width="1.55556" height="1.55556" fill="#C4C4C4"/>
<rect x="9.33319" y="7.77759" width="1.55556" height="1.55556" fill="#C4C4C4"/>
<rect x="7.77759" y="7.77759" width="1.55556" height="1.55556" fill="#C4C4C4"/>
<rect x="6.22241" y="7.77759" width="1.55556" height="1.55556" fill="#C4C4C4"/>
</svg>
