<svg width="34" height="34" viewBox="0 0 34 34" fill="none" xmlns="http://www.w3.org/2000/svg">
<mask id="path-1-inside-1_510_32763" fill="white">
<path fill-rule="evenodd" clip-rule="evenodd" d="M18 0H16H14V2H12V4H10V6V8V10V12V14V16V18H12V20H14V22H16H18H20V20H22V18H24V16V14V12V10V8V6V4H22V2H20V0H18ZM14 24H16H18H20H22V22H24H26V20H28V18V16V14H30H32V16V18V20V22H30V24H28V26H26V28H24H22H20V30V32V34H18H16H14V32V30V28H12H10H8V26H6V24H4V22H2V20V18V16V14H4H6V16V18V20H8V22H10H12V24H14Z"/>
</mask>
<path fill-rule="evenodd" clip-rule="evenodd" d="M18 0H16H14V2H12V4H10V6V8V10V12V14V16V18H12V20H14V22H16H18H20V20H22V18H24V16V14V12V10V8V6V4H22V2H20V0H18ZM14 24H16H18H20H22V22H24H26V20H28V18V16V14H30H32V16V18V20V22H30V24H28V26H26V28H24H22H20V30V32V34H18H16H14V32V30V28H12H10H8V26H6V24H4V22H2V20V18V16V14H4H6V16V18V20H8V22H10H12V24H14Z" fill="#797979"/>
<path d="M14 0V-1H13V0H14ZM14 2V3H15V2H14ZM12 2V1H11V2H12ZM12 4V5H13V4H12ZM10 4V3H9V4H10ZM10 18H9V19H10V18ZM12 18H13V17H12V18ZM12 20H11V21H12V20ZM14 20H15V19H14V20ZM14 22H13V23H14V22ZM20 22V23H21V22H20ZM20 20V19H19V20H20ZM22 20V21H23V20H22ZM22 18V17H21V18H22ZM24 18V19H25V18H24ZM24 4H25V3H24V4ZM22 4H21V5H22V4ZM22 2H23V1H22V2ZM20 2H19V3H20V2ZM20 0H21V-1H20V0ZM22 24V25H23V24H22ZM22 22V21H21V22H22ZM26 22V23H27V22H26ZM26 20V19H25V20H26ZM28 20V21H29V20H28ZM28 14V13H27V14H28ZM32 14H33V13H32V14ZM32 22V23H33V22H32ZM30 22V21H29V22H30ZM30 24V25H31V24H30ZM28 24V23H27V24H28ZM28 26V27H29V26H28ZM26 26V25H25V26H26ZM26 28V29H27V28H26ZM20 28V27H19V28H20ZM20 34V35H21V34H20ZM14 34H13V35H14V34ZM14 28H15V27H14V28ZM8 28H7V29H8V28ZM8 26H9V25H8V26ZM6 26H5V27H6V26ZM6 24H7V23H6V24ZM4 24H3V25H4V24ZM4 22H5V21H4V22ZM2 22H1V23H2V22ZM2 14V13H1V14H2ZM6 14H7V13H6V14ZM6 20H5V21H6V20ZM8 20H9V19H8V20ZM8 22H7V23H8V22ZM12 22H13V21H12V22ZM12 24H11V25H12V24ZM16 1H18V-1H16V1ZM14 1H16V-1H14V1ZM15 2V0H13V2H15ZM12 3H14V1H12V3ZM13 4V2H11V4H13ZM10 5H12V3H10V5ZM11 6V4H9V6H11ZM11 8V6H9V8H11ZM11 10V8H9V10H11ZM11 12V10H9V12H11ZM11 14V12H9V14H11ZM11 16V14H9V16H11ZM11 18V16H9V18H11ZM12 17H10V19H12V17ZM13 20V18H11V20H13ZM14 19H12V21H14V19ZM15 22V20H13V22H15ZM16 21H14V23H16V21ZM18 21H16V23H18V21ZM20 21H18V23H20V21ZM19 20V22H21V20H19ZM22 19H20V21H22V19ZM21 18V20H23V18H21ZM24 17H22V19H24V17ZM23 16V18H25V16H23ZM23 14V16H25V14H23ZM23 12V14H25V12H23ZM23 10V12H25V10H23ZM23 8V10H25V8H23ZM23 6V8H25V6H23ZM23 4V6H25V4H23ZM22 5H24V3H22V5ZM21 2V4H23V2H21ZM20 3H22V1H20V3ZM19 0V2H21V0H19ZM18 1H20V-1H18V1ZM16 23H14V25H16V23ZM18 23H16V25H18V23ZM20 23H18V25H20V23ZM22 23H20V25H22V23ZM21 22V24H23V22H21ZM24 21H22V23H24V21ZM26 21H24V23H26V21ZM25 20V22H27V20H25ZM28 19H26V21H28V19ZM27 18V20H29V18H27ZM27 16V18H29V16H27ZM27 14V16H29V14H27ZM30 13H28V15H30V13ZM32 13H30V15H32V13ZM33 16V14H31V16H33ZM33 18V16H31V18H33ZM33 20V18H31V20H33ZM33 22V20H31V22H33ZM30 23H32V21H30V23ZM31 24V22H29V24H31ZM28 25H30V23H28V25ZM29 26V24H27V26H29ZM26 27H28V25H26V27ZM27 28V26H25V28H27ZM24 29H26V27H24V29ZM22 29H24V27H22V29ZM20 29H22V27H20V29ZM21 30V28H19V30H21ZM21 32V30H19V32H21ZM21 34V32H19V34H21ZM18 35H20V33H18V35ZM16 35H18V33H16V35ZM14 35H16V33H14V35ZM13 32V34H15V32H13ZM13 30V32H15V30H13ZM13 28V30H15V28H13ZM12 29H14V27H12V29ZM10 29H12V27H10V29ZM8 29H10V27H8V29ZM7 26V28H9V26H7ZM6 27H8V25H6V27ZM5 24V26H7V24H5ZM4 25H6V23H4V25ZM3 22V24H5V22H3ZM2 23H4V21H2V23ZM1 20V22H3V20H1ZM1 18V20H3V18H1ZM1 16V18H3V16H1ZM1 14V16H3V14H1ZM4 13H2V15H4V13ZM6 13H4V15H6V13ZM7 16V14H5V16H7ZM7 18V16H5V18H7ZM7 20V18H5V20H7ZM8 19H6V21H8V19ZM9 22V20H7V22H9ZM10 21H8V23H10V21ZM12 21H10V23H12V21ZM13 24V22H11V24H13ZM14 23H12V25H14V23Z" fill="#797979" mask="url(#path-1-inside-1_510_32763)"/>
<path fill-rule="evenodd" clip-rule="evenodd" d="M30 2H34V4H32V6H30V8H28V10H26V12H24V14H22V16H20V18H18V20H16V22H14V24H12V26H10V28H8V30H6V32H4V34H2H0V32H2V30H4V28H6V26H8V24H10V22H12V20H14V18H16V16H18V14H20V12H22V10H24V8H26V6H28V4H30V2Z" fill="#FF0000"/>
</svg>
