<svg width="61" height="15" viewBox="0 0 61 15" fill="none" xmlns="http://www.w3.org/2000/svg">
<rect x="5.99976" width="2.99992" height="2.99992" fill="#F90400"/>
<rect x="5.99976" y="12" width="2.99992" height="2.99992" fill="#F90400"/>
<rect x="3" width="2.99992" height="2.99992" fill="#F90400"/>
<rect x="3" y="12" width="2.99992" height="2.99992" fill="#F90400"/>
<rect x="5.99976" y="3" width="2.99992" height="2.99992" fill="#F90400"/>
<rect x="5.99976" y="6" width="2.99992" height="2.99992" fill="#F90400"/>
<rect x="5.99976" y="9" width="2.99992" height="2.99992" fill="#F90400"/>
<rect x="9" y="3" width="2.99992" height="2.99992" fill="#F90400"/>
<rect x="9" y="6" width="2.99992" height="2.99992" fill="#F90400"/>
<rect x="9" y="9" width="2.99992" height="2.99992" fill="#F90400"/>
<rect x="12" y="3" width="2.99992" height="2.99992" fill="#F90400"/>
<rect x="12" y="6" width="2.99992" height="2.99992" fill="#F90400"/>
<rect x="12" y="9" width="2.99992" height="2.99992" fill="#F90400"/>
<rect x="3" y="3" width="2.99992" height="2.99992" fill="#F90400"/>
<rect x="3" y="6" width="2.99992" height="2.99992" fill="#F90400"/>
<rect x="3" y="9" width="2.99992" height="2.99992" fill="#F90400"/>
<rect y="3" width="2.99992" height="2.99992" fill="#F90400"/>
<rect y="6" width="2.99992" height="2.99992" fill="#F90400"/>
<rect y="9" width="2.99992" height="2.99992" fill="#F90400"/>
<rect x="9" width="2.99992" height="2.99992" fill="#F90400"/>
<rect x="9" y="12" width="2.99992" height="2.99992" fill="#F90400"/>
<rect x="28.9998" width="2.99992" height="2.99992" fill="#FDD000"/>
<rect x="28.9998" y="12" width="2.99992" height="2.99992" fill="#FDD000"/>
<rect x="26" width="2.99992" height="2.99992" fill="#FDD000"/>
<rect x="26" y="12" width="2.99992" height="2.99992" fill="#FDD000"/>
<rect x="28.9998" y="3" width="2.99992" height="2.99992" fill="#FDD000"/>
<rect x="28.9998" y="6" width="2.99992" height="2.99992" fill="#FDD000"/>
<rect x="28.9998" y="9" width="2.99992" height="2.99992" fill="#FDD000"/>
<rect x="32" y="3" width="2.99992" height="2.99992" fill="#FDD000"/>
<rect x="32" y="6" width="2.99992" height="2.99992" fill="#FDD000"/>
<rect x="32" y="9" width="2.99992" height="2.99992" fill="#FDD000"/>
<rect x="35" y="3" width="2.99992" height="2.99992" fill="#FDD000"/>
<rect x="35" y="6" width="2.99992" height="2.99992" fill="#FDD000"/>
<rect x="35" y="9" width="2.99992" height="2.99992" fill="#FDD000"/>
<rect x="26" y="3" width="2.99992" height="2.99992" fill="#FDD000"/>
<rect x="26" y="6" width="2.99992" height="2.99992" fill="#FDD000"/>
<rect x="26" y="9" width="2.99992" height="2.99992" fill="#FDD000"/>
<rect x="23" y="3" width="2.99992" height="2.99992" fill="#FDD000"/>
<rect x="23" y="6" width="2.99992" height="2.99992" fill="#FDD000"/>
<rect x="23" y="9" width="2.99992" height="2.99992" fill="#FDD000"/>
<rect x="32" width="2.99992" height="2.99992" fill="#FDD000"/>
<rect x="32" y="12" width="2.99992" height="2.99992" fill="#FDD000"/>
<rect x="51.9998" width="2.99992" height="2.99992" fill="#606060"/>
<rect x="51.9998" y="12" width="2.99992" height="2.99992" fill="#606060"/>
<rect x="49" width="2.99992" height="2.99992" fill="#606060"/>
<rect x="49" y="12" width="2.99992" height="2.99992" fill="#606060"/>
<rect x="51.9998" y="3" width="2.99992" height="2.99992" fill="#606060"/>
<rect x="51.9998" y="6" width="2.99992" height="2.99992" fill="#606060"/>
<rect x="51.9998" y="9" width="2.99992" height="2.99992" fill="#606060"/>
<rect x="55" y="3" width="2.99992" height="2.99992" fill="#606060"/>
<rect x="55" y="6" width="2.99992" height="2.99992" fill="#606060"/>
<rect x="55" y="9" width="2.99992" height="2.99992" fill="#606060"/>
<rect x="58" y="3" width="2.99992" height="2.99992" fill="#606060"/>
<rect x="58" y="6" width="2.99992" height="2.99992" fill="#606060"/>
<rect x="58" y="9" width="2.99992" height="2.99992" fill="#606060"/>
<rect x="49" y="3" width="2.99992" height="2.99992" fill="#606060"/>
<rect x="49" y="6" width="2.99992" height="2.99992" fill="#606060"/>
<rect x="49" y="9" width="2.99992" height="2.99992" fill="#606060"/>
<rect x="46" y="3" width="2.99992" height="2.99992" fill="#606060"/>
<rect x="46" y="6" width="2.99992" height="2.99992" fill="#606060"/>
<rect x="46" y="9" width="2.99992" height="2.99992" fill="#606060"/>
<rect x="55" width="2.99992" height="2.99992" fill="#606060"/>
<rect x="55" y="12" width="2.99992" height="2.99992" fill="#606060"/>
</svg>
