<svg width="45" height="40" viewBox="0 0 45 40" fill="none" xmlns="http://www.w3.org/2000/svg">
<path d="M34.1584 18.9023C33.2288 18.9023 32.4509 19.4819 32.2991 20.2706C31.5213 24.0536 27.6319 26.9511 22.9457 26.9511C18.2596 26.9511 14.3702 24.0536 13.5924 20.2706C13.4406 19.4819 12.6627 18.9023 11.7331 18.9023C10.5758 18.9023 9.66509 19.7716 9.83584 20.7375C10.7655 25.5667 15.3189 29.3497 21.0485 30.0419V33.3902C21.0485 34.2755 21.9023 34.9999 22.9457 34.9999C23.9892 34.9999 24.843 34.2755 24.843 33.3902V30.0419C30.5726 29.3497 35.126 25.5667 36.0556 20.7375C36.2454 19.7716 35.3157 18.9023 34.1584 18.9023Z" fill="#C4C4C4"/>
<rect x="16.7917" y="5" width="12.3118" height="19.7561" rx="6.15589" fill="#C4C4C4"/>
</svg>
