<svg width="40" height="24" viewBox="0 0 40 24" fill="none" xmlns="http://www.w3.org/2000/svg">
<mask id="path-1-inside-1_485_33042" fill="white">
<path fill-rule="evenodd" clip-rule="evenodd" d="M10 0H8H6H4H2V2H0V4V6V8V10V12V14V16V18V20V22H2V24H4H6H8H10H12H14H16H18H20H22V22H24V20V18V16V14V12V10V8V6V4V2H22V0H20H18H16H14H12H10Z"/>
</mask>
<path fill-rule="evenodd" clip-rule="evenodd" d="M10 0H8H6H4H2V2H0V4V6V8V10V12V14V16V18V20V22H2V24H4H6H8H10H12H14H16H18H20H22V22H24V20V18V16V14V12V10V8V6V4V2H22V0H20H18H16H14H12H10Z" fill="white"/>
<path d="M2 0V-1H1V0H2ZM2 2V3H3V2H2ZM0 2V1H-1V2H0ZM0 22H-1V23H0V22ZM2 22H3V21H2V22ZM2 24H1V25H2V24ZM22 24V25H23V24H22ZM22 22V21H21V22H22ZM24 22V23H25V22H24ZM24 2H25V1H24V2ZM22 2H21V3H22V2ZM22 0H23V-1H22V0ZM8 1H10V-1H8V1ZM6 1H8V-1H6V1ZM4 1H6V-1H4V1ZM2 1H4V-1H2V1ZM3 2V0H1V2H3ZM0 3H2V1H0V3ZM1 4V2H-1V4H1ZM1 6V4H-1V6H1ZM1 8V6H-1V8H1ZM1 10V8H-1V10H1ZM1 12V10H-1V12H1ZM1 14V12H-1V14H1ZM1 16V14H-1V16H1ZM1 18V16H-1V18H1ZM1 20V18H-1V20H1ZM1 22V20H-1V22H1ZM2 21H0V23H2V21ZM3 24V22H1V24H3ZM4 23H2V25H4V23ZM6 23H4V25H6V23ZM8 23H6V25H8V23ZM10 23H8V25H10V23ZM12 23H10V25H12V23ZM14 23H12V25H14V23ZM16 23H14V25H16V23ZM18 23H16V25H18V23ZM20 23H18V25H20V23ZM22 23H20V25H22V23ZM21 22V24H23V22H21ZM24 21H22V23H24V21ZM23 20V22H25V20H23ZM23 18V20H25V18H23ZM23 16V18H25V16H23ZM23 14V16H25V14H23ZM23 12V14H25V12H23ZM23 10V12H25V10H23ZM23 8V10H25V8H23ZM23 6V8H25V6H23ZM23 4V6H25V4H23ZM23 2V4H25V2H23ZM22 3H24V1H22V3ZM21 0V2H23V0H21ZM20 1H22V-1H20V1ZM18 1H20V-1H18V1ZM16 1H18V-1H16V1ZM14 1H16V-1H14V1ZM12 1H14V-1H12V1ZM10 1H12V-1H10V1Z" fill="#797979" mask="url(#path-1-inside-1_485_33042)"/>
<mask id="path-3-inside-2_485_33042" fill="white">
<path fill-rule="evenodd" clip-rule="evenodd" d="M36 2H34V4H32H30V6H28H26V8V10V12V14V16V18H28H30V20H32H34V22H36H38H40V20V18V16V14V12V10V8V6V4V2H38H36Z"/>
</mask>
<path fill-rule="evenodd" clip-rule="evenodd" d="M36 2H34V4H32H30V6H28H26V8V10V12V14V16V18H28H30V20H32H34V22H36H38H40V20V18V16V14V12V10V8V6V4V2H38H36Z" fill="white"/>
<path d="M34 2V1H33V2H34ZM34 4V5H35V4H34ZM30 4V3H29V4H30ZM30 6V7H31V6H30ZM26 6V5H25V6H26ZM26 18H25V19H26V18ZM30 18H31V17H30V18ZM30 20H29V21H30V20ZM34 20H35V19H34V20ZM34 22H33V23H34V22ZM40 22V23H41V22H40ZM40 2H41V1H40V2ZM34 3H36V1H34V3ZM35 4V2H33V4H35ZM32 5H34V3H32V5ZM30 5H32V3H30V5ZM31 6V4H29V6H31ZM28 7H30V5H28V7ZM26 7H28V5H26V7ZM27 8V6H25V8H27ZM27 10V8H25V10H27ZM27 12V10H25V12H27ZM27 14V12H25V14H27ZM27 16V14H25V16H27ZM27 18V16H25V18H27ZM28 17H26V19H28V17ZM30 17H28V19H30V17ZM31 20V18H29V20H31ZM32 19H30V21H32V19ZM34 19H32V21H34V19ZM35 22V20H33V22H35ZM36 21H34V23H36V21ZM38 21H36V23H38V21ZM40 21H38V23H40V21ZM39 20V22H41V20H39ZM39 18V20H41V18H39ZM39 16V18H41V16H39ZM39 14V16H41V14H39ZM39 12V14H41V12H39ZM39 10V12H41V10H39ZM39 8V10H41V8H39ZM39 6V8H41V6H39ZM39 4V6H41V4H39ZM39 2V4H41V2H39ZM38 3H40V1H38V3ZM36 3H38V1H36V3Z" fill="#797979" mask="url(#path-3-inside-2_485_33042)"/>
</svg>
