<svg width="180" height="68" viewBox="0 0 180 68" fill="none" xmlns="http://www.w3.org/2000/svg">
<g filter="url(#filter0_d_929_220418)">
<rect x="8" y="8" width="164" height="4" fill="black"/>
<rect x="8" y="12" width="164" height="32" fill="white"/>
<rect x="52" y="44" width="120" height="4" fill="black"/>
<rect x="8" y="44" width="28" height="4" fill="black"/>
<rect x="4" y="12" width="4" height="32" fill="black"/>
<rect x="52" y="48" width="4" height="4" fill="black"/>
<rect x="48" y="52" width="4" height="4" fill="black"/>
<rect x="44" y="56" width="4" height="4" fill="black"/>
<rect x="40" y="52" width="4" height="4" fill="black"/>
<rect x="36" y="48" width="4" height="4" fill="black"/>
<path fill-rule="evenodd" clip-rule="evenodd" d="M36 44H56V48H52V52H48V56H44V52H40V48H36V44Z" fill="white"/>
<rect x="172" y="12" width="4" height="32" fill="black"/>
<path d="M16.75 22.75H22V27.25H21.25V28H17.5V27.25H20.5V25.75H16.75V25H20.5V23.5H16.75V22.75ZM23.5 22.75H25V25H25.75V22.75H27.25V28H25.75V25.75H25V28H23.5V22.75ZM17.5 31.75H19.75V31H20.5V30.25H21.25V28.75H23.5V30.25H24.25V31H25V31.75H27.25V32.5H24.25V31.75H23.5V31H22.75V30.25H22V31H21.25V31.75H20.5V32.5H17.5V31.75ZM28.75 23.5H34V24.25H30.25V26.5H34V27.25H30.25V31H32.5V30.25H34V31H33.25V31.75H29.5V31H28.75V23.5ZM36.25 22.75H37.75V27.25H40V28H37.75V32.5H36.25V22.75ZM40.75 24.25H42.25V23.5H45.25V24.25H46.75V26.5H45.25V27.25H42.25V26.5H40.75V24.25ZM42.25 25V25.75H43V26.5H44.5V25.75H45.25V25H44.5V24.25H43V25H42.25ZM40.75 28H49V22.75H50.5V32.5H49V30.25H46V29.5H49V28.75H44.5V32.5H43V28.75H40.75V28ZM53.5 22.75H55V25.75H62.5V26.5H54.25V25.75H53.5V22.75ZM52.75 27.25H63.25V28H52.75V27.25ZM53.5 28.75H55V31.75H62.5V32.5H54.25V31.75H53.5V28.75ZM70.75 23.5H76V31H75.25V31.75H71.5V31H70.75V23.5ZM72.25 24.25V31H74.5V24.25H72.25ZM77.5 22.75H79V27.25H79.75V22.75H81.25V32.5H79.75V28H79V32.5H77.5V22.75ZM82.75 24.25H83.5V23.5H84.25V22.75H87.25V23.5H88V24.25H88.75V26.5H88V27.25H87.25V28H84.25V27.25H83.5V26.5H82.75V24.25ZM84.25 24.25V26.5H85V27.25H86.5V26.5H87.25V24.25H86.5V23.5H85V24.25H84.25ZM91 22.75H92.5V28H91V22.75ZM83.5 28.75H92.5V31H85V31.75H92.5V32.5H84.25V31.75H83.5V30.25H91V29.5H83.5V28.75ZM100.75 22.75H105.25V27.25H104.5V28H101.5V27.25H103.75V23.5H100.75V22.75ZM107.5 22.75H109V25H109.75V22.75H111.25V28H109.75V25.75H109V28H107.5V22.75ZM101.5 29.5H103V28.75H109.75V29.5H111.25V31.75H109.75V32.5H103V31.75H101.5V29.5ZM103 30.25V31H103.75V31.75H109V31H109.75V30.25H109V29.5H103.75V30.25H103ZM112.75 27.25H113.5V26.5H114.25V25.75H115V22.75H116.5V25.75H117.25V26.5H118V27.25H118.75V28H117.25V27.25H116.5V26.5H115V27.25H114.25V28H112.75V27.25ZM121 22.75H122.5V28H121V22.75ZM113.5 28.75H115V31.75H122.5V32.5H114.25V31.75H113.5V28.75ZM124.75 22.75H130.75V23.5H126.25V25H130.75V25.75H125.5V25H124.75V22.75ZM124.75 27.25H127V25.75H128.5V27.25H133V22.75H134.5V28.75H133V28H124.75V27.25ZM125.5 28.75H127V31.75H134.5V32.5H126.25V31.75H125.5V28.75ZM136.75 23.5H142V24.25H138.25V31H140.5V30.25H142V31H141.25V31.75H137.5V31H136.75V23.5ZM144.25 22.75H145.75V27.25H148V28H145.75V32.5H144.25V22.75ZM149.5 23.5H151V22.75H157V23.5H158.5V25.75H157V26.5H151V25.75H149.5V23.5ZM151 24.25V25H151.75V25.75H156.25V25H157V24.25H156.25V23.5H151.75V24.25H151ZM148.75 27.25H153.25V25.75H154.75V27.25H159.25V28H148.75V27.25ZM149.5 29.5H151V28.75H157V29.5H158.5V31.75H157V32.5H151V31.75H149.5V29.5ZM151 30.25V31H151.75V31.75H156.25V31H157V30.25H156.25V29.5H151.75V30.25H151ZM160 27.25H160.75V26.5H163V27.25H163.75V26.5H165.25V27.25H164.5V28H162.25V27.25H161.5V28H160V27.25Z" fill="#0A0A0A"/>
</g>
<defs>
<filter id="filter0_d_929_220418" x="-4" y="0" width="188" height="76" filterUnits="userSpaceOnUse" color-interpolation-filters="sRGB">
<feFlood flood-opacity="0" result="BackgroundImageFix"/>
<feColorMatrix in="SourceAlpha" type="matrix" values="0 0 0 0 0 0 0 0 0 0 0 0 0 0 0 0 0 0 127 0" result="hardAlpha"/>
<feOffset dy="4"/>
<feGaussianBlur stdDeviation="2"/>
<feComposite in2="hardAlpha" operator="out"/>
<feColorMatrix type="matrix" values="0 0 0 0 0 0 0 0 0 0 0 0 0 0 0 0 0 0 0.25 0"/>
<feBlend mode="normal" in2="BackgroundImageFix" result="effect1_dropShadow_929_220418"/>
<feBlend mode="normal" in="SourceGraphic" in2="effect1_dropShadow_929_220418" result="shape"/>
</filter>
</defs>
</svg>
