<svg width="34" height="34" viewBox="0 0 34 34" fill="none" xmlns="http://www.w3.org/2000/svg">
<mask id="path-1-inside-1_486_33183" fill="white">
<path fill-rule="evenodd" clip-rule="evenodd" d="M16 0H14H12V2H10V4H8V6V8V10V12V14V16V18H10V20H12V22H14H16H18V20H20V18H22V16V14V12V10V8V6V4H20V2H18V0H16ZM12 24H14H16H18H20V22H22H24V20H26V18V16V14H28H30V16V18V20V22H28V24H26V26H24V28H22H20H18V30V32V34H16H14H12V32V30V28H10H8H6V26H4V24H2V22H0V20V18V16V14H2H4V16V18V20H6V22H8H10V24H12Z"/>
</mask>
<path fill-rule="evenodd" clip-rule="evenodd" d="M16 0H14H12V2H10V4H8V6V8V10V12V14V16V18H10V20H12V22H14H16H18V20H20V18H22V16V14V12V10V8V6V4H20V2H18V0H16ZM12 24H14H16H18H20V22H22H24V20H26V18V16V14H28H30V16V18V20V22H28V24H26V26H24V28H22H20H18V30V32V34H16H14H12V32V30V28H10H8H6V26H4V24H2V22H0V20V18V16V14H2H4V16V18V20H6V22H8H10V24H12Z" fill="#797979"/>
<path d="M12 0V-1H11V0H12ZM12 2V3H13V2H12ZM10 2V1H9V2H10ZM10 4V5H11V4H10ZM8 4V3H7V4H8ZM8 18H7V19H8V18ZM10 18H11V17H10V18ZM10 20H9V21H10V20ZM12 20H13V19H12V20ZM12 22H11V23H12V22ZM18 22V23H19V22H18ZM18 20V19H17V20H18ZM20 20V21H21V20H20ZM20 18V17H19V18H20ZM22 18V19H23V18H22ZM22 4H23V3H22V4ZM20 4H19V5H20V4ZM20 2H21V1H20V2ZM18 2H17V3H18V2ZM18 0H19V-1H18V0ZM20 24V25H21V24H20ZM20 22V21H19V22H20ZM24 22V23H25V22H24ZM24 20V19H23V20H24ZM26 20V21H27V20H26ZM26 14V13H25V14H26ZM30 14H31V13H30V14ZM30 22V23H31V22H30ZM28 22V21H27V22H28ZM28 24V25H29V24H28ZM26 24V23H25V24H26ZM26 26V27H27V26H26ZM24 26V25H23V26H24ZM24 28V29H25V28H24ZM18 28V27H17V28H18ZM18 34V35H19V34H18ZM12 34H11V35H12V34ZM12 28H13V27H12V28ZM6 28H5V29H6V28ZM6 26H7V25H6V26ZM4 26H3V27H4V26ZM4 24H5V23H4V24ZM2 24H1V25H2V24ZM2 22H3V21H2V22ZM0 22H-1V23H0V22ZM0 14V13H-1V14H0ZM4 14H5V13H4V14ZM4 20H3V21H4V20ZM6 20H7V19H6V20ZM6 22H5V23H6V22ZM10 22H11V21H10V22ZM10 24H9V25H10V24ZM14 1H16V-1H14V1ZM12 1H14V-1H12V1ZM13 2V0H11V2H13ZM10 3H12V1H10V3ZM11 4V2H9V4H11ZM8 5H10V3H8V5ZM9 6V4H7V6H9ZM9 8V6H7V8H9ZM9 10V8H7V10H9ZM9 12V10H7V12H9ZM9 14V12H7V14H9ZM9 16V14H7V16H9ZM9 18V16H7V18H9ZM10 17H8V19H10V17ZM11 20V18H9V20H11ZM12 19H10V21H12V19ZM13 22V20H11V22H13ZM14 21H12V23H14V21ZM16 21H14V23H16V21ZM18 21H16V23H18V21ZM17 20V22H19V20H17ZM20 19H18V21H20V19ZM19 18V20H21V18H19ZM22 17H20V19H22V17ZM21 16V18H23V16H21ZM21 14V16H23V14H21ZM21 12V14H23V12H21ZM21 10V12H23V10H21ZM21 8V10H23V8H21ZM21 6V8H23V6H21ZM21 4V6H23V4H21ZM20 5H22V3H20V5ZM19 2V4H21V2H19ZM18 3H20V1H18V3ZM17 0V2H19V0H17ZM16 1H18V-1H16V1ZM14 23H12V25H14V23ZM16 23H14V25H16V23ZM18 23H16V25H18V23ZM20 23H18V25H20V23ZM19 22V24H21V22H19ZM22 21H20V23H22V21ZM24 21H22V23H24V21ZM23 20V22H25V20H23ZM26 19H24V21H26V19ZM25 18V20H27V18H25ZM25 16V18H27V16H25ZM25 14V16H27V14H25ZM28 13H26V15H28V13ZM30 13H28V15H30V13ZM31 16V14H29V16H31ZM31 18V16H29V18H31ZM31 20V18H29V20H31ZM31 22V20H29V22H31ZM28 23H30V21H28V23ZM29 24V22H27V24H29ZM26 25H28V23H26V25ZM27 26V24H25V26H27ZM24 27H26V25H24V27ZM25 28V26H23V28H25ZM22 29H24V27H22V29ZM20 29H22V27H20V29ZM18 29H20V27H18V29ZM19 30V28H17V30H19ZM19 32V30H17V32H19ZM19 34V32H17V34H19ZM16 35H18V33H16V35ZM14 35H16V33H14V35ZM12 35H14V33H12V35ZM11 32V34H13V32H11ZM11 30V32H13V30H11ZM11 28V30H13V28H11ZM10 29H12V27H10V29ZM8 29H10V27H8V29ZM6 29H8V27H6V29ZM5 26V28H7V26H5ZM4 27H6V25H4V27ZM3 24V26H5V24H3ZM2 25H4V23H2V25ZM1 22V24H3V22H1ZM0 23H2V21H0V23ZM-1 20V22H1V20H-1ZM-1 18V20H1V18H-1ZM-1 16V18H1V16H-1ZM-1 14V16H1V14H-1ZM2 13H0V15H2V13ZM4 13H2V15H4V13ZM5 16V14H3V16H5ZM5 18V16H3V18H5ZM5 20V18H3V20H5ZM6 19H4V21H6V19ZM7 22V20H5V22H7ZM8 21H6V23H8V21ZM10 21H8V23H10V21ZM11 24V22H9V24H11ZM12 23H10V25H12V23Z" fill="#797979" mask="url(#path-1-inside-1_486_33183)"/>
<path fill-rule="evenodd" clip-rule="evenodd" d="M30 2H34V4H32V6H30V8H28V10H26V12H24V14H22V16H20V18H18V20H16V22H14V24H12V26H10V28H8V30H6V32H4V34H2H0V32H2V30H4V28H6V26H8V24H10V22H12V20H14V18H16V16H18V14H20V12H22V10H24V8H26V6H28V4H30V2Z" fill="#FF0000"/>
</svg>
