<svg width="328" height="72" viewBox="0 0 328 72" fill="none" xmlns="http://www.w3.org/2000/svg">
<g clip-path="url(#clip0_399_34131)">
<rect width="328" height="72" fill="#2C2C2C"/>
<rect y="68" width="328" height="4" fill="black"/>
<rect width="328" height="4" fill="white"/>
<rect width="4" height="72" fill="white"/>
<rect x="324" width="4" height="72" fill="black"/>
<path d="M129.392 44.2H126.592V47H112.592V44.2H109.792V41.4H115.392V44.2H123.792V38.6H112.592V35.8H109.792V30.2H112.592V27.4H123.792V30.2H126.592V33H120.992V30.2H115.392V35.8H126.592V38.6H129.392V44.2ZM148.39 30.2H142.79V47H137.19V30.2H131.59V27.4H148.39V30.2ZM171.583 47H165.983V41.4H157.583V47H151.983V33H154.783V30.2H157.583V27.4H165.983V30.2H168.783V33H171.583V47ZM165.983 38.6V33H163.183V30.2H160.383V33H157.583V38.6H165.983ZM194.771 47H186.371V44.2H183.571V41.4H180.771V47H175.171V27.4H191.971V30.2H194.771V38.6H189.171V41.4H191.971V44.2H194.771V47ZM189.171 35.8V30.2H180.771V38.6H186.371V35.8H189.171ZM216.558 30.2H210.958V47H205.358V30.2H199.758V27.4H216.558V30.2Z" fill="white"/>
<path d="M129.392 44.2V45.2H130.392V44.2H129.392ZM126.592 44.2V43.2H125.592V44.2H126.592ZM126.592 47V48H127.592V47H126.592ZM112.592 47H111.592V48H112.592V47ZM112.592 44.2H113.592V43.2H112.592V44.2ZM109.792 44.2H108.792V45.2H109.792V44.2ZM109.792 41.4V40.4H108.792V41.4H109.792ZM115.392 41.4H116.392V40.4H115.392V41.4ZM115.392 44.2H114.392V45.2H115.392V44.2ZM123.792 44.2V45.2H124.792V44.2H123.792ZM123.792 38.6H124.792V37.6H123.792V38.6ZM112.592 38.6H111.592V39.6H112.592V38.6ZM112.592 35.8H113.592V34.8H112.592V35.8ZM109.792 35.8H108.792V36.8H109.792V35.8ZM109.792 30.2V29.2H108.792V30.2H109.792ZM112.592 30.2V31.2H113.592V30.2H112.592ZM112.592 27.4V26.4H111.592V27.4H112.592ZM123.792 27.4H124.792V26.4H123.792V27.4ZM123.792 30.2H122.792V31.2H123.792V30.2ZM126.592 30.2H127.592V29.2H126.592V30.2ZM126.592 33V34H127.592V33H126.592ZM120.992 33H119.992V34H120.992V33ZM120.992 30.2H121.992V29.2H120.992V30.2ZM115.392 30.2V29.2H114.392V30.2H115.392ZM115.392 35.8H114.392V36.8H115.392V35.8ZM126.592 35.8H127.592V34.8H126.592V35.8ZM126.592 38.6H125.592V39.6H126.592V38.6ZM129.392 38.6H130.392V37.6H129.392V38.6ZM129.392 43.2H126.592V45.2H129.392V43.2ZM125.592 44.2V47H127.592V44.2H125.592ZM126.592 46H112.592V48H126.592V46ZM113.592 47V44.2H111.592V47H113.592ZM112.592 43.2H109.792V45.2H112.592V43.2ZM110.792 44.2V41.4H108.792V44.2H110.792ZM109.792 42.4H115.392V40.4H109.792V42.4ZM114.392 41.4V44.2H116.392V41.4H114.392ZM115.392 45.2H123.792V43.2H115.392V45.2ZM124.792 44.2V38.6H122.792V44.2H124.792ZM123.792 37.6H112.592V39.6H123.792V37.6ZM113.592 38.6V35.8H111.592V38.6H113.592ZM112.592 34.8H109.792V36.8H112.592V34.8ZM110.792 35.8V30.2H108.792V35.8H110.792ZM109.792 31.2H112.592V29.2H109.792V31.2ZM113.592 30.2V27.4H111.592V30.2H113.592ZM112.592 28.4H123.792V26.4H112.592V28.4ZM122.792 27.4V30.2H124.792V27.4H122.792ZM123.792 31.2H126.592V29.2H123.792V31.2ZM125.592 30.2V33H127.592V30.2H125.592ZM126.592 32H120.992V34H126.592V32ZM121.992 33V30.2H119.992V33H121.992ZM120.992 29.2H115.392V31.2H120.992V29.2ZM114.392 30.2V35.8H116.392V30.2H114.392ZM115.392 36.8H126.592V34.8H115.392V36.8ZM125.592 35.8V38.6H127.592V35.8H125.592ZM126.592 39.6H129.392V37.6H126.592V39.6ZM128.392 38.6V44.2H130.392V38.6H128.392ZM148.39 30.2V31.2H149.39V30.2H148.39ZM142.79 30.2V29.2H141.79V30.2H142.79ZM142.79 47V48H143.79V47H142.79ZM137.19 47H136.19V48H137.19V47ZM137.19 30.2H138.19V29.2H137.19V30.2ZM131.59 30.2H130.59V31.2H131.59V30.2ZM131.59 27.4V26.4H130.59V27.4H131.59ZM148.39 27.4H149.39V26.4H148.39V27.4ZM148.39 29.2H142.79V31.2H148.39V29.2ZM141.79 30.2V47H143.79V30.2H141.79ZM142.79 46H137.19V48H142.79V46ZM138.19 47V30.2H136.19V47H138.19ZM137.19 29.2H131.59V31.2H137.19V29.2ZM132.59 30.2V27.4H130.59V30.2H132.59ZM131.59 28.4H148.39V26.4H131.59V28.4ZM147.39 27.4V30.2H149.39V27.4H147.39ZM171.583 47V48H172.583V47H171.583ZM165.983 47H164.983V48H165.983V47ZM165.983 41.4H166.983V40.4H165.983V41.4ZM157.583 41.4V40.4H156.583V41.4H157.583ZM157.583 47V48H158.583V47H157.583ZM151.983 47H150.983V48H151.983V47ZM151.983 33V32H150.983V33H151.983ZM154.783 33V34H155.783V33H154.783ZM154.783 30.2V29.2H153.783V30.2H154.783ZM157.583 30.2V31.2H158.583V30.2H157.583ZM157.583 27.4V26.4H156.583V27.4H157.583ZM165.983 27.4H166.983V26.4H165.983V27.4ZM165.983 30.2H164.983V31.2H165.983V30.2ZM168.783 30.2H169.783V29.2H168.783V30.2ZM168.783 33H167.783V34H168.783V33ZM171.583 33H172.583V32H171.583V33ZM165.983 38.6V39.6H166.983V38.6H165.983ZM165.983 33H166.983V32H165.983V33ZM163.183 33H162.183V34H163.183V33ZM163.183 30.2H164.183V29.2H163.183V30.2ZM160.383 30.2V29.2H159.383V30.2H160.383ZM160.383 33V34H161.383V33H160.383ZM157.583 33V32H156.583V33H157.583ZM157.583 38.6H156.583V39.6H157.583V38.6ZM171.583 46H165.983V48H171.583V46ZM166.983 47V41.4H164.983V47H166.983ZM165.983 40.4H157.583V42.4H165.983V40.4ZM156.583 41.4V47H158.583V41.4H156.583ZM157.583 46H151.983V48H157.583V46ZM152.983 47V33H150.983V47H152.983ZM151.983 34H154.783V32H151.983V34ZM155.783 33V30.2H153.783V33H155.783ZM154.783 31.2H157.583V29.2H154.783V31.2ZM158.583 30.2V27.4H156.583V30.2H158.583ZM157.583 28.4H165.983V26.4H157.583V28.4ZM164.983 27.4V30.2H166.983V27.4H164.983ZM165.983 31.2H168.783V29.2H165.983V31.2ZM167.783 30.2V33H169.783V30.2H167.783ZM168.783 34H171.583V32H168.783V34ZM170.583 33V47H172.583V33H170.583ZM166.983 38.6V33H164.983V38.6H166.983ZM165.983 32H163.183V34H165.983V32ZM164.183 33V30.2H162.183V33H164.183ZM163.183 29.2H160.383V31.2H163.183V29.2ZM159.383 30.2V33H161.383V30.2H159.383ZM160.383 32H157.583V34H160.383V32ZM156.583 33V38.6H158.583V33H156.583ZM157.583 39.6H165.983V37.6H157.583V39.6ZM194.771 47V48H195.771V47H194.771ZM186.371 47H185.371V48H186.371V47ZM186.371 44.2H187.371V43.2H186.371V44.2ZM183.571 44.2H182.571V45.2H183.571V44.2ZM183.571 41.4H184.571V40.4H183.571V41.4ZM180.771 41.4V40.4H179.771V41.4H180.771ZM180.771 47V48H181.771V47H180.771ZM175.171 47H174.171V48H175.171V47ZM175.171 27.4V26.4H174.171V27.4H175.171ZM191.971 27.4H192.971V26.4H191.971V27.4ZM191.971 30.2H190.971V31.2H191.971V30.2ZM194.771 30.2H195.771V29.2H194.771V30.2ZM194.771 38.6V39.6H195.771V38.6H194.771ZM189.171 38.6V37.6H188.171V38.6H189.171ZM189.171 41.4H188.171V42.4H189.171V41.4ZM191.971 41.4H192.971V40.4H191.971V41.4ZM191.971 44.2H190.971V45.2H191.971V44.2ZM194.771 44.2H195.771V43.2H194.771V44.2ZM189.171 35.8V36.8H190.171V35.8H189.171ZM189.171 30.2H190.171V29.2H189.171V30.2ZM180.771 30.2V29.2H179.771V30.2H180.771ZM180.771 38.6H179.771V39.6H180.771V38.6ZM186.371 38.6V39.6H187.371V38.6H186.371ZM186.371 35.8V34.8H185.371V35.8H186.371ZM194.771 46H186.371V48H194.771V46ZM187.371 47V44.2H185.371V47H187.371ZM186.371 43.2H183.571V45.2H186.371V43.2ZM184.571 44.2V41.4H182.571V44.2H184.571ZM183.571 40.4H180.771V42.4H183.571V40.4ZM179.771 41.4V47H181.771V41.4H179.771ZM180.771 46H175.171V48H180.771V46ZM176.171 47V27.4H174.171V47H176.171ZM175.171 28.4H191.971V26.4H175.171V28.4ZM190.971 27.4V30.2H192.971V27.4H190.971ZM191.971 31.2H194.771V29.2H191.971V31.2ZM193.771 30.2V38.6H195.771V30.2H193.771ZM194.771 37.6H189.171V39.6H194.771V37.6ZM188.171 38.6V41.4H190.171V38.6H188.171ZM189.171 42.4H191.971V40.4H189.171V42.4ZM190.971 41.4V44.2H192.971V41.4H190.971ZM191.971 45.2H194.771V43.2H191.971V45.2ZM193.771 44.2V47H195.771V44.2H193.771ZM190.171 35.8V30.2H188.171V35.8H190.171ZM189.171 29.2H180.771V31.2H189.171V29.2ZM179.771 30.2V38.6H181.771V30.2H179.771ZM180.771 39.6H186.371V37.6H180.771V39.6ZM187.371 38.6V35.8H185.371V38.6H187.371ZM186.371 36.8H189.171V34.8H186.371V36.8ZM216.558 30.2V31.2H217.558V30.2H216.558ZM210.958 30.2V29.2H209.958V30.2H210.958ZM210.958 47V48H211.958V47H210.958ZM205.358 47H204.358V48H205.358V47ZM205.358 30.2H206.358V29.2H205.358V30.2ZM199.758 30.2H198.758V31.2H199.758V30.2ZM199.758 27.4V26.4H198.758V27.4H199.758ZM216.558 27.4H217.558V26.4H216.558V27.4ZM216.558 29.2H210.958V31.2H216.558V29.2ZM209.958 30.2V47H211.958V30.2H209.958ZM210.958 46H205.358V48H210.958V46ZM206.358 47V30.2H204.358V47H206.358ZM205.358 29.2H199.758V31.2H205.358V29.2ZM200.758 30.2V27.4H198.758V30.2H200.758ZM199.758 28.4H216.558V26.4H199.758V28.4ZM215.558 27.4V30.2H217.558V27.4H215.558Z" fill="black"/>
<mask id="mask0_399_34131" style="mask-type:alpha" maskUnits="userSpaceOnUse" x="109" y="27" width="108" height="20">
<path d="M129.392 44.2H126.592V47H112.592V44.2H109.792V41.4H115.392V44.2H123.792V38.6H112.592V35.8H109.792V30.2H112.592V27.4H123.792V30.2H126.592V33H120.992V30.2H115.392V35.8H126.592V38.6H129.392V44.2ZM148.39 30.2H142.79V47H137.19V30.2H131.59V27.4H148.39V30.2ZM171.583 47H165.983V41.4H157.583V47H151.983V33H154.783V30.2H157.583V27.4H165.983V30.2H168.783V33H171.583V47ZM165.983 38.6V33H163.183V30.2H160.383V33H157.583V38.6H165.983ZM194.771 47H186.371V44.2H183.571V41.4H180.771V47H175.171V27.4H191.971V30.2H194.771V38.6H189.171V41.4H191.971V44.2H194.771V47ZM189.171 35.8V30.2H180.771V38.6H186.371V35.8H189.171ZM216.558 30.2H210.958V47H205.358V30.2H199.758V27.4H216.558V30.2Z" fill="white"/>
</mask>
<g mask="url(#mask0_399_34131)">
<rect x="103" y="37" width="121" height="10" fill="#EB9BD5"/>
<rect x="108" y="36" width="103" height="20" fill="#9400B9"/>
<rect x="108" y="36" width="103" height="20" fill="#9400B9"/>
</g>
</g>
<defs>
<clipPath id="clip0_399_34131">
<rect width="328" height="72" fill="white"/>
</clipPath>
</defs>
</svg>
