<svg width="272" height="176" viewBox="0 0 272 176" fill="none" xmlns="http://www.w3.org/2000/svg">
<rect width="272" height="176" fill="#2C2C2C"/>
<rect y="44" width="4" height="4" fill="#D7D7D7"/>
<rect x="260" y="44" width="4" height="4" fill="#D7D7D7"/>
<rect y="68" width="4" height="4" fill="#D7D7D7"/>
<rect x="260" y="68" width="4" height="4" fill="#D7D7D7"/>
<rect y="80" width="4" height="4" fill="#D7D7D7"/>
<rect x="260" y="80" width="4" height="4" fill="#D7D7D7"/>
<rect y="32" width="4" height="4" fill="#D7D7D7"/>
<rect x="260" y="32" width="4" height="4" fill="#D7D7D7"/>
<rect y="56" width="4" height="4" fill="#D7D7D7"/>
<rect x="260" y="56" width="4" height="4" fill="#D7D7D7"/>
<rect y="88" width="4" height="4" fill="#D7D7D7"/>
<rect x="260" y="88" width="4" height="4" fill="#D7D7D7"/>
<rect y="40" width="4" height="4" fill="#D7D7D7"/>
<rect x="260" y="40" width="4" height="4" fill="#D7D7D7"/>
<rect y="64" width="4" height="4" fill="#D7D7D7"/>
<rect x="260" y="64" width="4" height="4" fill="#D7D7D7"/>
<rect y="76" width="4" height="4" fill="#D7D7D7"/>
<rect x="260" y="76" width="4" height="4" fill="#D7D7D7"/>
<rect y="28" width="4" height="4" fill="#D7D7D7"/>
<rect x="260" y="28" width="4" height="4" fill="#D7D7D7"/>
<rect y="52" width="4" height="4" fill="#D7D7D7"/>
<rect x="260" y="52" width="4" height="4" fill="#D7D7D7"/>
<rect x="8" y="20" width="4" height="4" fill="#D7D7D7"/>
<rect x="136" y="20" width="4" height="4" fill="#D7D7D7"/>
<rect x="16" y="20" width="4" height="4" fill="#D7D7D7"/>
<rect x="144" y="20" width="4" height="4" fill="#D7D7D7"/>
<rect x="24" y="20" width="4" height="4" fill="#D7D7D7"/>
<rect x="152" y="20" width="4" height="4" fill="#D7D7D7"/>
<rect x="32" y="20" width="4" height="4" fill="#D7D7D7"/>
<rect x="160" y="20" width="4" height="4" fill="#D7D7D7"/>
<rect x="40" y="20" width="4" height="4" fill="#D7D7D7"/>
<rect x="168" y="20" width="4" height="4" fill="#D7D7D7"/>
<rect x="176" y="20" width="4" height="4" fill="#D7D7D7"/>
<rect x="184" y="20" width="4" height="4" fill="#D7D7D7"/>
<rect x="52" width="4" height="4" fill="#D7D7D7"/>
<rect x="108" width="4" height="4" fill="#D7D7D7"/>
<rect x="192" y="20" width="4" height="4" fill="#D7D7D7"/>
<rect x="84" width="4" height="4" fill="#D7D7D7"/>
<rect x="224" y="20" width="4" height="4" fill="#D7D7D7"/>
<rect x="240" y="20" width="4" height="4" fill="#D7D7D7"/>
<rect x="252" y="20" width="4" height="4" fill="#D7D7D7"/>
<rect x="60" width="4" height="4" fill="#D7D7D7"/>
<rect x="116" width="4" height="4" fill="#D7D7D7"/>
<rect x="200" y="20" width="4" height="4" fill="#D7D7D7"/>
<rect x="68" width="4" height="4" fill="#D7D7D7"/>
<rect x="124" width="4" height="4" fill="#D7D7D7"/>
<rect x="208" y="20" width="4" height="4" fill="#D7D7D7"/>
<rect x="76" width="4" height="4" fill="#D7D7D7"/>
<rect x="132" width="4" height="4" fill="#D7D7D7"/>
<rect x="216" y="20" width="4" height="4" fill="#D7D7D7"/>
<rect x="4" y="20" width="4" height="4" fill="#D7D7D7"/>
<rect y="84" width="4" height="4" fill="#D7D7D7"/>
<rect x="260" y="84" width="4" height="4" fill="#D7D7D7"/>
<rect y="36" width="4" height="4" fill="#D7D7D7"/>
<rect x="260" y="36" width="4" height="4" fill="#D7D7D7"/>
<rect y="60" width="4" height="4" fill="#D7D7D7"/>
<rect x="260" y="60" width="4" height="4" fill="#D7D7D7"/>
<rect y="72" width="4" height="4" fill="#D7D7D7"/>
<rect x="260" y="72" width="4" height="4" fill="#D7D7D7"/>
<rect y="24" width="4" height="4" fill="#D7D7D7"/>
<rect y="20" width="4" height="4" fill="#D7D7D7"/>
<rect x="260" y="24" width="4" height="4" fill="#D7D7D7"/>
<rect x="260" y="20" width="4" height="4" fill="#D7D7D7"/>
<rect y="48" width="4" height="4" fill="#D7D7D7"/>
<rect x="260" y="48" width="4" height="4" fill="#D7D7D7"/>
<rect x="12" y="20" width="4" height="4" fill="#D7D7D7"/>
<rect x="140" y="20" width="4" height="4" fill="#D7D7D7"/>
<rect x="20" y="20" width="4" height="4" fill="#D7D7D7"/>
<rect x="148" y="20" width="4" height="4" fill="#D7D7D7"/>
<rect x="28" y="20" width="4" height="4" fill="#D7D7D7"/>
<rect x="156" y="20" width="4" height="4" fill="#D7D7D7"/>
<rect x="36" y="20" width="4" height="4" fill="#D7D7D7"/>
<rect x="164" y="20" width="4" height="4" fill="#D7D7D7"/>
<rect x="44" y="20" width="4" height="4" fill="#D7D7D7"/>
<path fill-rule="evenodd" clip-rule="evenodd" d="M12 24H8V28H12H16H20H24H28H32H36H40H44H48V24H44H40H36H32H28H24H20H16H12Z" fill="white"/>
<path fill-rule="evenodd" clip-rule="evenodd" d="M136 24H149.778V28H136V24ZM163.556 24H177.333H177.334H191.111H191.111H204.888V28H191.111H191.111H177.334H177.333H163.556H163.556H149.779V24H163.556H163.556ZM218.667 24H232.444H232.445H246.222H246.222H260V28H246.222H246.222H232.445H232.444H218.667V24ZM204.889 24H218.667V28H204.889V24Z" fill="white"/>
<rect x="44" y="12" width="4" height="4" fill="#D7D7D7"/>
<rect x="136" y="12" width="4" height="4" fill="#D7D7D7"/>
<rect x="44" y="16" width="4" height="4" fill="#D7D7D7"/>
<rect x="136" y="16" width="4" height="4" fill="#D7D7D7"/>
<rect x="44" y="8" width="4" height="4" fill="#D7D7D7"/>
<rect x="44" y="4" width="4" height="4" fill="#D7D7D7"/>
<path fill-rule="evenodd" clip-rule="evenodd" d="M48 4H52V6.85714H48V4ZM52 6.85726H48V9.7144H52V6.85726ZM52 9.71452H48V12.5717H52V9.71452ZM52 15.4289V18.2854H48V15.4289V15.4282V12.5718H52V15.4282V15.4289ZM48 18.2855H52V21.1426H48V18.2855ZM52 21.1427H48V23.9999H52V21.1427Z" fill="white"/>
<path fill-rule="evenodd" clip-rule="evenodd" d="M132 4H136V6.85714H132V4ZM136 6.85726H132V9.7144H136V6.85726ZM136 9.71452H132V12.5717H136V9.71452ZM136 15.4289V18.2854H132V15.4289V15.4282V12.5718H136V15.4282V15.4289ZM132 18.2855H136V21.1426H132V18.2855ZM136 21.1427H132V23.9999H136V21.1427Z" fill="white"/>
<rect x="136" y="8" width="4" height="4" fill="#D7D7D7"/>
<rect x="136" y="4" width="4" height="4" fill="#D7D7D7"/>
<rect x="172" y="20" width="4" height="4" fill="#D7D7D7"/>
<rect x="180" y="20" width="4" height="4" fill="#D7D7D7"/>
<rect x="48" width="4" height="4" fill="#D7D7D7"/>
<rect x="188" y="20" width="4" height="4" fill="#D7D7D7"/>
<rect x="56" width="4" height="4" fill="#D7D7D7"/>
<rect x="112" width="4" height="4" fill="#D7D7D7"/>
<rect x="196" y="20" width="4" height="4" fill="#D7D7D7"/>
<rect x="64" width="4" height="4" fill="#D7D7D7"/>
<rect x="120" width="4" height="4" fill="#D7D7D7"/>
<rect x="204" y="20" width="4" height="4" fill="#D7D7D7"/>
<rect x="72" width="4" height="4" fill="#D7D7D7"/>
<rect x="128" width="4" height="4" fill="#D7D7D7"/>
<rect x="212" y="20" width="4" height="4" fill="#D7D7D7"/>
<rect x="80" width="4" height="4" fill="#D7D7D7"/>
<rect x="220" y="20" width="4" height="4" fill="#D7D7D7"/>
<rect x="236" y="20" width="4" height="4" fill="#D7D7D7"/>
<rect x="88" width="4" height="4" fill="#D7D7D7"/>
<rect x="228" y="20" width="4" height="4" fill="#D7D7D7"/>
<rect x="244" y="20" width="4" height="4" fill="#D7D7D7"/>
<rect x="256" y="20" width="4" height="4" fill="#D7D7D7"/>
<rect x="104" width="4" height="4" fill="#D7D7D7"/>
<rect x="264" y="24" width="8" height="144" fill="black"/>
<rect x="96" width="4" height="4" fill="#D7D7D7"/>
<rect x="92" width="4" height="4" fill="#D7D7D7"/>
<rect x="232" y="20" width="4" height="4" fill="#D7D7D7"/>
<rect x="248" y="20" width="4" height="4" fill="#D7D7D7"/>
<rect x="100" width="4" height="4" fill="#D7D7D7"/>
<path fill-rule="evenodd" clip-rule="evenodd" d="M52 4H56H60H64H68H72H76H80H84H88H92H96H100H104H108H112H116H120H124H128H132H136V8H132H128H124H120H116H112H108H104H100H96H92H88H84H80H76H72H68H64H60H56H52V4Z" fill="white"/>
<rect y="116" width="4" height="4" fill="#D7D7D7"/>
<rect x="260" y="116" width="4" height="4" fill="#D7D7D7"/>
<rect y="140" width="4" height="4" fill="#D7D7D7"/>
<rect x="260" y="140" width="4" height="4" fill="#D7D7D7"/>
<rect y="92" width="4" height="4" fill="#D7D7D7"/>
<rect x="260" y="92" width="4" height="4" fill="#D7D7D7"/>
<rect y="152" width="4" height="4" fill="#D7D7D7"/>
<rect x="260" y="152" width="4" height="4" fill="#D7D7D7"/>
<rect y="104" width="4" height="4" fill="#D7D7D7"/>
<rect x="260" y="104" width="4" height="4" fill="#D7D7D7"/>
<rect y="128" width="4" height="4" fill="#D7D7D7"/>
<rect x="260" y="128" width="4" height="4" fill="#D7D7D7"/>
<rect y="112" width="4" height="4" fill="#D7D7D7"/>
<rect x="260" y="112" width="4" height="4" fill="#D7D7D7"/>
<rect y="136" width="4" height="4" fill="#D7D7D7"/>
<rect x="260" y="136" width="4" height="4" fill="#D7D7D7"/>
<rect y="148" width="4" height="4" fill="#D7D7D7"/>
<rect x="260" y="148" width="4" height="4" fill="#D7D7D7"/>
<rect y="100" width="4" height="4" fill="#D7D7D7"/>
<rect x="260" y="100" width="4" height="4" fill="#D7D7D7"/>
<rect y="124" width="4" height="4" fill="#D7D7D7"/>
<rect x="260" y="124" width="4" height="4" fill="#D7D7D7"/>
<rect y="156" width="4" height="4" fill="#D7D7D7"/>
<rect y="160" width="4" height="4" fill="#D7D7D7"/>
<rect x="260" y="156" width="4" height="4" fill="#D7D7D7"/>
<rect x="260" y="160" width="4" height="4" fill="#D7D7D7"/>
<rect x="260" y="164" width="4" height="4" fill="black"/>
<rect y="108" width="4" height="4" fill="#D7D7D7"/>
<rect x="260" y="108" width="4" height="4" fill="#D7D7D7"/>
<rect y="132" width="4" height="4" fill="#D7D7D7"/>
<rect x="260" y="132" width="4" height="4" fill="#D7D7D7"/>
<rect y="144" width="4" height="4" fill="#D7D7D7"/>
<rect x="260" y="144" width="4" height="4" fill="#D7D7D7"/>
<rect y="96" width="4" height="4" fill="#D7D7D7"/>
<rect x="260" y="96" width="4" height="4" fill="#D7D7D7"/>
<rect y="120" width="4" height="4" fill="#D7D7D7"/>
<path fill-rule="evenodd" clip-rule="evenodd" d="M4 24H8V27.8884V27.8889V31.7773H4V27.8889V27.8884V24ZM4 31.7779H8V35.6663V35.6668V39.5552H4V35.6668V35.6663V31.7779ZM8 47.3331V43.4447V43.4442V39.5558H4V43.4442V43.4447V47.3331H8ZM8 160.112H4V164H8V160.112ZM4 66.7779H8V70.6663V70.6668V74.5552H4V70.6668V70.6663V66.7779ZM8 82.3331V78.4447V78.4442V74.5558H4V78.4442V78.4447V82.3331H8ZM8 55.1116H4V59V59.0004V62.8884V62.8889V66.7773H8V62.8889V62.8884V59.0004V59V55.1116ZM8 86.2226V90.111H4V86.2226V86.2221V82.3337H8V86.2221V86.2226ZM8 55.111V51.2226V51.2221V47.3337H4V51.2221V51.2226V55.111H8ZM4 117.333V113.445V113.444V109.556H8V113.444V113.445V117.333H4ZM8 136.778H4V140.666V140.667V144.555H8V140.667V140.666V136.778ZM4 90.1116H8V94V94.0004V97.8884V97.8889V101.777H4V97.8889V97.8884V94.0004V94V90.1116ZM8 152.333V148.445V148.444V144.556H4V148.444V148.445V152.333H8ZM4 101.778H8V105.666V105.667V109.555H4V105.667V105.666V101.778ZM8 125.112H4V129V129V132.888V132.889V136.777H8V132.889V132.888V129V129V125.112ZM8 156.223V160.111H4V156.223V156.222V152.334H8V156.222V156.223ZM8 125.111V121.223V121.222V117.334H4V121.222V121.223V125.111H8Z" fill="white"/>
<path fill-rule="evenodd" clip-rule="evenodd" d="M256 28H260V31.7778H256V28ZM256 31.7788H260V35.5556V35.5565V39.3333H256V35.5565V35.5556V31.7788ZM260 50.6667V46.8889H256V50.6667H260ZM260 163.999V160.222V160.221V156.444V152.667H256V156.444V160.221V160.222V163.999H260ZM256 73.3333V69.5565V69.5556V65.7788H260V69.5556V69.5565V73.3333H256ZM260 84.6667V80.8889H256V84.6667H260ZM260 61.999V58.2222V58.2212V54.4444H256V58.2212V58.2222V61.999H260ZM256 92.2212V88.4444H260V92.2212V92.2222V95.999H256V92.2222V92.2212ZM260 43.1111H256V46.8889H260V43.1111ZM260 80.8889V77.1111H256V80.8889H260ZM260 84.6667V88.4444H256V84.6667H260ZM260 39.3333H256V43.1111H260V39.3333ZM260 62V65.7778H256V62H260ZM260 77.1111V73.3333H256V77.1111H260ZM260 54.4444V50.6667H256V54.4444H260ZM260 114.889V118.667H256V114.889H260ZM260 141.333V137.557V137.556V133.779H256V137.556V137.557V141.333H260ZM260 152.667V148.889H256V152.667H260ZM260 103.557V107.333H256V103.557V103.556V99.7788H260V103.556V103.557ZM260 129.999V126.222V126.221V122.444H256V126.221V126.222V129.999H260ZM260 114.889V111.111H256V114.889H260ZM260 148.889V145.111H256V148.889H260ZM260 111.111V107.333H256V111.111H260ZM260 130V133.778H256V130H260ZM260 145.111V141.333H256V145.111H260ZM260 96V99.7778H256V96H260ZM260 122.444V118.667H256V122.444H260Z" fill="#797979"/>
<rect x="260" y="120" width="4" height="4" fill="#D7D7D7"/>
<rect x="126.061" y="164" width="3.93939" height="4" fill="#D7D7D7"/>
<rect x="7.87891" y="164" width="3.93939" height="4" fill="#D7D7D7"/>
<rect x="133.939" y="164" width="3.93939" height="4" fill="#D7D7D7"/>
<rect x="15.7578" y="164" width="3.93939" height="4" fill="#D7D7D7"/>
<rect x="141.818" y="164" width="3.93939" height="4" fill="#D7D7D7"/>
<rect x="23.6362" y="164" width="3.93939" height="4" fill="#D7D7D7"/>
<rect x="149.697" y="164" width="3.93939" height="4" fill="#D7D7D7"/>
<rect x="31.5151" y="164" width="3.93939" height="4" fill="#D7D7D7"/>
<rect x="157.576" y="164" width="3.93939" height="4" fill="#D7D7D7"/>
<rect x="39.394" y="164" width="3.93939" height="4" fill="#D7D7D7"/>
<rect x="165.455" y="164" width="3.93939" height="4" fill="#D7D7D7"/>
<rect x="47.2729" y="164" width="3.93939" height="4" fill="#D7D7D7"/>
<rect x="173.333" y="164" width="3.93939" height="4" fill="#D7D7D7"/>
<rect x="55.1514" y="164" width="3.93939" height="4" fill="#D7D7D7"/>
<rect x="181.212" y="164" width="3.93939" height="4" fill="#D7D7D7"/>
<rect x="63.0303" y="164" width="3.93939" height="4" fill="#D7D7D7"/>
<rect x="189.091" y="164" width="3.93939" height="4" fill="#D7D7D7"/>
<rect x="94.5454" y="164" width="3.93939" height="4" fill="#D7D7D7"/>
<rect x="220.606" y="164" width="3.93939" height="4" fill="#D7D7D7"/>
<rect x="240.303" y="164" width="3.93939" height="4" fill="#D7D7D7"/>
<rect x="70.9092" y="164" width="3.93939" height="4" fill="#D7D7D7"/>
<rect x="196.97" y="164" width="3.93939" height="4" fill="#D7D7D7"/>
<rect x="78.7881" y="164" width="3.93939" height="4" fill="#D7D7D7"/>
<rect x="204.849" y="164" width="3.93939" height="4" fill="#D7D7D7"/>
<rect x="86.6665" y="164" width="3.93939" height="4" fill="#D7D7D7"/>
<rect x="212.727" y="164" width="3.93939" height="4" fill="#D7D7D7"/>
<rect x="232.424" y="164" width="3.93939" height="4" fill="#D7D7D7"/>
<rect x="3.93945" y="164" width="3.93939" height="4" fill="#D7D7D7"/>
<rect x="130" y="164" width="3.93939" height="4" fill="#D7D7D7"/>
<rect x="11.8184" y="164" width="3.93939" height="4" fill="#D7D7D7"/>
<rect x="137.879" y="164" width="3.93939" height="4" fill="#D7D7D7"/>
<rect x="19.6968" y="164" width="3.93939" height="4" fill="#D7D7D7"/>
<rect x="145.758" y="164" width="3.93939" height="4" fill="#D7D7D7"/>
<rect x="27.5757" y="164" width="3.93939" height="4" fill="#D7D7D7"/>
<rect x="153.636" y="164" width="3.93939" height="4" fill="#D7D7D7"/>
<rect x="35.4546" y="164" width="3.93939" height="4" fill="#D7D7D7"/>
<rect x="161.515" y="164" width="3.93939" height="4" fill="#D7D7D7"/>
<rect x="43.3335" y="164" width="3.93939" height="4" fill="#D7D7D7"/>
<rect x="169.394" y="164" width="3.93939" height="4" fill="#D7D7D7"/>
<rect x="51.2119" y="164" width="3.93939" height="4" fill="#D7D7D7"/>
<rect x="177.273" y="164" width="3.93939" height="4" fill="#D7D7D7"/>
<rect x="59.0908" y="164" width="3.93939" height="4" fill="#D7D7D7"/>
<rect x="185.151" y="164" width="3.93939" height="4" fill="#D7D7D7"/>
<rect x="66.9697" y="164" width="3.93939" height="4" fill="#D7D7D7"/>
<rect x="193.03" y="164" width="3.93939" height="4" fill="#D7D7D7"/>
<rect x="74.8486" y="164" width="3.93939" height="4" fill="#D7D7D7"/>
<rect x="200.909" y="164" width="3.93939" height="4" fill="#D7D7D7"/>
<rect x="82.7271" y="164" width="3.93939" height="4" fill="#D7D7D7"/>
<rect x="208.788" y="164" width="3.93939" height="4" fill="#D7D7D7"/>
<rect x="90.606" y="164" width="3.93939" height="4" fill="#D7D7D7"/>
<rect x="216.667" y="164" width="3.93939" height="4" fill="#D7D7D7"/>
<rect x="236.364" y="164" width="3.93939" height="4" fill="#D7D7D7"/>
<rect x="98.4849" y="164" width="3.93939" height="4" fill="#D7D7D7"/>
<rect x="224.545" y="164" width="3.93939" height="4" fill="#D7D7D7"/>
<rect x="244.242" y="164" width="3.93939" height="4" fill="#D7D7D7"/>
<rect x="114.242" y="164" width="3.93939" height="4" fill="#D7D7D7"/>
<rect x="256.061" y="164" width="3.93939" height="4" fill="#D7D7D7"/>
<rect x="260" y="164" width="3.93939" height="4" fill="#D7D7D7"/>
<rect x="106.364" y="164" width="3.93939" height="4" fill="#D7D7D7"/>
<rect x="252.121" y="164" width="3.93939" height="4" fill="#D7D7D7"/>
<rect x="122.121" y="164" width="3.93939" height="4" fill="#D7D7D7"/>
<rect x="102.424" y="164" width="3.93939" height="4" fill="#D7D7D7"/>
<rect x="228.485" y="164" width="3.93939" height="4" fill="#D7D7D7"/>
<rect x="248.182" y="164" width="3.93939" height="4" fill="#D7D7D7"/>
<rect x="118.182" y="164" width="3.93939" height="4" fill="#D7D7D7"/>
<rect x="110.303" y="164" width="3.93939" height="4" fill="#D7D7D7"/>
<path fill-rule="evenodd" clip-rule="evenodd" d="M11.7576 160H8V164H11.7576V160ZM132 160H128.242H128.242H124.485H124.485H120.727V164H124.485H124.485H128.242H128.242H132V160ZM15.5155 160H19.2728H19.273H23.0304V164H19.273H19.2728H15.5155H15.5154H11.7579V160H15.5154H15.5155ZM139.515 160H135.758V164H139.515H139.516H143.273H143.273H147.03V160H143.273H143.273H139.516H139.515ZM23.0308 160H26.7877H26.7883H30.5451H30.5453H34.3027V164H30.5453H30.5451H26.7883H26.7877H23.0308V160ZM154.545 160H150.788H150.788H147.031V164H150.788H150.788H154.545H154.545H158.303V160H154.545H154.545ZM38.0607 160H41.8181V164H38.0607H38.0605H34.3031V160H38.0605H38.0607ZM162.061 160H158.303V164H162.061H162.061H165.818V160H162.061H162.061ZM45.576 160H49.3335V164H45.576H45.5759H41.8185V160H45.5759H45.576ZM169.576 160H165.818V164H169.576H169.576H173.333V160H169.576H169.576ZM53.0914 160H56.8482H56.8489H60.6056H60.6058H64.3632V164H60.6058H60.6056H56.8489H56.8482H53.0914H53.0913H49.3338V160H53.0913H53.0914ZM177.091 160H173.334V164H177.091H177.091H180.848H180.849H184.606H184.606H188.363V160H184.606H184.606H180.849H180.848H177.091H177.091ZM68.1212 160H71.8786V164H68.1212H68.121H64.3636V160H68.121H68.1212ZM192.121 160H188.364V164H192.121H192.121H195.879V160H192.121H192.121ZM98.1817 160H101.939V164H98.1817H98.1815H94.4241V160H98.1815H98.1817ZM222.182 160H218.424V164H222.182H222.182H225.939V160H222.182H222.182ZM237.212 160H240.969H240.97H244.727V164H240.97H240.969H237.212H237.212H233.455V160H237.212H237.212ZM79.394 160H75.6365H75.6364H71.879V164H75.6364H75.6365H79.394V160ZM195.879 160H199.636H199.637H203.394V164H199.637H199.636H195.879V160ZM86.9087 160H83.1519H83.1518H79.3944V164H83.1518H83.1519H86.9087H86.9094H90.6662H90.6663H94.4237V160H90.6663H90.6662H86.9094H86.9087ZM203.394 160H207.152H207.152H210.909H210.909H214.666H214.666H218.424V164H214.666H214.666H210.909H210.909H207.152H207.152H203.394V160ZM233.454 160H229.697H229.697H225.939V164H229.697H229.697H233.454V160ZM135.758 160H132V164H135.758V160ZM105.697 160H101.939V164H105.697H105.697H109.454V160H105.697H105.697ZM116.97 160H120.727V164H116.97H116.969H113.212H113.212H109.455V160H113.212H113.212H116.969H116.97ZM256 160H252.242H252.242H248.485H248.485H244.727V164H248.485H248.485H252.242H252.242H256V160Z" fill="#797979"/>
<rect x="8" y="168" width="264" height="8" fill="black"/>
<rect y="164" width="4" height="4" fill="#D7D7D7"/>
<rect x="140" y="4" width="8" height="16" fill="black"/>
<rect x="136" width="8" height="4" fill="black"/>
</svg>
