<svg width="48" height="46" viewBox="0 0 48 46" fill="none" xmlns="http://www.w3.org/2000/svg">
<mask id="path-1-outside-1_951_234765" maskUnits="userSpaceOnUse" x="3" y="5" width="26" height="38" fill="black">
<rect fill="white" x="3" y="5" width="26" height="38"/>
<path fill-rule="evenodd" clip-rule="evenodd" d="M24 6H26H28V42H26H24V40H22V38H20V36H18V34H16V32H14H4V16H14H16V14H18V12H20V10H22V8H24V6Z"/>
</mask>
<path fill-rule="evenodd" clip-rule="evenodd" d="M24 6H26H28V42H26H24V40H22V38H20V36H18V34H16V32H14H4V16H14H16V14H18V12H20V10H22V8H24V6Z" fill="white"/>
<path d="M24 6V5H23V6H24ZM28 6H29V5H28V6ZM28 42V43H29V42H28ZM24 42H23V43H24V42ZM24 40H25V39H24V40ZM22 40H21V41H22V40ZM22 38H23V37H22V38ZM20 38H19V39H20V38ZM20 36H21V35H20V36ZM18 36H17V37H18V36ZM18 34H19V33H18V34ZM16 34H15V35H16V34ZM16 32H17V31H16V32ZM4 32H3V33H4V32ZM4 16V15H3V16H4ZM16 16V17H17V16H16ZM16 14V13H15V14H16ZM18 14V15H19V14H18ZM18 12V11H17V12H18ZM20 12V13H21V12H20ZM20 10V9H19V10H20ZM22 10V11H23V10H22ZM22 8V7H21V8H22ZM24 8V9H25V8H24ZM26 5H24V7H26V5ZM26 7H28V5H26V7ZM27 6V42H29V6H27ZM28 41H26V43H28V41ZM24 43H26V41H24V43ZM23 40V42H25V40H23ZM22 41H24V39H22V41ZM21 38V40H23V38H21ZM20 39H22V37H20V39ZM19 36V38H21V36H19ZM18 37H20V35H18V37ZM17 34V36H19V34H17ZM16 35H18V33H16V35ZM15 32V34H17V32H15ZM14 33H16V31H14V33ZM4 33H14V31H4V33ZM3 16V32H5V16H3ZM14 15H4V17H14V15ZM16 15H14V17H16V15ZM15 14V16H17V14H15ZM18 13H16V15H18V13ZM17 12V14H19V12H17ZM20 11H18V13H20V11ZM19 10V12H21V10H19ZM22 9H20V11H22V9ZM21 8V10H23V8H21ZM24 7H22V9H24V7ZM23 6V8H25V6H23Z" fill="#797979" mask="url(#path-1-outside-1_951_234765)"/>
<mask id="path-3-outside-2_951_234765" maskUnits="userSpaceOnUse" x="35" y="11" width="10" height="26" fill="black">
<rect fill="white" x="35" y="11" width="10" height="26"/>
<path fill-rule="evenodd" clip-rule="evenodd" d="M38 12H36V14H38V16H40V18V20H42V22V24V26V28H40V30V32H38V34H36V36H38V34H40V32H42V30V28H44V26V24V22V20H42V18V16H40V14H38V12Z"/>
</mask>
<path fill-rule="evenodd" clip-rule="evenodd" d="M38 12H36V14H38V16H40V18V20H42V22V24V26V28H40V30V32H38V34H36V36H38V34H40V32H42V30V28H44V26V24V22V20H42V18V16H40V14H38V12Z" fill="white"/>
<path d="M36 12V11H35V12H36ZM38 12H39V11H38V12ZM36 14H35V15H36V14ZM38 16H37V17H38V16ZM40 20H39V21H40V20ZM40 28V27H39V28H40ZM38 32V31H37V32H38ZM36 34V33H35V34H36ZM36 36H35V37H36V36ZM38 36V37H39V36H38ZM40 34V35H41V34H40ZM42 32V33H43V32H42ZM44 28V29H45V28H44ZM44 20H45V19H44V20ZM42 16H43V15H42V16ZM40 14H41V13H40V14ZM36 13H38V11H36V13ZM37 14V12H35V14H37ZM38 13H36V15H38V13ZM39 16V14H37V16H39ZM40 15H38V17H40V15ZM41 18V16H39V18H41ZM41 20V18H39V20H41ZM42 19H40V21H42V19ZM43 22V20H41V22H43ZM43 24V22H41V24H43ZM43 26V24H41V26H43ZM43 28V26H41V28H43ZM42 27H40V29H42V27ZM39 28V30H41V28H39ZM39 30V32H41V30H39ZM38 33H40V31H38V33ZM39 34V32H37V34H39ZM36 35H38V33H36V35ZM37 36V34H35V36H37ZM38 35H36V37H38V35ZM37 34V36H39V34H37ZM40 33H38V35H40V33ZM39 32V34H41V32H39ZM40 33H42V31H40V33ZM43 32V30H41V32H43ZM43 30V28H41V30H43ZM44 27H42V29H44V27ZM43 26V28H45V26H43ZM43 24V26H45V24H43ZM43 22V24H45V22H43ZM43 20V22H45V20H43ZM42 21H44V19H42V21ZM41 18V20H43V18H41ZM41 16V18H43V16H41ZM40 17H42V15H40V17ZM39 14V16H41V14H39ZM38 15H40V13H38V15ZM37 12V14H39V12H37Z" fill="#797979" mask="url(#path-3-outside-2_951_234765)"/>
<mask id="path-5-outside-3_951_234765" maskUnits="userSpaceOnUse" x="30" y="15" width="8" height="18" fill="black">
<rect fill="white" x="30" y="15" width="8" height="18"/>
<path fill-rule="evenodd" clip-rule="evenodd" d="M31 16H33V18H31V16ZM35 20H33V18H35V20ZM37 26V24V22V20H35V22V24V26V28H33V30H31V32H33V30H35V28H37V26Z"/>
</mask>
<path fill-rule="evenodd" clip-rule="evenodd" d="M31 16H33V18H31V16ZM35 20H33V18H35V20ZM37 26V24V22V20H35V22V24V26V28H33V30H31V32H33V30H35V28H37V26Z" fill="white"/>
<path d="M33 16H34V15H33V16ZM31 16V15H30V16H31ZM31 18H30V19H31V18ZM33 20H32V21H33V20ZM35 18H36V17H35V18ZM37 20H38V19H37V20ZM33 28V27H32V28H33ZM31 30V29H30V30H31ZM31 32H30V33H31V32ZM33 32V33H34V32H33ZM35 30V31H36V30H35ZM37 28V29H38V28H37ZM33 15H31V17H33V15ZM34 18V16H32V18H34ZM31 19H33V17H31V19ZM30 16V18H32V16H30ZM33 21H35V19H33V21ZM32 18V20H34V18H32ZM35 17H33V19H35V17ZM36 20V18H34V20H36ZM38 26V24H36V26H38ZM38 24V22H36V24H38ZM38 22V20H36V22H38ZM37 19H35V21H37V19ZM34 20V22H36V20H34ZM34 22V24H36V22H34ZM34 24V26H36V24H34ZM36 28V26H34V28H36ZM33 29H35V27H33V29ZM34 30V28H32V30H34ZM31 31H33V29H31V31ZM32 32V30H30V32H32ZM33 31H31V33H33V31ZM32 30V32H34V30H32ZM35 29H33V31H35V29ZM34 28V30H36V28H34ZM37 27H35V29H37V27ZM36 26V28H38V26H36Z" fill="#797979" mask="url(#path-5-outside-3_951_234765)"/>
</svg>
