<svg width="56" height="56" viewBox="0 0 56 56" fill="none" xmlns="http://www.w3.org/2000/svg">
<g clip-path="url(#clip0_380_32505)">
<rect width="56" height="56" fill="#2C2C2C"/>
<path fill-rule="evenodd" clip-rule="evenodd" d="M4 0H2.38419e-06L0 52H4L4 4H52V0H4Z" fill="#F0F0F0"/>
<path fill-rule="evenodd" clip-rule="evenodd" d="M56 52L56 0H52L52 52H0V56H56L56 52Z" fill="black"/>
<mask id="path-3-inside-1_380_32505" fill="white">
<path fill-rule="evenodd" clip-rule="evenodd" d="M29 11H27H25V13H23V15H21V17V19V21V23V25V27V29H23V31H25V33H27H29H31V31H33V29H35V27V25V23V21V19V17V15H33V13H31V11H29ZM25 35H27H29H31H33V33H35H37V31H39V29V27V25H41H43V27V29V31V33H41V35H39V37H37V39H35H33H31V41V43V45H29H27H25V43V41V39H23H21H19V37H17V35H15V33H13V31V29V27V25H15H17V27V29V31H19V33H21H23V35H25Z"/>
</mask>
<path fill-rule="evenodd" clip-rule="evenodd" d="M29 11H27H25V13H23V15H21V17V19V21V23V25V27V29H23V31H25V33H27H29H31V31H33V29H35V27V25V23V21V19V17V15H33V13H31V11H29ZM25 35H27H29H31H33V33H35H37V31H39V29V27V25H41H43V27V29V31V33H41V35H39V37H37V39H35H33H31V41V43V45H29H27H25V43V41V39H23H21H19V37H17V35H15V33H13V31V29V27V25H15H17V27V29V31H19V33H21H23V35H25Z" fill="#797979"/>
<path d="M25 11V10H24V11H25ZM25 13V14H26V13H25ZM23 13V12H22V13H23ZM23 15V16H24V15H23ZM21 15V14H20V15H21ZM21 29H20V30H21V29ZM23 29H24V28H23V29ZM23 31H22V32H23V31ZM25 31H26V30H25V31ZM25 33H24V34H25V33ZM31 33V34H32V33H31ZM31 31V30H30V31H31ZM33 31V32H34V31H33ZM33 29V28H32V29H33ZM35 29V30H36V29H35ZM35 15H36V14H35V15ZM33 15H32V16H33V15ZM33 13H34V12H33V13ZM31 13H30V14H31V13ZM31 11H32V10H31V11ZM33 35V36H34V35H33ZM33 33V32H32V33H33ZM37 33V34H38V33H37ZM37 31V30H36V31H37ZM39 31V32H40V31H39ZM39 25V24H38V25H39ZM43 25H44V24H43V25ZM43 33V34H44V33H43ZM41 33V32H40V33H41ZM41 35V36H42V35H41ZM39 35V34H38V35H39ZM39 37V38H40V37H39ZM37 37V36H36V37H37ZM37 39V40H38V39H37ZM31 39V38H30V39H31ZM31 45V46H32V45H31ZM25 45H24V46H25V45ZM25 39H26V38H25V39ZM19 39H18V40H19V39ZM19 37H20V36H19V37ZM17 37H16V38H17V37ZM17 35H18V34H17V35ZM15 35H14V36H15V35ZM15 33H16V32H15V33ZM13 33H12V34H13V33ZM13 25V24H12V25H13ZM17 25H18V24H17V25ZM17 31H16V32H17V31ZM19 31H20V30H19V31ZM19 33H18V34H19V33ZM23 33H24V32H23V33ZM23 35H22V36H23V35ZM27 12H29V10H27V12ZM25 12H27V10H25V12ZM26 13V11H24V13H26ZM23 14H25V12H23V14ZM24 15V13H22V15H24ZM21 16H23V14H21V16ZM22 17V15H20V17H22ZM22 19V17H20V19H22ZM22 21V19H20V21H22ZM22 23V21H20V23H22ZM22 25V23H20V25H22ZM22 27V25H20V27H22ZM22 29V27H20V29H22ZM23 28H21V30H23V28ZM24 31V29H22V31H24ZM25 30H23V32H25V30ZM26 33V31H24V33H26ZM27 32H25V34H27V32ZM29 32H27V34H29V32ZM31 32H29V34H31V32ZM30 31V33H32V31H30ZM33 30H31V32H33V30ZM32 29V31H34V29H32ZM35 28H33V30H35V28ZM34 27V29H36V27H34ZM34 25V27H36V25H34ZM34 23V25H36V23H34ZM34 21V23H36V21H34ZM34 19V21H36V19H34ZM34 17V19H36V17H34ZM34 15V17H36V15H34ZM33 16H35V14H33V16ZM32 13V15H34V13H32ZM31 14H33V12H31V14ZM30 11V13H32V11H30ZM29 12H31V10H29V12ZM27 34H25V36H27V34ZM29 34H27V36H29V34ZM31 34H29V36H31V34ZM33 34H31V36H33V34ZM32 33V35H34V33H32ZM35 32H33V34H35V32ZM37 32H35V34H37V32ZM36 31V33H38V31H36ZM39 30H37V32H39V30ZM38 29V31H40V29H38ZM38 27V29H40V27H38ZM38 25V27H40V25H38ZM41 24H39V26H41V24ZM43 24H41V26H43V24ZM44 27V25H42V27H44ZM44 29V27H42V29H44ZM44 31V29H42V31H44ZM44 33V31H42V33H44ZM41 34H43V32H41V34ZM42 35V33H40V35H42ZM39 36H41V34H39V36ZM40 37V35H38V37H40ZM37 38H39V36H37V38ZM38 39V37H36V39H38ZM35 40H37V38H35V40ZM33 40H35V38H33V40ZM31 40H33V38H31V40ZM32 41V39H30V41H32ZM32 43V41H30V43H32ZM32 45V43H30V45H32ZM29 46H31V44H29V46ZM27 46H29V44H27V46ZM25 46H27V44H25V46ZM24 43V45H26V43H24ZM24 41V43H26V41H24ZM24 39V41H26V39H24ZM23 40H25V38H23V40ZM21 40H23V38H21V40ZM19 40H21V38H19V40ZM18 37V39H20V37H18ZM17 38H19V36H17V38ZM16 35V37H18V35H16ZM15 36H17V34H15V36ZM14 33V35H16V33H14ZM13 34H15V32H13V34ZM12 31V33H14V31H12ZM12 29V31H14V29H12ZM12 27V29H14V27H12ZM12 25V27H14V25H12ZM15 24H13V26H15V24ZM17 24H15V26H17V24ZM18 27V25H16V27H18ZM18 29V27H16V29H18ZM18 31V29H16V31H18ZM19 30H17V32H19V30ZM20 33V31H18V33H20ZM21 32H19V34H21V32ZM23 32H21V34H23V32ZM24 35V33H22V35H24ZM25 34H23V36H25V34Z" fill="#797979" mask="url(#path-3-inside-1_380_32505)"/>
<path fill-rule="evenodd" clip-rule="evenodd" d="M43 13H47V15H45V17H43V19H41V21H39V23H37V25H35V27H33V29H31V31H29V33H27V35H25V37H23V39H21V41H19V43H17V45H15H13V43H15V41H17V39H19V37H21V35H23V33H25V31H27V29H29V27H31V25H33V23H35V21H37V19H39V17H41V15H43V13Z" fill="#FF0000"/>
</g>
<defs>
<clipPath id="clip0_380_32505">
<rect width="56" height="56" fill="white"/>
</clipPath>
</defs>
</svg>
