<svg width="26" height="28" viewBox="0 0 26 28" fill="none" xmlns="http://www.w3.org/2000/svg">
<mask id="path-1-outside-1_488_33437" maskUnits="userSpaceOnUse" x="0" y="0" width="26" height="28" fill="black">
<rect fill="white" width="26" height="28"/>
<path fill-rule="evenodd" clip-rule="evenodd" d="M9 1H11H13H15H17V3H15H13H11H9V1ZM9 3V5V7V9H17V7V5V3H19V5V7V9H23H25V11V25V27H1V25V11V9H3H7V7V5V3H9ZM3 11V25H23V11H3ZM12 21V15H14V21H12Z"/>
</mask>
<path fill-rule="evenodd" clip-rule="evenodd" d="M9 1H11H13H15H17V3H15H13H11H9V1ZM9 3V5V7V9H17V7V5V3H19V5V7V9H23H25V11V25V27H1V25V11V9H3H7V7V5V3H9ZM3 11V25H23V11H3ZM12 21V15H14V21H12Z" fill="white"/>
<path d="M9 1V0H8V1H9ZM17 1H18V0H17V1ZM9 9H8V10H9V9ZM17 9V10H18V9H17ZM19 3H20V2H19V3ZM19 9H18V10H19V9ZM25 9H26V8H25V9ZM25 27V28H26V27H25ZM1 27H0V28H1V27ZM1 9V8H0V9H1ZM7 9V10H8V9H7ZM7 3V2H6V3H7ZM3 25H2V26H3V25ZM3 11V10H2V11H3ZM23 25V26H24V25H23ZM23 11H24V10H23V11ZM12 15V14H11V15H12ZM12 21H11V22H12V21ZM14 15H15V14H14V15ZM14 21V22H15V21H14ZM11 0H9V2H11V0ZM13 0H11V2H13V0ZM15 0H13V2H15V0ZM15 2H17V0H15V2ZM16 1V3H18V1H16ZM17 2H15V4H17V2ZM13 4H15V2H13V4ZM11 4H13V2H11V4ZM9 4H11V2H9V4ZM8 1V3H10V1H8ZM10 5V3H8V5H10ZM10 7V5H8V7H10ZM10 9V7H8V9H10ZM17 8H9V10H17V8ZM16 7V9H18V7H16ZM16 5V7H18V5H16ZM16 3V5H18V3H16ZM19 2H17V4H19V2ZM20 5V3H18V5H20ZM20 7V5H18V7H20ZM20 9V7H18V9H20ZM23 8H19V10H23V8ZM25 8H23V10H25V8ZM26 11V9H24V11H26ZM26 25V11H24V25H26ZM26 27V25H24V27H26ZM1 28H25V26H1V28ZM0 25V27H2V25H0ZM0 11V25H2V11H0ZM0 9V11H2V9H0ZM3 8H1V10H3V8ZM7 8H3V10H7V8ZM6 7V9H8V7H6ZM6 5V7H8V5H6ZM6 3V5H8V3H6ZM9 2H7V4H9V2ZM4 25V11H2V25H4ZM23 24H3V26H23V24ZM22 11V25H24V11H22ZM3 12H23V10H3V12ZM11 15V21H13V15H11ZM14 14H12V16H14V14ZM15 21V15H13V21H15ZM12 22H14V20H12V22Z" fill="#797979" mask="url(#path-1-outside-1_488_33437)"/>
</svg>
