<svg width="48" height="48" viewBox="0 0 48 48" fill="none" xmlns="http://www.w3.org/2000/svg">
<rect width="48" height="48" fill="#444444"/>
<rect x="12" y="30" width="2" height="2" fill="black"/>
<rect x="12" y="32" width="2" height="2" fill="black"/>
<rect x="12" y="34" width="2" height="2" fill="black"/>
<rect x="12" y="22" width="2" height="2" fill="black"/>
<rect x="12" y="26" width="2" height="2" fill="black"/>
<rect x="12" y="18" width="2" height="2" fill="black"/>
<rect x="12" y="28" width="2" height="2" fill="black"/>
<rect x="12" y="20" width="2" height="2" fill="black"/>
<rect x="12" y="24" width="2" height="2" fill="black"/>
<rect x="12" y="16" width="2" height="2" fill="black"/>
<rect x="12" y="14" width="2" height="2" fill="black"/>
<rect x="12" y="12" width="2" height="2" fill="black"/>
<rect x="22" y="30" width="2" height="2" fill="black"/>
<rect x="22" y="32" width="2" height="2" fill="black"/>
<rect x="22" y="34" width="2" height="2" fill="black"/>
<rect x="22" y="22" width="2" height="2" fill="black"/>
<rect x="22" y="26" width="2" height="2" fill="black"/>
<rect x="22" y="18" width="2" height="2" fill="black"/>
<rect x="22" y="28" width="2" height="2" fill="black"/>
<rect x="22" y="20" width="2" height="2" fill="black"/>
<rect x="22" y="24" width="2" height="2" fill="black"/>
<rect x="22" y="16" width="2" height="2" fill="black"/>
<rect x="22" y="14" width="2" height="2" fill="black"/>
<rect x="22" y="12" width="2" height="2" fill="black"/>
<rect x="10" y="30" width="2" height="2" fill="black"/>
<rect x="10" y="32" width="2" height="2" fill="black"/>
<rect x="10" y="34" width="2" height="2" fill="black"/>
<rect x="6" y="30" width="2" height="2" fill="black"/>
<rect x="6" y="32" width="2" height="2" fill="black"/>
<rect x="6" y="34" width="2" height="2" fill="black"/>
<rect x="10" y="22" width="2" height="2" fill="black"/>
<rect x="6" y="22" width="2" height="2" fill="black"/>
<rect x="10" y="26" width="2" height="2" fill="black"/>
<rect x="6" y="26" width="2" height="2" fill="black"/>
<rect x="10" y="18" width="2" height="2" fill="black"/>
<rect x="6" y="18" width="2" height="2" fill="black"/>
<rect x="10" y="28" width="2" height="2" fill="black"/>
<rect x="6" y="28" width="2" height="2" fill="black"/>
<rect x="10" y="20" width="2" height="2" fill="black"/>
<rect x="6" y="20" width="2" height="2" fill="black"/>
<rect x="10" y="24" width="2" height="2" fill="black"/>
<rect x="6" y="24" width="2" height="2" fill="black"/>
<rect x="10" y="16" width="2" height="2" fill="black"/>
<rect x="6" y="16" width="2" height="2" fill="black"/>
<rect x="10" y="14" width="2" height="2" fill="black"/>
<rect x="10" y="12" width="2" height="2" fill="black"/>
<rect x="6" y="14" width="2" height="2" fill="black"/>
<rect x="6" y="12" width="2" height="2" fill="black"/>
<rect x="20" y="30" width="2" height="2" fill="black"/>
<rect x="20" y="32" width="2" height="2" fill="black"/>
<rect x="20" y="34" width="2" height="2" fill="black"/>
<rect x="20" y="22" width="2" height="2" fill="black"/>
<rect x="20" y="26" width="2" height="2" fill="black"/>
<rect x="20" y="18" width="2" height="2" fill="black"/>
<rect x="20" y="28" width="2" height="2" fill="black"/>
<rect x="20" y="20" width="2" height="2" fill="black"/>
<rect x="20" y="24" width="2" height="2" fill="black"/>
<rect x="20" y="16" width="2" height="2" fill="black"/>
<rect x="20" y="14" width="2" height="2" fill="black"/>
<rect x="20" y="12" width="2" height="2" fill="black"/>
<rect x="8" y="30" width="2" height="2" fill="black"/>
<rect x="8" y="32" width="2" height="2" fill="black"/>
<rect x="8" y="34" width="2" height="2" fill="black"/>
<rect x="4" y="30" width="2" height="2" fill="black"/>
<rect x="4" y="32" width="2" height="2" fill="black"/>
<rect x="8" y="22" width="2" height="2" fill="black"/>
<rect x="4" y="22" width="2" height="2" fill="black"/>
<rect x="8" y="26" width="2" height="2" fill="black"/>
<rect x="4" y="26" width="2" height="2" fill="black"/>
<rect x="8" y="18" width="2" height="2" fill="black"/>
<rect x="4" y="18" width="2" height="2" fill="black"/>
<rect x="8" y="28" width="2" height="2" fill="black"/>
<rect x="4" y="28" width="2" height="2" fill="black"/>
<rect x="8" y="20" width="2" height="2" fill="black"/>
<rect x="4" y="20" width="2" height="2" fill="black"/>
<rect x="8" y="24" width="2" height="2" fill="black"/>
<rect x="4" y="24" width="2" height="2" fill="black"/>
<rect x="8" y="16" width="2" height="2" fill="black"/>
<rect x="4" y="16" width="2" height="2" fill="black"/>
<rect x="8" y="14" width="2" height="2" fill="black"/>
<rect x="8" y="12" width="2" height="2" fill="black"/>
<rect x="4" y="14" width="2" height="2" fill="black"/>
<rect x="18" y="30" width="2" height="2" fill="black"/>
<rect x="18" y="32" width="2" height="2" fill="black"/>
<rect x="18" y="34" width="2" height="2" fill="black"/>
<rect x="18" y="22" width="2" height="2" fill="black"/>
<rect x="18" y="26" width="2" height="2" fill="black"/>
<rect x="18" y="18" width="2" height="2" fill="black"/>
<rect x="18" y="28" width="2" height="2" fill="black"/>
<rect x="18" y="20" width="2" height="2" fill="black"/>
<rect x="18" y="24" width="2" height="2" fill="black"/>
<rect x="18" y="16" width="2" height="2" fill="black"/>
<rect x="18" y="14" width="2" height="2" fill="black"/>
<rect x="18" y="12" width="2" height="2" fill="black"/>
<rect x="14" y="30" width="2" height="2" fill="black"/>
<rect x="14" y="32" width="2" height="2" fill="black"/>
<rect x="14" y="34" width="2" height="2" fill="black"/>
<rect x="14" y="22" width="2" height="2" fill="black"/>
<rect x="14" y="26" width="2" height="2" fill="black"/>
<rect x="14" y="18" width="2" height="2" fill="black"/>
<rect x="14" y="28" width="2" height="2" fill="black"/>
<rect x="14" y="20" width="2" height="2" fill="black"/>
<rect x="14" y="24" width="2" height="2" fill="black"/>
<rect x="14" y="16" width="2" height="2" fill="black"/>
<rect x="14" y="14" width="2" height="2" fill="black"/>
<rect x="14" y="12" width="2" height="2" fill="black"/>
<rect x="24" y="30" width="2" height="2" fill="black"/>
<rect x="24" y="32" width="2" height="2" fill="black"/>
<rect x="24" y="34" width="2" height="2" fill="black"/>
<rect x="38" y="30" width="2" height="2" fill="black"/>
<rect x="38" y="32" width="2" height="2" fill="black"/>
<rect x="24" y="22" width="2" height="2" fill="black"/>
<rect x="38" y="22" width="2" height="2" fill="black"/>
<rect x="36" y="22" width="2" height="2" fill="black"/>
<rect x="34" y="22" width="2" height="2" fill="black"/>
<rect x="32" y="22" width="2" height="2" fill="black"/>
<rect x="30" y="22" width="2" height="2" fill="black"/>
<rect x="24" y="26" width="2" height="2" fill="black"/>
<rect x="38" y="26" width="2" height="2" fill="black"/>
<rect x="36" y="26" width="2" height="2" fill="black"/>
<rect x="34" y="26" width="2" height="2" fill="black"/>
<rect x="32" y="26" width="2" height="2" fill="black"/>
<rect x="32" y="28" width="2" height="2" fill="black"/>
<rect x="30" y="26" width="2" height="2" fill="black"/>
<rect x="30" y="28" width="2" height="2" fill="black"/>
<rect x="24" y="18" width="2" height="2" fill="black"/>
<rect x="38" y="18" width="2" height="2" fill="black"/>
<rect x="36" y="18" width="2" height="2" fill="black"/>
<rect x="36" y="16" width="2" height="2" fill="black"/>
<rect x="34" y="18" width="2" height="2" fill="black"/>
<rect x="34" y="16" width="2" height="2" fill="black"/>
<rect x="24" y="28" width="2" height="2" fill="black"/>
<rect x="38" y="28" width="2" height="2" fill="black"/>
<rect x="36" y="28" width="2" height="2" fill="black"/>
<rect x="36" y="30" width="2" height="2" fill="black"/>
<rect x="34" y="28" width="2" height="2" fill="black"/>
<rect x="34" y="30" width="2" height="2" fill="black"/>
<rect x="24" y="20" width="2" height="2" fill="black"/>
<rect x="38" y="20" width="2" height="2" fill="black"/>
<rect x="36" y="20" width="2" height="2" fill="black"/>
<rect x="34" y="20" width="2" height="2" fill="black"/>
<rect x="32" y="20" width="2" height="2" fill="black"/>
<rect x="32" y="18" width="2" height="2" fill="black"/>
<rect x="30" y="20" width="2" height="2" fill="black"/>
<rect x="30" y="18" width="2" height="2" fill="black"/>
<rect x="24" y="24" width="2" height="2" fill="black"/>
<rect x="38" y="24" width="2" height="2" fill="black"/>
<rect x="36" y="24" width="2" height="2" fill="black"/>
<rect x="34" y="24" width="2" height="2" fill="black"/>
<rect x="32" y="24" width="2" height="2" fill="black"/>
<rect x="30" y="24" width="2" height="2" fill="black"/>
<rect x="24" y="16" width="2" height="2" fill="black"/>
<rect x="24" y="14" width="2" height="2" fill="black"/>
<rect x="24" y="12" width="2" height="2" fill="black"/>
<rect x="38" y="16" width="2" height="2" fill="black"/>
<rect x="38" y="14" width="2" height="2" fill="black"/>
<rect x="16" y="30" width="2" height="2" fill="black"/>
<rect x="16" y="32" width="2" height="2" fill="black"/>
<rect x="16" y="34" width="2" height="2" fill="black"/>
<rect x="16" y="22" width="2" height="2" fill="black"/>
<rect x="16" y="26" width="2" height="2" fill="black"/>
<rect x="16" y="18" width="2" height="2" fill="black"/>
<rect x="16" y="28" width="2" height="2" fill="black"/>
<rect x="16" y="20" width="2" height="2" fill="black"/>
<rect x="16" y="24" width="2" height="2" fill="black"/>
<rect x="16" y="16" width="2" height="2" fill="black"/>
<rect x="16" y="14" width="2" height="2" fill="black"/>
<rect x="16" y="12" width="2" height="2" fill="black"/>
<rect x="26" y="30" width="2" height="2" fill="black"/>
<rect x="26" y="32" width="2" height="2" fill="black"/>
<rect x="40" y="30" width="2" height="2" fill="black"/>
<rect x="42" y="30" width="2" height="2" fill="black"/>
<rect x="40" y="32" width="2" height="2" fill="black"/>
<rect x="42" y="32" width="2" height="2" fill="black"/>
<rect x="26" y="22" width="2" height="2" fill="black"/>
<rect x="40" y="22" width="2" height="2" fill="black"/>
<rect x="42" y="22" width="2" height="2" fill="black"/>
<rect x="26" y="26" width="2" height="2" fill="black"/>
<rect x="40" y="26" width="2" height="2" fill="black"/>
<rect x="42" y="26" width="2" height="2" fill="black"/>
<rect x="26" y="18" width="2" height="2" fill="black"/>
<rect x="40" y="18" width="2" height="2" fill="black"/>
<rect x="42" y="18" width="2" height="2" fill="black"/>
<rect x="26" y="28" width="2" height="2" fill="black"/>
<rect x="40" y="28" width="2" height="2" fill="black"/>
<rect x="42" y="28" width="2" height="2" fill="black"/>
<rect x="26" y="20" width="2" height="2" fill="black"/>
<rect x="40" y="20" width="2" height="2" fill="black"/>
<rect x="42" y="20" width="2" height="2" fill="black"/>
<rect x="26" y="24" width="2" height="2" fill="black"/>
<rect x="40" y="24" width="2" height="2" fill="black"/>
<rect x="42" y="24" width="2" height="2" fill="black"/>
<rect x="26" y="16" width="2" height="2" fill="black"/>
<rect x="26" y="14" width="2" height="2" fill="black"/>
<rect x="40" y="16" width="2" height="2" fill="black"/>
<rect x="42" y="16" width="2" height="2" fill="black"/>
<rect x="40" y="14" width="2" height="2" fill="black"/>
<rect x="42" y="14" width="2" height="2" fill="black"/>
</svg>
