<svg width="48" height="48" viewBox="0 0 48 48" fill="none" xmlns="http://www.w3.org/2000/svg">
<rect x="24" y="8" width="2" height="2" fill="#F4F4F4"/>
<rect x="24" y="6" width="2" height="2" fill="#F4F4F4"/>
<rect x="24" y="24" width="2" height="2" fill="#F4F4F4"/>
<rect x="24" y="26" width="2" height="2" fill="#F4F4F4"/>
<rect x="22" y="10" width="2" height="2" fill="#F4F4F4"/>
<rect x="22" y="12" width="2" height="2" fill="#F4F4F4"/>
<rect x="22" y="14" width="2" height="2" fill="#F4F4F4"/>
<rect x="22" y="16" width="2" height="2" fill="#F4F4F4"/>
<rect x="22" y="18" width="2" height="2" fill="#F4F4F4"/>
<rect x="22" y="20" width="2" height="2" fill="#F4F4F4"/>
<rect x="22" y="22" width="2" height="2" fill="#F4F4F4"/>
<rect x="26" y="10" width="2" height="2" fill="#F4F4F4"/>
<rect x="26" y="12" width="2" height="2" fill="#F4F4F4"/>
<rect x="26" y="14" width="2" height="2" fill="#F4F4F4"/>
<rect x="26" y="16" width="2" height="2" fill="#F4F4F4"/>
<rect x="26" y="18" width="2" height="2" fill="#F4F4F4"/>
<rect x="26" y="20" width="2" height="2" fill="#F4F4F4"/>
<rect x="26" y="22" width="2" height="2" fill="#F4F4F4"/>
<rect x="22" y="8" width="2" height="2" fill="#F4F4F4"/>
<rect x="22" y="6" width="2" height="2" fill="#F4F4F4"/>
<rect x="22" y="24" width="2" height="2" fill="#F4F4F4"/>
<rect x="22" y="26" width="2" height="2" fill="#F4F4F4"/>
<rect x="22" y="30" width="2" height="2" fill="#F4F4F4"/>
<rect x="22" y="32" width="2" height="2" fill="#F4F4F4"/>
<rect x="22" y="34" width="2" height="2" fill="#F4F4F4"/>
<rect x="22" y="36" width="2" height="2" fill="#F4F4F4"/>
<rect x="22" y="38" width="2" height="2" fill="#F4F4F4"/>
<rect x="20" y="30" width="2" height="2" fill="#F4F4F4"/>
<rect x="20" y="32" width="2" height="2" fill="#F4F4F4"/>
<rect x="18" y="32" width="2" height="2" fill="#F4F4F4"/>
<rect x="18" y="28" width="2" height="2" fill="#F4F4F4"/>
<rect x="18" y="30" width="2" height="2" fill="#F4F4F4"/>
<rect x="16" y="28" width="2" height="2" fill="#F4F4F4"/>
<rect x="16" y="30" width="2" height="2" fill="#F4F4F4"/>
<rect x="16" y="32" width="2" height="2" fill="#F4F4F4"/>
<rect x="14" y="26" width="2" height="2" fill="#F4F4F4"/>
<rect x="14" y="28" width="2" height="2" fill="#F4F4F4"/>
<rect x="14" y="30" width="2" height="2" fill="#F4F4F4"/>
<rect x="12" y="24" width="2" height="2" fill="#F4F4F4"/>
<rect x="12" y="26" width="2" height="2" fill="#F4F4F4"/>
<rect x="12" y="28" width="2" height="2" fill="#F4F4F4"/>
<rect x="10" y="22" width="2" height="2" fill="#F4F4F4"/>
<rect x="10" y="20" width="2" height="2" fill="#F4F4F4"/>
<rect x="12" y="20" width="2" height="2" fill="#F4F4F4"/>
<rect x="10" y="24" width="2" height="2" fill="#F4F4F4"/>
<rect x="12" y="22" width="2" height="2" fill="#F4F4F4"/>
<rect x="10" y="26" width="2" height="2" fill="#F4F4F4"/>
<rect x="24" y="30" width="2" height="2" fill="#F4F4F4"/>
<rect x="24" y="32" width="2" height="2" fill="#F4F4F4"/>
<rect x="24" y="34" width="2" height="2" fill="#F4F4F4"/>
<rect x="24" y="36" width="2" height="2" fill="#F4F4F4"/>
<rect x="24" y="38" width="2" height="2" fill="#F4F4F4"/>
<rect x="20" y="10" width="2" height="2" fill="#F4F4F4"/>
<rect x="20" y="8" width="2" height="2" fill="#F4F4F4"/>
<rect x="18" y="10" width="2" height="2" fill="#F4F4F4"/>
<rect x="20" y="12" width="2" height="2" fill="#F4F4F4"/>
<rect x="18" y="12" width="2" height="2" fill="#F4F4F4"/>
<rect x="20" y="14" width="2" height="2" fill="#F4F4F4"/>
<rect x="18" y="14" width="2" height="2" fill="#F4F4F4"/>
<rect x="20" y="16" width="2" height="2" fill="#F4F4F4"/>
<rect x="18" y="16" width="2" height="2" fill="#F4F4F4"/>
<rect x="20" y="18" width="2" height="2" fill="#F4F4F4"/>
<rect x="20" y="20" width="2" height="2" fill="#F4F4F4"/>
<rect x="18" y="18" width="2" height="2" fill="#F4F4F4"/>
<rect x="18" y="20" width="2" height="2" fill="#F4F4F4"/>
<rect x="20" y="22" width="2" height="2" fill="#F4F4F4"/>
<rect x="20" y="24" width="2" height="2" fill="#F4F4F4"/>
<rect x="18" y="22" width="2" height="2" fill="#F4F4F4"/>
<rect x="26" y="8" width="2" height="2" fill="#F4F4F4"/>
<rect x="26" y="6" width="2" height="2" fill="#F4F4F4"/>
<rect x="26" y="24" width="2" height="2" fill="#F4F4F4"/>
<rect x="26" y="26" width="2" height="2" fill="#F4F4F4"/>
<rect x="26" y="30" width="2" height="2" fill="#F4F4F4"/>
<rect x="26" y="32" width="2" height="2" fill="#F4F4F4"/>
<rect x="28" y="32" width="2" height="2" fill="#F4F4F4"/>
<rect x="30" y="32" width="2" height="2" fill="#F4F4F4"/>
<rect x="26" y="34" width="2" height="2" fill="#F4F4F4"/>
<rect x="26" y="36" width="2" height="2" fill="#F4F4F4"/>
<rect x="26" y="38" width="2" height="2" fill="#F4F4F4"/>
<rect x="28" y="30" width="2" height="2" fill="#F4F4F4"/>
<rect x="30" y="28" width="2" height="2" fill="#F4F4F4"/>
<rect x="30" y="30" width="2" height="2" fill="#F4F4F4"/>
<rect x="32" y="28" width="2" height="2" fill="#F4F4F4"/>
<rect x="32" y="30" width="2" height="2" fill="#F4F4F4"/>
<rect x="32" y="32" width="2" height="2" fill="#F4F4F4"/>
<rect x="34" y="26" width="2" height="2" fill="#F4F4F4"/>
<rect x="34" y="28" width="2" height="2" fill="#F4F4F4"/>
<rect x="34" y="30" width="2" height="2" fill="#F4F4F4"/>
<rect x="36" y="24" width="2" height="2" fill="#F4F4F4"/>
<rect x="36" y="26" width="2" height="2" fill="#F4F4F4"/>
<rect x="36" y="28" width="2" height="2" fill="#F4F4F4"/>
<rect x="38" y="22" width="2" height="2" fill="#F4F4F4"/>
<rect x="38" y="20" width="2" height="2" fill="#F4F4F4"/>
<rect x="36" y="20" width="2" height="2" fill="#F4F4F4"/>
<rect x="38" y="24" width="2" height="2" fill="#F4F4F4"/>
<rect x="36" y="22" width="2" height="2" fill="#F4F4F4"/>
<rect x="38" y="26" width="2" height="2" fill="#F4F4F4"/>
<rect x="24" y="10" width="2" height="2" fill="#F4F4F4"/>
<rect x="24" y="12" width="2" height="2" fill="#F4F4F4"/>
<rect x="24" y="14" width="2" height="2" fill="#F4F4F4"/>
<rect x="24" y="16" width="2" height="2" fill="#F4F4F4"/>
<rect x="24" y="18" width="2" height="2" fill="#F4F4F4"/>
<rect x="24" y="20" width="2" height="2" fill="#F4F4F4"/>
<rect x="24" y="22" width="2" height="2" fill="#F4F4F4"/>
<rect x="28" y="10" width="2" height="2" fill="#F4F4F4"/>
<rect x="28" y="8" width="2" height="2" fill="#F4F4F4"/>
<rect x="30" y="10" width="2" height="2" fill="#F4F4F4"/>
<rect x="28" y="12" width="2" height="2" fill="#F4F4F4"/>
<rect x="30" y="12" width="2" height="2" fill="#F4F4F4"/>
<rect x="28" y="14" width="2" height="2" fill="#F4F4F4"/>
<rect x="30" y="14" width="2" height="2" fill="#F4F4F4"/>
<rect x="28" y="16" width="2" height="2" fill="#F4F4F4"/>
<rect x="30" y="16" width="2" height="2" fill="#F4F4F4"/>
<rect x="28" y="18" width="2" height="2" fill="#F4F4F4"/>
<rect x="28" y="20" width="2" height="2" fill="#F4F4F4"/>
<rect x="30" y="18" width="2" height="2" fill="#F4F4F4"/>
<rect x="30" y="20" width="2" height="2" fill="#F4F4F4"/>
<rect x="28" y="22" width="2" height="2" fill="#F4F4F4"/>
<rect x="28" y="24" width="2" height="2" fill="#F4F4F4"/>
<rect x="30" y="22" width="2" height="2" fill="#F4F4F4"/>
</svg>
