<svg width="86" height="86" viewBox="0 0 86 86" fill="none" xmlns="http://www.w3.org/2000/svg">
<rect x="19" y="23" width="4" height="4" fill="#D9D9D9"/>
<rect x="19" y="19" width="4" height="4" fill="#D9D9D9"/>
<rect x="23" y="19" width="4" height="4" fill="#D9D9D9"/>
<rect x="19" y="27" width="4" height="4" fill="#D9D9D9"/>
<rect x="19" y="31" width="4" height="4" fill="#D9D9D9"/>
<rect x="23" y="31" width="4" height="4" fill="#D9D9D9"/>
<rect x="23" y="27" width="4" height="4" fill="#D9D9D9"/>
<rect x="23" y="23" width="4" height="4" fill="#D9D9D9"/>
<rect x="15" y="39" width="4" height="4" fill="#D9D9D9"/>
<rect x="19" y="35" width="4" height="8" fill="#D9D9D9"/>
<rect x="23" y="35" width="4" height="8" fill="#D9D9D9"/>
<rect x="35" y="35" width="4" height="8" fill="#D9D9D9"/>
<rect x="35" y="31" width="4" height="4" fill="#D9D9D9"/>
<rect x="27" y="35" width="4" height="8" fill="#D9D9D9"/>
<rect x="27" y="31" width="4" height="4" fill="#D9D9D9"/>
<rect x="27" y="27" width="4" height="4" fill="#D9D9D9"/>
<rect x="39" y="35" width="4" height="8" fill="#D9D9D9"/>
<rect x="39" y="31" width="4" height="4" fill="#D9D9D9"/>
<rect x="31" y="35" width="4" height="8" fill="#D9D9D9"/>
<rect x="31" y="31" width="4" height="4" fill="#D9D9D9"/>
<rect x="43" y="35" width="4" height="8" fill="#D9D9D9"/>
<rect x="43" y="31" width="4" height="4" fill="#D9D9D9"/>
<rect x="51" y="35" width="4" height="8" fill="#D9D9D9"/>
<rect x="51" y="31" width="4" height="4" fill="#D9D9D9"/>
<rect x="47" y="35" width="4" height="8" fill="#D9D9D9"/>
<rect x="47" y="31" width="4" height="4" fill="#D9D9D9"/>
<rect x="55" y="35" width="4" height="8" fill="#D9D9D9"/>
<rect x="55" y="31" width="4" height="4" fill="#D9D9D9"/>
<rect x="55" y="27" width="4" height="4" fill="#D9D9D9"/>
<rect x="59" y="35" width="4" height="8" fill="#D9D9D9"/>
<rect x="59" y="31" width="4" height="4" fill="#D9D9D9"/>
<rect x="59" y="27" width="4" height="4" fill="#D9D9D9"/>
<rect x="59" y="23" width="4" height="4" fill="#D9D9D9"/>
<rect x="63" y="35" width="4" height="8" fill="#D9D9D9"/>
<rect x="31" y="43" width="4" height="4" fill="#2C2C2C"/>
<rect x="27" y="43" width="4" height="4" fill="#2C2C2C"/>
<rect x="55" y="43" width="4" height="4" fill="#2C2C2C"/>
<rect x="51" y="43" width="4" height="4" fill="#2C2C2C"/>
<rect x="31" y="47" width="4" height="4" fill="#C4C4C4"/>
<rect x="27" y="47" width="4" height="4" fill="#7E7E7E"/>
<rect x="55" y="47" width="4" height="4" fill="#C4C4C4"/>
<rect x="51" y="47" width="4" height="4" fill="#7E7E7E"/>
<rect x="15" y="39" width="4" height="4" fill="#D9D9D9"/>
<rect x="19" y="39" width="4" height="4" fill="#D9D9D9"/>
<rect x="23" y="39" width="4" height="4" fill="#D9D9D9"/>
<rect x="35" y="39" width="4" height="4" fill="#D9D9D9"/>
<rect x="27" y="39" width="4" height="4" fill="#D9D9D9"/>
<rect x="39" y="39" width="4" height="4" fill="#D9D9D9"/>
<rect x="31" y="39" width="4" height="4" fill="#D9D9D9"/>
<rect x="43" y="39" width="4" height="4" fill="#D9D9D9"/>
<rect x="51" y="39" width="4" height="4" fill="#D9D9D9"/>
<rect x="47" y="39" width="4" height="4" fill="#D9D9D9"/>
<rect x="55" y="39" width="4" height="4" fill="#D9D9D9"/>
<rect x="59" y="39" width="4" height="4" fill="#D9D9D9"/>
<rect x="63" y="39" width="4" height="4" fill="#D9D9D9"/>
<rect x="15" y="43" width="4" height="4" fill="#D9D9D9"/>
<rect x="19" y="43" width="4" height="4" fill="#D9D9D9"/>
<rect x="23" y="43" width="4" height="4" fill="#D9D9D9"/>
<rect x="35" y="43" width="4" height="4" fill="#D9D9D9"/>
<rect x="39" y="43" width="4" height="4" fill="#D9D9D9"/>
<rect x="43" y="43" width="4" height="4" fill="#D9D9D9"/>
<rect x="47" y="43" width="4" height="4" fill="#D9D9D9"/>
<rect x="59" y="43" width="4" height="4" fill="#D9D9D9"/>
<rect x="63" y="43" width="4" height="4" fill="#D9D9D9"/>
<rect x="15" y="51" width="4" height="4" fill="#D9D9D9"/>
<rect x="19" y="51" width="4" height="4" fill="#D9D9D9"/>
<rect x="23" y="51" width="4" height="4" fill="#D9D9D9"/>
<rect x="23" y="55" width="4" height="4" fill="#D9D9D9"/>
<rect x="27" y="59" width="4" height="4" fill="#D9D9D9"/>
<rect x="23" y="59" width="4" height="4" fill="#D9D9D9"/>
<rect x="27" y="51" width="4" height="4" fill="#D9D9D9"/>
<rect x="27" y="55" width="4" height="4" fill="#D9D9D9"/>
<rect x="31" y="51" width="4" height="4" fill="#D9D9D9"/>
<rect x="31" y="55" width="4" height="4" fill="#D9D9D9"/>
<rect x="35" y="51" width="4" height="4" fill="#D9D9D9"/>
<rect x="35" y="55" width="4" height="4" fill="#D9D9D9"/>
<rect x="39" y="51" width="4" height="4" fill="#D9D9D9"/>
<rect x="39" y="55" width="4" height="4" fill="#D9D9D9"/>
<rect x="43" y="51" width="4" height="4" fill="#D9D9D9"/>
<rect x="43" y="55" width="4" height="4" fill="#D9D9D9"/>
<rect x="47" y="51" width="4" height="4" fill="#D9D9D9"/>
<rect x="47" y="55" width="4" height="4" fill="#D9D9D9"/>
<rect x="51" y="51" width="4" height="4" fill="#D9D9D9"/>
<rect x="51" y="55" width="4" height="4" fill="#D9D9D9"/>
<rect x="55" y="51" width="4" height="4" fill="#D9D9D9"/>
<rect x="55" y="55" width="4" height="4" fill="#D9D9D9"/>
<rect x="59" y="51" width="4" height="4" fill="#D9D9D9"/>
<rect x="59" y="55" width="4" height="4" fill="#D9D9D9"/>
<rect x="55" y="59" width="4" height="4" fill="#D9D9D9"/>
<rect x="59" y="59" width="4" height="4" fill="#D9D9D9"/>
<rect x="63" y="51" width="4" height="4" fill="#D9D9D9"/>
<rect x="19" y="55" width="4" height="4" fill="#D9D9D9"/>
<rect x="15" y="47" width="4" height="4" fill="#D9D9D9"/>
<rect x="19" y="47" width="4" height="4" fill="#D9D9D9"/>
<rect x="23" y="47" width="4" height="4" fill="#D9D9D9"/>
<rect x="35" y="47" width="4" height="4" fill="#D9D9D9"/>
<rect x="39" y="47" width="4" height="4" fill="#D9D9D9"/>
<rect x="43" y="47" width="4" height="4" fill="#D9D9D9"/>
<rect x="47" y="47" width="4" height="4" fill="#D9D9D9"/>
<rect x="59" y="47" width="4" height="4" fill="#D9D9D9"/>
<rect x="63" y="47" width="4" height="4" fill="#D9D9D9"/>
<rect x="11" y="43" width="4" height="4" fill="#D9D9D9"/>
<rect x="11" y="51" width="4" height="4" fill="#D9D9D9"/>
<rect x="35" y="27" width="4" height="4" fill="#D9D9D9"/>
<rect x="35" y="63" width="4" height="4" fill="#D9D9D9"/>
<rect x="35" y="59" width="4" height="4" fill="#D9D9D9"/>
<rect x="31" y="27" width="4" height="4" fill="#D9D9D9"/>
<rect x="31" y="63" width="4" height="4" fill="#D9D9D9"/>
<rect x="31" y="59" width="4" height="4" fill="#D9D9D9"/>
<rect x="27" y="63" width="4" height="4" fill="#D9D9D9"/>
<rect x="19" y="59" width="4" height="4" fill="#D9D9D9"/>
<rect x="23" y="63" width="4" height="4" fill="#D9D9D9"/>
<rect x="43" y="27" width="4" height="4" fill="#D9D9D9"/>
<rect x="43" y="63" width="4" height="4" fill="#D9D9D9"/>
<rect x="43" y="59" width="4" height="4" fill="#D9D9D9"/>
<rect x="27" y="23" width="4" height="4" fill="#D9D9D9"/>
<rect x="39" y="27" width="4" height="4" fill="#D9D9D9"/>
<rect x="39" y="63" width="4" height="4" fill="#D9D9D9"/>
<rect x="39" y="59" width="4" height="4" fill="#D9D9D9"/>
<rect x="47" y="27" width="4" height="4" fill="#D9D9D9"/>
<rect x="47" y="63" width="4" height="4" fill="#D9D9D9"/>
<rect x="47" y="59" width="4" height="4" fill="#D9D9D9"/>
<rect x="55" y="23" width="4" height="4" fill="#D9D9D9"/>
<rect x="51" y="27" width="4" height="4" fill="#D9D9D9"/>
<rect x="51" y="63" width="4" height="4" fill="#D9D9D9"/>
<rect x="51" y="59" width="4" height="4" fill="#D9D9D9"/>
<rect x="55" y="63" width="4" height="4" fill="#D9D9D9"/>
<rect x="59" y="63" width="4" height="4" fill="#D9D9D9"/>
<rect x="63" y="59" width="4" height="4" fill="#D9D9D9"/>
<rect x="59" y="19" width="4" height="4" fill="#D9D9D9"/>
<rect x="63" y="27" width="4" height="4" fill="#D9D9D9"/>
<rect x="63" y="31" width="4" height="4" fill="#D9D9D9"/>
<rect x="67" y="39" width="4" height="4" fill="#D9D9D9"/>
<rect x="67" y="39" width="4" height="4" fill="#D9D9D9"/>
<rect x="67" y="43" width="4" height="4" fill="#D9D9D9"/>
<rect x="67" y="51" width="4" height="4" fill="#D9D9D9"/>
<rect x="63" y="55" width="4" height="4" fill="#D9D9D9"/>
<rect x="67" y="47" width="4" height="4" fill="#D9D9D9"/>
<rect x="71" y="43" width="4" height="4" fill="#D9D9D9"/>
<rect x="71" y="51" width="4" height="4" fill="#D9D9D9"/>
<rect x="63" y="23" width="4" height="4" fill="#D9D9D9"/>
<rect x="63" y="19" width="4" height="4" fill="#D9D9D9"/>
<rect x="33" y="47" width="2" height="2" fill="white"/>
<rect x="57" y="47" width="2" height="2" fill="white"/>
<rect x="74" y="10" width="4" height="4" fill="#D9D9D9"/>
<rect x="70" y="14" width="4" height="4" fill="#D9D9D9"/>
<rect x="78" y="14" width="4" height="4" fill="#D9D9D9"/>
<rect x="74" y="14" width="4" height="4" fill="#7E7E7E"/>
<rect x="74" y="18" width="4" height="4" fill="#D9D9D9"/>
</svg>
