<svg width="24" height="24" viewBox="0 0 24 24" fill="none" xmlns="http://www.w3.org/2000/svg">
<mask id="path-1-inside-1_399_33728" fill="white">
<path fill-rule="evenodd" clip-rule="evenodd" d="M8 0H6.66667V1.33333V2.66667V4V5.33333H8H9.33333V4V2.66667H10.6667H12H13.3333H14.6667H16H17.3333H18.6667H20H21.3333V4V5.33333V6.66667V8V9.33333V10.6667V12V13.3333V14.6667V16V17.3333V18.6667V20V21.3333H20H18.6667H17.3333H16H14.6667H13.3333H12H10.6667H9.33333V20V18.6667V17.3333H8H6.66667V18.6667V20V21.3333V22.6667V24H8H9.33333H10.6667H12H13.3333H14.6667H16H17.3333H18.6667H20H21.3333H22.6667H24V22.6667V21.3333V20V18.6667V17.3333V16V14.6667V13.3333V12V10.6667V9.33333V8V6.66667V5.33333V4V2.66667V1.33333V0H22.6667H21.3333H20H18.6667H17.3333H16H14.6667H13.3333H12H10.6667H9.33333H8ZM4 10.6667H5.33333H6.66667H8H9.33333H10.6667H12H13.3333V9.33333H12V8H10.6667V6.66667V5.33333H12H13.3333V6.66667L14.6667 6.66667V8H16V9.33333H17.3333V10.6667H18.6667V12V13.3333H17.3333V14.6667H16V16H14.6667V17.3333H13.3333V18.6667H12H10.6667V17.3333V16H12V14.6667H13.3333V13.3333H12H10.6667H9.33333H8H6.66667H5.33333H4H2.66667H1.33333H0V12V10.6667H1.33333H2.66667H4Z"/>
</mask>
<path fill-rule="evenodd" clip-rule="evenodd" d="M8 0H6.66667V1.33333V2.66667V4V5.33333H8H9.33333V4V2.66667H10.6667H12H13.3333H14.6667H16H17.3333H18.6667H20H21.3333V4V5.33333V6.66667V8V9.33333V10.6667V12V13.3333V14.6667V16V17.3333V18.6667V20V21.3333H20H18.6667H17.3333H16H14.6667H13.3333H12H10.6667H9.33333V20V18.6667V17.3333H8H6.66667V18.6667V20V21.3333V22.6667V24H8H9.33333H10.6667H12H13.3333H14.6667H16H17.3333H18.6667H20H21.3333H22.6667H24V22.6667V21.3333V20V18.6667V17.3333V16V14.6667V13.3333V12V10.6667V9.33333V8V6.66667V5.33333V4V2.66667V1.33333V0H22.6667H21.3333H20H18.6667H17.3333H16H14.6667H13.3333H12H10.6667H9.33333H8ZM4 10.6667H5.33333H6.66667H8H9.33333H10.6667H12H13.3333V9.33333H12V8H10.6667V6.66667V5.33333H12H13.3333V6.66667L14.6667 6.66667V8H16V9.33333H17.3333V10.6667H18.6667V12V13.3333H17.3333V14.6667H16V16H14.6667V17.3333H13.3333V18.6667H12H10.6667V17.3333V16H12V14.6667H13.3333V13.3333H12H10.6667H9.33333H8H6.66667H5.33333H4H2.66667H1.33333H0V12V10.6667H1.33333H2.66667H4Z" fill="white"/>
<path d="M6.66667 0V-1H5.66667V0H6.66667ZM6.66667 5.33333H5.66667V6.33333H6.66667V5.33333ZM9.33333 5.33333V6.33333H10.3333V5.33333H9.33333ZM9.33333 2.66667V1.66667H8.33333V2.66667H9.33333ZM21.3333 2.66667H22.3333V1.66667H21.3333V2.66667ZM21.3333 21.3333V22.3333H22.3333V21.3333H21.3333ZM9.33333 21.3333H8.33333V22.3333H9.33333V21.3333ZM9.33333 17.3333H10.3333V16.3333H9.33333V17.3333ZM6.66667 17.3333V16.3333H5.66667V17.3333H6.66667ZM6.66667 24H5.66667V25H6.66667V24ZM24 24V25H25V24H24ZM24 0H25V-1H24V0ZM13.3333 10.6667V11.6667H14.3333V10.6667H13.3333ZM13.3333 9.33333H14.3333V8.33333H13.3333V9.33333ZM12 9.33333H11V10.3333H12V9.33333ZM12 8H13V7H12V8ZM10.6667 8H9.66667V9H10.6667V8ZM10.6667 5.33333V4.33333H9.66667V5.33333H10.6667ZM13.3333 5.33333H14.3333V4.33333H13.3333V5.33333ZM13.3333 6.66667H12.3333V7.66667L13.3333 7.66667L13.3333 6.66667ZM14.6667 6.66667H15.6667V5.66667L14.6667 5.66667L14.6667 6.66667ZM14.6667 8H13.6667V9H14.6667V8ZM16 8H17V7H16V8ZM16 9.33333H15V10.3333H16V9.33333ZM17.3333 9.33333H18.3333V8.33333H17.3333V9.33333ZM17.3333 10.6667H16.3333V11.6667H17.3333V10.6667ZM18.6667 10.6667H19.6667V9.66667H18.6667V10.6667ZM18.6667 13.3333V14.3333H19.6667V13.3333H18.6667ZM17.3333 13.3333V12.3333H16.3333V13.3333H17.3333ZM17.3333 14.6667V15.6667H18.3333V14.6667H17.3333ZM16 14.6667V13.6667H15V14.6667H16ZM16 16V17H17V16H16ZM14.6667 16V15H13.6667V16H14.6667ZM14.6667 17.3333V18.3333H15.6667V17.3333H14.6667ZM13.3333 17.3333V16.3333H12.3333V17.3333H13.3333ZM13.3333 18.6667V19.6667H14.3333V18.6667H13.3333ZM10.6667 18.6667H9.66667V19.6667H10.6667V18.6667ZM10.6667 16V15H9.66667V16H10.6667ZM12 16V17H13V16H12ZM12 14.6667V13.6667H11V14.6667H12ZM13.3333 14.6667V15.6667H14.3333V14.6667H13.3333ZM13.3333 13.3333H14.3333V12.3333H13.3333V13.3333ZM0 13.3333H-1V14.3333H0V13.3333ZM0 10.6667V9.66667H-1V10.6667H0ZM6.66667 1H8V-1H6.66667V1ZM7.66667 1.33333V0H5.66667V1.33333H7.66667ZM7.66667 2.66667V1.33333H5.66667V2.66667H7.66667ZM7.66667 4V2.66667H5.66667V4H7.66667ZM7.66667 5.33333V4H5.66667V5.33333H7.66667ZM8 4.33333H6.66667V6.33333H8V4.33333ZM9.33333 4.33333H8V6.33333H9.33333V4.33333ZM8.33333 4V5.33333H10.3333V4H8.33333ZM8.33333 2.66667V4H10.3333V2.66667H8.33333ZM10.6667 1.66667H9.33333V3.66667H10.6667V1.66667ZM12 1.66667H10.6667V3.66667H12V1.66667ZM13.3333 1.66667H12V3.66667H13.3333V1.66667ZM14.6667 1.66667H13.3333V3.66667H14.6667V1.66667ZM16 1.66667H14.6667V3.66667H16V1.66667ZM17.3333 1.66667H16V3.66667H17.3333V1.66667ZM18.6667 1.66667H17.3333V3.66667H18.6667V1.66667ZM20 1.66667H18.6667V3.66667H20V1.66667ZM21.3333 1.66667H20V3.66667H21.3333V1.66667ZM22.3333 4V2.66667H20.3333V4H22.3333ZM22.3333 5.33333V4H20.3333V5.33333H22.3333ZM22.3333 6.66667V5.33333H20.3333V6.66667H22.3333ZM22.3333 8V6.66667H20.3333V8H22.3333ZM22.3333 9.33333V8H20.3333V9.33333H22.3333ZM22.3333 10.6667V9.33333H20.3333V10.6667H22.3333ZM22.3333 12V10.6667H20.3333V12H22.3333ZM22.3333 13.3333V12H20.3333V13.3333H22.3333ZM22.3333 14.6667V13.3333H20.3333V14.6667H22.3333ZM22.3333 16V14.6667H20.3333V16H22.3333ZM22.3333 17.3333V16H20.3333V17.3333H22.3333ZM22.3333 18.6667V17.3333H20.3333V18.6667H22.3333ZM22.3333 20V18.6667H20.3333V20H22.3333ZM22.3333 21.3333V20H20.3333V21.3333H22.3333ZM20 22.3333H21.3333V20.3333H20V22.3333ZM18.6667 22.3333H20V20.3333H18.6667V22.3333ZM17.3333 22.3333H18.6667V20.3333H17.3333V22.3333ZM16 22.3333H17.3333V20.3333H16V22.3333ZM14.6667 22.3333H16V20.3333H14.6667V22.3333ZM13.3333 22.3333H14.6667V20.3333H13.3333V22.3333ZM12 22.3333H13.3333V20.3333H12V22.3333ZM10.6667 22.3333H12V20.3333H10.6667V22.3333ZM9.33333 22.3333H10.6667V20.3333H9.33333V22.3333ZM8.33333 20V21.3333H10.3333V20H8.33333ZM8.33333 18.6667V20H10.3333V18.6667H8.33333ZM8.33333 17.3333V18.6667H10.3333V17.3333H8.33333ZM8 18.3333H9.33333V16.3333H8V18.3333ZM6.66667 18.3333H8V16.3333H6.66667V18.3333ZM7.66667 18.6667V17.3333H5.66667V18.6667H7.66667ZM7.66667 20V18.6667H5.66667V20H7.66667ZM7.66667 21.3333V20H5.66667V21.3333H7.66667ZM7.66667 22.6667V21.3333H5.66667V22.6667H7.66667ZM7.66667 24V22.6667H5.66667V24H7.66667ZM8 23H6.66667V25H8V23ZM9.33333 23H8V25H9.33333V23ZM10.6667 23H9.33333V25H10.6667V23ZM12 23H10.6667V25H12V23ZM13.3333 23H12V25H13.3333V23ZM14.6667 23H13.3333V25H14.6667V23ZM16 23H14.6667V25H16V23ZM17.3333 23H16V25H17.3333V23ZM18.6667 23H17.3333V25H18.6667V23ZM20 23H18.6667V25H20V23ZM21.3333 23H20V25H21.3333V23ZM22.6667 23H21.3333V25H22.6667V23ZM24 23H22.6667V25H24V23ZM23 22.6667V24H25V22.6667H23ZM23 21.3333V22.6667H25V21.3333H23ZM23 20V21.3333H25V20H23ZM23 18.6667V20H25V18.6667H23ZM23 17.3333V18.6667H25V17.3333H23ZM23 16V17.3333H25V16H23ZM23 14.6667V16H25V14.6667H23ZM23 13.3333V14.6667H25V13.3333H23ZM23 12V13.3333H25V12H23ZM23 10.6667V12H25V10.6667H23ZM23 9.33333V10.6667H25V9.33333H23ZM23 8V9.33333H25V8H23ZM23 6.66667V8H25V6.66667H23ZM23 5.33333V6.66667H25V5.33333H23ZM23 4V5.33333H25V4H23ZM23 2.66667V4H25V2.66667H23ZM23 1.33333V2.66667H25V1.33333H23ZM23 0V1.33333H25V0H23ZM22.6667 1H24V-1H22.6667V1ZM21.3333 1H22.6667V-1H21.3333V1ZM20 1H21.3333V-1H20V1ZM18.6667 1H20V-1H18.6667V1ZM17.3333 1H18.6667V-1H17.3333V1ZM16 1H17.3333V-1H16V1ZM14.6667 1H16V-1H14.6667V1ZM13.3333 1H14.6667V-1H13.3333V1ZM12 1H13.3333V-1H12V1ZM10.6667 1H12V-1H10.6667V1ZM9.33333 1H10.6667V-1H9.33333V1ZM8 1H9.33333V-1H8V1ZM5.33333 9.66667H4V11.6667H5.33333V9.66667ZM6.66667 9.66667H5.33333V11.6667H6.66667V9.66667ZM8 9.66667H6.66667V11.6667H8V9.66667ZM9.33333 9.66667H8V11.6667H9.33333V9.66667ZM10.6667 9.66667H9.33333V11.6667H10.6667V9.66667ZM12 9.66667H10.6667V11.6667H12V9.66667ZM13.3333 9.66667H12V11.6667H13.3333V9.66667ZM12.3333 9.33333V10.6667H14.3333V9.33333H12.3333ZM12 10.3333H13.3333V8.33333H12V10.3333ZM11 8V9.33333H13V8H11ZM10.6667 9H12V7H10.6667V9ZM9.66667 6.66667V8H11.6667V6.66667H9.66667ZM9.66667 5.33333V6.66667H11.6667V5.33333H9.66667ZM12 4.33333H10.6667V6.33333H12V4.33333ZM13.3333 4.33333H12V6.33333H13.3333V4.33333ZM14.3333 6.66667V5.33333H12.3333V6.66667H14.3333ZM14.6667 5.66667L13.3333 5.66667L13.3333 7.66667L14.6667 7.66667L14.6667 5.66667ZM15.6667 8V6.66667H13.6667V8H15.6667ZM16 7H14.6667V9H16V7ZM17 9.33333V8H15V9.33333H17ZM17.3333 8.33333H16V10.3333H17.3333V8.33333ZM18.3333 10.6667V9.33333H16.3333V10.6667H18.3333ZM18.6667 9.66667H17.3333V11.6667H18.6667V9.66667ZM19.6667 12V10.6667H17.6667V12H19.6667ZM19.6667 13.3333V12H17.6667V13.3333H19.6667ZM17.3333 14.3333H18.6667V12.3333H17.3333V14.3333ZM18.3333 14.6667V13.3333H16.3333V14.6667H18.3333ZM16 15.6667H17.3333V13.6667H16V15.6667ZM17 16V14.6667H15V16H17ZM14.6667 17H16V15H14.6667V17ZM15.6667 17.3333V16H13.6667V17.3333H15.6667ZM13.3333 18.3333H14.6667V16.3333H13.3333V18.3333ZM14.3333 18.6667V17.3333H12.3333V18.6667H14.3333ZM12 19.6667H13.3333V17.6667H12V19.6667ZM10.6667 19.6667H12V17.6667H10.6667V19.6667ZM9.66667 17.3333V18.6667H11.6667V17.3333H9.66667ZM9.66667 16V17.3333H11.6667V16H9.66667ZM12 15H10.6667V17H12V15ZM11 14.6667V16H13V14.6667H11ZM13.3333 13.6667H12V15.6667H13.3333V13.6667ZM12.3333 13.3333V14.6667H14.3333V13.3333H12.3333ZM12 14.3333H13.3333V12.3333H12V14.3333ZM10.6667 14.3333H12V12.3333H10.6667V14.3333ZM9.33333 14.3333H10.6667V12.3333H9.33333V14.3333ZM8 14.3333H9.33333V12.3333H8V14.3333ZM6.66667 14.3333H8V12.3333H6.66667V14.3333ZM5.33333 14.3333H6.66667V12.3333H5.33333V14.3333ZM4 14.3333H5.33333V12.3333H4V14.3333ZM2.66667 14.3333H4V12.3333H2.66667V14.3333ZM1.33333 14.3333H2.66667V12.3333H1.33333V14.3333ZM0 14.3333H1.33333V12.3333H0V14.3333ZM-1 12V13.3333H1V12H-1ZM-1 10.6667V12H1V10.6667H-1ZM1.33333 9.66667H0V11.6667H1.33333V9.66667ZM2.66667 9.66667H1.33333V11.6667H2.66667V9.66667ZM4 9.66667H2.66667V11.6667H4V9.66667Z" fill="#797979" mask="url(#path-1-inside-1_399_33728)"/>
</svg>
