<svg width="56" height="56" viewBox="0 0 56 56" fill="none" xmlns="http://www.w3.org/2000/svg">
<rect width="56" height="56" fill="#2C2C2C"/>
<rect width="56" height="4" fill="white"/>
<rect width="4" height="56" fill="white"/>
<rect y="52" width="52" height="4" fill="black"/>
<rect x="52" width="4" height="56" fill="black"/>
<mask id="path-5-outside-1_406_34690" maskUnits="userSpaceOnUse" x="15" y="15" width="26" height="28" fill="black">
<rect fill="white" x="15" y="15" width="26" height="28"/>
<path fill-rule="evenodd" clip-rule="evenodd" d="M24 16H26H28H30H32V18H30H28H26H24V16ZM24 18V20V22V24H32V22V20V18H34V20V22V24H38H40V26V40V42H16V40V26V24H18H22V22V20V18H24ZM18 26V40H38V26H18ZM27 36V30H29V36H27Z"/>
</mask>
<path fill-rule="evenodd" clip-rule="evenodd" d="M24 16H26H28H30H32V18H30H28H26H24V16ZM24 18V20V22V24H32V22V20V18H34V20V22V24H38H40V26V40V42H16V40V26V24H18H22V22V20V18H24ZM18 26V40H38V26H18ZM27 36V30H29V36H27Z" fill="white"/>
<path d="M24 16V15H23V16H24ZM32 16H33V15H32V16ZM24 24H23V25H24V24ZM32 24V25H33V24H32ZM34 18H35V17H34V18ZM34 24H33V25H34V24ZM40 24H41V23H40V24ZM40 42V43H41V42H40ZM16 42H15V43H16V42ZM16 24V23H15V24H16ZM22 24V25H23V24H22ZM22 18V17H21V18H22ZM18 40H17V41H18V40ZM18 26V25H17V26H18ZM38 40V41H39V40H38ZM38 26H39V25H38V26ZM27 30V29H26V30H27ZM27 36H26V37H27V36ZM29 30H30V29H29V30ZM29 36V37H30V36H29ZM26 15H24V17H26V15ZM28 15H26V17H28V15ZM30 15H28V17H30V15ZM30 17H32V15H30V17ZM31 16V18H33V16H31ZM32 17H30V19H32V17ZM28 19H30V17H28V19ZM26 19H28V17H26V19ZM24 19H26V17H24V19ZM23 16V18H25V16H23ZM25 20V18H23V20H25ZM25 22V20H23V22H25ZM25 24V22H23V24H25ZM32 23H24V25H32V23ZM31 22V24H33V22H31ZM31 20V22H33V20H31ZM31 18V20H33V18H31ZM34 17H32V19H34V17ZM35 20V18H33V20H35ZM35 22V20H33V22H35ZM35 24V22H33V24H35ZM38 23H34V25H38V23ZM40 23H38V25H40V23ZM41 26V24H39V26H41ZM41 40V26H39V40H41ZM41 42V40H39V42H41ZM16 43H40V41H16V43ZM15 40V42H17V40H15ZM15 26V40H17V26H15ZM15 24V26H17V24H15ZM18 23H16V25H18V23ZM22 23H18V25H22V23ZM21 22V24H23V22H21ZM21 20V22H23V20H21ZM21 18V20H23V18H21ZM24 17H22V19H24V17ZM19 40V26H17V40H19ZM38 39H18V41H38V39ZM37 26V40H39V26H37ZM18 27H38V25H18V27ZM26 30V36H28V30H26ZM29 29H27V31H29V29ZM30 36V30H28V36H30ZM27 37H29V35H27V37Z" fill="#797979" mask="url(#path-5-outside-1_406_34690)"/>
</svg>
