<svg width="14" height="25" viewBox="0 0 14 25" fill="none" xmlns="http://www.w3.org/2000/svg">
<rect x="10.8887" y="23.333" width="1.55556" height="1.55556" transform="rotate(-180 10.8887 23.333)" fill="#C4C4C4"/>
<rect x="10.8887" y="21.7773" width="1.55556" height="1.55556" transform="rotate(-180 10.8887 21.7773)" fill="#C4C4C4"/>
<rect x="12.4443" y="21.7773" width="1.55556" height="1.55556" transform="rotate(-180 12.4443 21.7773)" fill="#C4C4C4"/>
<rect x="6.22241" y="18.666" width="1.55556" height="1.55556" transform="rotate(-180 6.22241 18.666)" fill="#C4C4C4"/>
<rect x="1.55566" y="14" width="1.55556" height="1.55556" transform="rotate(-180 1.55566 14)" fill="#C4C4C4"/>
<rect x="1.55566" y="12.4443" width="1.55556" height="1.55556" transform="rotate(-180 1.55566 12.4443)" fill="#C4C4C4"/>
<rect x="3.11133" y="14" width="1.55556" height="1.55556" transform="rotate(-180 3.11133 14)" fill="#C4C4C4"/>
<rect x="4.66675" y="14" width="1.55556" height="1.55556" transform="rotate(-180 4.66675 14)" fill="#C4C4C4"/>
<rect x="3.11133" y="12.4443" width="1.55556" height="1.55556" transform="rotate(-180 3.11133 12.4443)" fill="#C4C4C4"/>
<rect x="4.66675" y="12.4443" width="1.55556" height="1.55556" transform="rotate(-180 4.66675 12.4443)" fill="#C4C4C4"/>
<rect x="6.22241" y="7.77734" width="1.55556" height="1.55556" transform="rotate(-180 6.22241 7.77734)" fill="#C4C4C4"/>
<rect x="7.77759" y="7.77734" width="1.55556" height="1.55556" transform="rotate(-180 7.77759 7.77734)" fill="#C4C4C4"/>
<rect x="9.33325" y="7.77734" width="1.55556" height="1.55556" transform="rotate(-180 9.33325 7.77734)" fill="#C4C4C4"/>
<rect x="10.8887" y="3.11133" width="1.55556" height="1.55556" transform="rotate(-180 10.8887 3.11133)" fill="#C4C4C4"/>
<rect x="12.4443" y="3.11133" width="1.55556" height="1.55556" transform="rotate(-180 12.4443 3.11133)" fill="#C4C4C4"/>
<rect x="3.11133" y="10.8887" width="1.55556" height="1.55556" transform="rotate(-180 3.11133 10.8887)" fill="#C4C4C4"/>
<rect x="4.66675" y="10.8887" width="1.55556" height="1.55556" transform="rotate(-180 4.66675 10.8887)" fill="#C4C4C4"/>
<rect x="6.22241" y="10.8887" width="1.55556" height="1.55556" transform="rotate(-180 6.22241 10.8887)" fill="#C4C4C4"/>
<rect x="7.77759" y="6.22168" width="1.55556" height="1.55556" transform="rotate(-180 7.77759 6.22168)" fill="#C4C4C4"/>
<rect x="9.33325" y="6.22168" width="1.55556" height="1.55556" transform="rotate(-180 9.33325 6.22168)" fill="#C4C4C4"/>
<rect x="10.8887" y="6.22168" width="1.55556" height="1.55556" transform="rotate(-180 10.8887 6.22168)" fill="#C4C4C4"/>
<rect x="12.4443" y="1.55566" width="1.55556" height="1.55556" transform="rotate(-180 12.4443 1.55566)" fill="#C4C4C4"/>
<rect x="14" y="1.55566" width="1.55556" height="1.55556" transform="rotate(-180 14 1.55566)" fill="#C4C4C4"/>
<rect x="4.66675" y="9.33301" width="1.55556" height="1.55556" transform="rotate(-180 4.66675 9.33301)" fill="#C4C4C4"/>
<rect x="6.22241" y="9.33301" width="1.55556" height="1.55556" transform="rotate(-180 6.22241 9.33301)" fill="#C4C4C4"/>
<rect x="7.77759" y="9.33301" width="1.55556" height="1.55556" transform="rotate(-180 7.77759 9.33301)" fill="#C4C4C4"/>
<rect x="9.33325" y="4.66602" width="1.55556" height="1.55556" transform="rotate(-180 9.33325 4.66602)" fill="#C4C4C4"/>
<rect x="10.8887" y="4.66602" width="1.55556" height="1.55556" transform="rotate(-180 10.8887 4.66602)" fill="#C4C4C4"/>
<rect x="12.4443" y="4.66602" width="1.55556" height="1.55556" transform="rotate(-180 12.4443 4.66602)" fill="#C4C4C4"/>
<rect x="14" y="3.11133" width="1.55556" height="1.55556" transform="rotate(-180 14 3.11133)" fill="#C4C4C4"/>
<rect x="12.4443" y="24.8887" width="1.55556" height="1.55556" transform="rotate(-180 12.4443 24.8887)" fill="#C4C4C4"/>
<rect x="12.4443" y="23.333" width="1.55556" height="1.55556" transform="rotate(-180 12.4443 23.333)" fill="#C4C4C4"/>
<rect x="7.77759" y="20.2217" width="1.55556" height="1.55556" transform="rotate(-180 7.77759 20.2217)" fill="#C4C4C4"/>
<rect x="7.77759" y="18.666" width="1.55556" height="1.55556" transform="rotate(-180 7.77759 18.666)" fill="#C4C4C4"/>
<rect x="9.33325" y="18.666" width="1.55556" height="1.55556" transform="rotate(-180 9.33325 18.666)" fill="#C4C4C4"/>
<rect x="3.11133" y="15.5557" width="1.55556" height="1.55556" transform="rotate(-180 3.11133 15.5557)" fill="#C4C4C4"/>
<rect x="4.66675" y="15.5557" width="1.55556" height="1.55556" transform="rotate(-180 4.66675 15.5557)" fill="#C4C4C4"/>
<rect x="6.22241" y="15.5557" width="1.55556" height="1.55556" transform="rotate(-180 6.22241 15.5557)" fill="#C4C4C4"/>
<rect x="14" y="23.333" width="1.55556" height="1.55556" transform="rotate(-180 14 23.333)" fill="#C4C4C4"/>
<rect x="14" y="24.8887" width="1.55556" height="1.55556" transform="rotate(-180 14 24.8887)" fill="#C4C4C4"/>
<rect x="9.33325" y="21.7773" width="1.55556" height="1.55556" transform="rotate(-180 9.33325 21.7773)" fill="#C4C4C4"/>
<rect x="9.33325" y="20.2217" width="1.55556" height="1.55556" transform="rotate(-180 9.33325 20.2217)" fill="#C4C4C4"/>
<rect x="10.8887" y="20.2217" width="1.55556" height="1.55556" transform="rotate(-180 10.8887 20.2217)" fill="#C4C4C4"/>
<rect x="4.66675" y="17.1113" width="1.55556" height="1.55556" transform="rotate(-180 4.66675 17.1113)" fill="#C4C4C4"/>
<rect x="6.22241" y="17.1113" width="1.55556" height="1.55556" transform="rotate(-180 6.22241 17.1113)" fill="#C4C4C4"/>
<rect x="7.77759" y="17.1113" width="1.55556" height="1.55556" transform="rotate(-180 7.77759 17.1113)" fill="#C4C4C4"/>
</svg>
