<svg width="40" height="32" viewBox="0 0 40 32" fill="none" xmlns="http://www.w3.org/2000/svg">
<mask id="path-1-inside-1_485_32841" fill="white">
<path fill-rule="evenodd" clip-rule="evenodd" d="M8 5H10H12H14H16H18H20H22V7H24V9V11V13V15V17V19V21H22V23H24V25V27H22V29H20H18H16H14H12H10H8H6H4H2V27H0V25V23V21V19V17V15V13V11V9V7H2V5H4H6H8Z"/>
</mask>
<path fill-rule="evenodd" clip-rule="evenodd" d="M8 5H10H12H14H16H18H20H22V7H24V9V11V13V15V17V19V21H22V23H24V25V27H22V29H20H18H16H14H12H10H8H6H4H2V27H0V25V23V21V19V17V15V13V11V9V7H2V5H4H6H8Z" fill="#797979"/>
<path d="M22 5H23V4H22V5ZM22 7H21V8H22V7ZM24 7H25V6H24V7ZM24 21V22H25V21H24ZM22 21V20H21V21H22ZM22 23H21V24H22V23ZM24 23H25V22H24V23ZM24 27V28H25V27H24ZM22 27V26H21V27H22ZM22 29V30H23V29H22ZM2 29H1V30H2V29ZM2 27H3V26H2V27ZM0 27H-1V28H0V27ZM0 7V6H-1V7H0ZM2 7V8H3V7H2ZM2 5V4H1V5H2ZM10 4H8V6H10V4ZM12 4H10V6H12V4ZM14 4H12V6H14V4ZM16 4H14V6H16V4ZM18 4H16V6H18V4ZM20 4H18V6H20V4ZM22 4H20V6H22V4ZM23 7V5H21V7H23ZM22 8H24V6H22V8ZM23 7V9H25V7H23ZM25 11V9H23V11H25ZM25 13V11H23V13H25ZM25 15V13H23V15H25ZM25 17V15H23V17H25ZM25 19V17H23V19H25ZM25 21V19H23V21H25ZM22 22H24V20H22V22ZM23 23V21H21V23H23ZM24 22H22V24H24V22ZM25 25V23H23V25H25ZM25 27V25H23V27H25ZM22 28H24V26H22V28ZM23 29V27H21V29H23ZM20 30H22V28H20V30ZM18 30H20V28H18V30ZM16 30H18V28H16V30ZM14 30H16V28H14V30ZM12 30H14V28H12V30ZM10 30H12V28H10V30ZM8 30H10V28H8V30ZM6 30H8V28H6V30ZM4 30H6V28H4V30ZM2 30H4V28H2V30ZM1 27V29H3V27H1ZM0 28H2V26H0V28ZM-1 25V27H1V25H-1ZM-1 23V25H1V23H-1ZM-1 21V23H1V21H-1ZM-1 19V21H1V19H-1ZM-1 17V19H1V17H-1ZM-1 15V17H1V15H-1ZM-1 13V15H1V13H-1ZM-1 11V13H1V11H-1ZM-1 9V11H1V9H-1ZM-1 7V9H1V7H-1ZM2 6H0V8H2V6ZM1 5V7H3V5H1ZM4 4H2V6H4V4ZM6 4H4V6H6V4ZM8 4H6V6H8V4Z" fill="#797979" mask="url(#path-1-inside-1_485_32841)"/>
<mask id="path-3-inside-2_485_32841" fill="white">
<path fill-rule="evenodd" clip-rule="evenodd" d="M36 7H34V9H32H30V11H28H26V13V15V17V19V21V23H28H30V25H32H34V27H36H38H40V25V23V21V19V17V15V13V11V9V7H38H36Z"/>
</mask>
<path fill-rule="evenodd" clip-rule="evenodd" d="M36 7H34V9H32H30V11H28H26V13V15V17V19V21V23H28H30V25H32H34V27H36H38H40V25V23V21V19V17V15V13V11V9V7H38H36Z" fill="#797979"/>
<path d="M34 7V6H33V7H34ZM34 9V10H35V9H34ZM30 9V8H29V9H30ZM30 11V12H31V11H30ZM26 11V10H25V11H26ZM26 23H25V24H26V23ZM30 23H31V22H30V23ZM30 25H29V26H30V25ZM34 25H35V24H34V25ZM34 27H33V28H34V27ZM40 27V28H41V27H40ZM40 7H41V6H40V7ZM34 8H36V6H34V8ZM35 9V7H33V9H35ZM32 10H34V8H32V10ZM30 10H32V8H30V10ZM31 11V9H29V11H31ZM28 12H30V10H28V12ZM26 12H28V10H26V12ZM27 13V11H25V13H27ZM27 15V13H25V15H27ZM27 17V15H25V17H27ZM27 19V17H25V19H27ZM27 21V19H25V21H27ZM27 23V21H25V23H27ZM28 22H26V24H28V22ZM30 22H28V24H30V22ZM31 25V23H29V25H31ZM32 24H30V26H32V24ZM34 24H32V26H34V24ZM35 27V25H33V27H35ZM36 26H34V28H36V26ZM38 26H36V28H38V26ZM40 26H38V28H40V26ZM39 25V27H41V25H39ZM39 23V25H41V23H39ZM39 21V23H41V21H39ZM39 19V21H41V19H39ZM39 17V19H41V17H39ZM39 15V17H41V15H39ZM39 13V15H41V13H39ZM39 11V13H41V11H39ZM39 9V11H41V9H39ZM39 7V9H41V7H39ZM38 8H40V6H38V8ZM36 8H38V6H36V8Z" fill="#797979" mask="url(#path-3-inside-2_485_32841)"/>
<path fill-rule="evenodd" clip-rule="evenodd" d="M30 0H34V2H32V4H30V6H28V8H26V10H24V12H22V14H20V16H18V18H16V20H14V22H12V24H10V26H8V28H6V30H4V32H2H0V30H2V28H4V26H6V24H8V22H10V20H12V18H14V16H16V14H18V12H20V10H22V8H24V6H26V4H28V2H30V0Z" fill="#FF0000"/>
</svg>
