<svg width="8" height="12" viewBox="0 0 8 12" fill="none" xmlns="http://www.w3.org/2000/svg">
<mask id="path-1-outside-1_464_32647" maskUnits="userSpaceOnUse" x="0" y="0" width="8" height="12" fill="black">
<rect fill="white" width="8" height="12"/>
<path fill-rule="evenodd" clip-rule="evenodd" d="M3 1H2H1V2V3V4V5V6V7V8V9V10V11H2H3V10H4V9H5V8H6V7H7V6V5H6V4H5V3H4V2H3V1Z"/>
</mask>
<path fill-rule="evenodd" clip-rule="evenodd" d="M3 1H2H1V2V3V4V5V6V7V8V9V10V11H2H3V10H4V9H5V8H6V7H7V6V5H6V4H5V3H4V2H3V1Z" fill="#D9D9D9"/>
<path d="M3 1H4V0H3V1ZM1 1V0H0V1H1ZM1 11H0V12H1V11ZM3 11V12H4V11H3ZM3 10V9H2V10H3ZM4 10V11H5V10H4ZM4 9V8H3V9H4ZM5 9V10H6V9H5ZM5 8V7H4V8H5ZM6 8V9H7V8H6ZM6 7V6H5V7H6ZM7 7V8H8V7H7ZM7 5H8V4H7V5ZM6 5H5V6H6V5ZM6 4H7V3H6V4ZM5 4H4V5H5V4ZM5 3H6V2H5V3ZM4 3H3V4H4V3ZM4 2H5V1H4V2ZM3 2H2V3H3V2ZM2 2H3V0H2V2ZM1 2H2V0H1V2ZM2 2V1H0V2H2ZM2 3V2H0V3H2ZM2 4V3H0V4H2ZM2 5V4H0V5H2ZM2 6V5H0V6H2ZM2 7V6H0V7H2ZM2 8V7H0V8H2ZM2 9V8H0V9H2ZM2 10V9H0V10H2ZM2 11V10H0V11H2ZM2 10H1V12H2V10ZM3 10H2V12H3V10ZM2 10V11H4V10H2ZM4 9H3V11H4V9ZM3 9V10H5V9H3ZM5 8H4V10H5V8ZM4 8V9H6V8H4ZM6 7H5V9H6V7ZM5 7V8H7V7H5ZM7 6H6V8H7V6ZM6 6V7H8V6H6ZM6 5V6H8V5H6ZM6 6H7V4H6V6ZM5 4V5H7V4H5ZM5 5H6V3H5V5ZM4 3V4H6V3H4ZM4 4H5V2H4V4ZM3 2V3H5V2H3ZM3 3H4V1H3V3ZM2 1V2H4V1H2Z" fill="#797979" mask="url(#path-1-outside-1_464_32647)"/>
</svg>
