<svg width="18" height="26" viewBox="0 0 18 26" fill="none" xmlns="http://www.w3.org/2000/svg">
<rect x="14.5" y="10.5" width="3" height="3" fill="#797979" stroke="#797979"/>
<rect x="12.5" y="8.5" width="3" height="3" fill="#797979" stroke="#797979"/>
<rect x="10.5" y="6.5" width="3" height="3" fill="#797979" stroke="#797979"/>
<rect x="8.5" y="4.5" width="3" height="3" fill="#797979" stroke="#797979"/>
<rect x="6.5" y="2.5" width="3" height="3" fill="#797979" stroke="#797979"/>
<rect x="4.5" y="0.5" width="3" height="3" fill="#797979" stroke="#797979"/>
<rect x="2.5" y="0.5" width="3" height="3" fill="#797979" stroke="#797979"/>
<rect x="0.5" y="0.5" width="3" height="3" fill="#797979" stroke="#797979"/>
<rect x="14.5" y="12.5" width="3" height="3" fill="#797979" stroke="#797979"/>
<rect x="12.5" y="14.5" width="3" height="3" fill="#797979" stroke="#797979"/>
<rect x="10.5" y="16.5" width="3" height="3" fill="#797979" stroke="#797979"/>
<rect x="8.5" y="18.5" width="3" height="3" fill="#797979" stroke="#797979"/>
<rect x="6.5" y="20.5" width="3" height="3" fill="#797979" stroke="#797979"/>
<rect x="4.5" y="22.5" width="3" height="3" fill="#797979" stroke="#797979"/>
<rect x="2.5" y="22.5" width="3" height="3" fill="#797979" stroke="#797979"/>
<rect x="0.5" y="22.5" width="3" height="3" fill="#797979" stroke="#797979"/>
<rect x="0.5" y="2.5" width="3" height="21" fill="#797979" stroke="#797979"/>
</svg>
