<svg width="40" height="40" viewBox="0 0 40 40" fill="none" xmlns="http://www.w3.org/2000/svg">
<mask id="path-1-outside-1_397_32652" maskUnits="userSpaceOnUse" x="11" y="7" width="18" height="24" fill="black">
<rect fill="white" x="11" y="7" width="18" height="24"/>
<path fill-rule="evenodd" clip-rule="evenodd" d="M16 8H14V10V12H16V14H14H12V16H14V18V20V28V30H16V28H24V30H26V28V20V18V16H28V14H26H24V12H26V10V8H24V10V12H22V10H20H18V12H16V10V8ZM18 12V14H20H22V12H20H18Z"/>
</mask>
<path fill-rule="evenodd" clip-rule="evenodd" d="M16 8H14V10V12H16V14H14H12V16H14V18V20V28V30H16V28H24V30H26V28V20V18V16H28V14H26H24V12H26V10V8H24V10V12H22V10H20H18V12H16V10V8ZM18 12V14H20H22V12H20H18Z" fill="white"/>
<path d="M14 8V7H13V8H14ZM16 8H17V7H16V8ZM14 12H13V13H14V12ZM16 14V15H17V14H16ZM12 14V13H11V14H12ZM12 16H11V17H12V16ZM14 16H15V15H14V16ZM14 30H13V31H14V30ZM16 30V31H17V30H16ZM16 28V27H15V28H16ZM24 28H25V27H24V28ZM24 30H23V31H24V30ZM26 30V31H27V30H26ZM26 16V15H25V16H26ZM28 16V17H29V16H28ZM28 14H29V13H28V14ZM24 14H23V15H24V14ZM26 12V13H27V12H26ZM26 8H27V7H26V8ZM24 8V7H23V8H24ZM22 10H23V9H22V10ZM18 10V9H17V10H18ZM18 14H17V15H18V14ZM22 14V15H23V14H22ZM14 9H16V7H14V9ZM15 10V8H13V10H15ZM15 12V10H13V12H15ZM16 11H14V13H16V11ZM15 12V14H17V12H15ZM16 13H14V15H16V13ZM14 13H12V15H14V13ZM11 14V16H13V14H11ZM12 17H14V15H12V17ZM13 16V18H15V16H13ZM13 18V20H15V18H13ZM13 20V28H15V20H13ZM13 28V30H15V28H13ZM14 31H16V29H14V31ZM17 30V28H15V30H17ZM16 29H24V27H16V29ZM23 28V30H25V28H23ZM24 31H26V29H24V31ZM27 30V28H25V30H27ZM27 28V20H25V28H27ZM25 18V20H27V18H25ZM27 18V16H25V18H27ZM26 17H28V15H26V17ZM29 16V14H27V16H29ZM28 13H26V15H28V13ZM26 13H24V15H26V13ZM25 14V12H23V14H25ZM24 13H26V11H24V13ZM27 12V10H25V12H27ZM27 10V8H25V10H27ZM26 7H24V9H26V7ZM23 8V10H25V8H23ZM23 10V12H25V10H23ZM24 11H22V13H24V11ZM23 12V10H21V12H23ZM22 9H20V11H22V9ZM20 9H18V11H20V9ZM17 10V12H19V10H17ZM18 11H16V13H18V11ZM15 10V12H17V10H15ZM15 8V10H17V8H15ZM19 14V12H17V14H19ZM20 13H18V15H20V13ZM22 13H20V15H22V13ZM21 12V14H23V12H21ZM20 13H22V11H20V13ZM18 13H20V11H18V13Z" fill="#797979" mask="url(#path-1-outside-1_397_32652)"/>
<path fill-rule="evenodd" clip-rule="evenodd" d="M28 20H24V22H22V26H24V28H26V30H30V28H32V24H30V22H28V20Z" fill="#797979"/>
<path fill-rule="evenodd" clip-rule="evenodd" d="M12 20H16V22H18V26H16V28H14V30H10V28H8V24H10V22H12V20Z" fill="#797979"/>
</svg>
