<svg width="18" height="26" viewBox="0 0 18 26" fill="none" xmlns="http://www.w3.org/2000/svg">
<rect x="0.5" y="-0.5" width="3" height="3" transform="matrix(-1 0 0 1 4 11)" fill="#797979" stroke="#797979"/>
<rect x="0.5" y="-0.5" width="3" height="3" transform="matrix(-1 0 0 1 6 9)" fill="#797979" stroke="#797979"/>
<rect x="0.5" y="-0.5" width="3" height="3" transform="matrix(-1 0 0 1 8 7)" fill="#797979" stroke="#797979"/>
<rect x="0.5" y="-0.5" width="3" height="3" transform="matrix(-1 0 0 1 10 5)" fill="#797979" stroke="#797979"/>
<rect x="0.5" y="-0.5" width="3" height="3" transform="matrix(-1 0 0 1 12 3)" fill="#797979" stroke="#797979"/>
<rect x="0.5" y="-0.5" width="3" height="3" transform="matrix(-1 0 0 1 14 1)" fill="#797979" stroke="#797979"/>
<rect x="0.5" y="-0.5" width="3" height="3" transform="matrix(-1 0 0 1 16 1)" fill="#797979" stroke="#797979"/>
<rect x="0.5" y="-0.5" width="3" height="3" transform="matrix(-1 0 0 1 18 1)" fill="#797979" stroke="#797979"/>
<rect x="0.5" y="-0.5" width="3" height="3" transform="matrix(-1 0 0 1 4 13)" fill="#797979" stroke="#797979"/>
<rect x="0.5" y="-0.5" width="3" height="3" transform="matrix(-1 0 0 1 6 15)" fill="#797979" stroke="#797979"/>
<rect x="0.5" y="-0.5" width="3" height="3" transform="matrix(-1 0 0 1 8 17)" fill="#797979" stroke="#797979"/>
<rect x="0.5" y="-0.5" width="3" height="3" transform="matrix(-1 0 0 1 10 19)" fill="#797979" stroke="#797979"/>
<rect x="0.5" y="-0.5" width="3" height="3" transform="matrix(-1 0 0 1 12 21)" fill="#797979" stroke="#797979"/>
<rect x="0.5" y="-0.5" width="3" height="3" transform="matrix(-1 0 0 1 14 23)" fill="#797979" stroke="#797979"/>
<rect x="0.5" y="-0.5" width="3" height="3" transform="matrix(-1 0 0 1 16 23)" fill="#797979" stroke="#797979"/>
<rect x="0.5" y="-0.5" width="3" height="3" transform="matrix(-1 0 0 1 18 23)" fill="#797979" stroke="#797979"/>
<rect x="0.5" y="-0.5" width="3" height="21" transform="matrix(-1 0 0 1 18 3)" fill="#797979" stroke="#797979"/>
</svg>
