<svg width="48" height="46" viewBox="0 0 48 46" fill="none" xmlns="http://www.w3.org/2000/svg">
<path fill-rule="evenodd" clip-rule="evenodd" d="M24 6H26H28V42H26H24V40H22V38H20V36H18V34H16V32H14H4V16H14H16V14H18V12H20V10H22V8H24V6Z" fill="#797979"/>
<path fill-rule="evenodd" clip-rule="evenodd" d="M38 12H36V14H38V16H40V18V20H42V22V24V26V28H40V30V32H38V34H36V36H38V34H40V32H42V30V28H44V26V24V22V20H42V18V16H40V14H38V12Z" fill="#797979"/>
<path fill-rule="evenodd" clip-rule="evenodd" d="M31 16H33V18H31V16ZM35 20H33V18H35V20ZM37 26V24V22V20H35V22V24V26V28H33V30H31V32H33V30H35V28H37V26Z" fill="#797979"/>
<path fill-rule="evenodd" clip-rule="evenodd" d="M36 9H40V11H38V13H36V15H34V17H32V19H30V21H28V23H26V25H24V27H22V29H20V31H18V33H16V35H14V37H12V39H10V41H8H6V39H8V37H10V35H12V33H14V31H16V29H18V27H20V25H22V23H24V21H26V19H28V17H30V15H32V13H34V11H36V9Z" fill="#FF0000"/>
</svg>
