<svg width="28" height="28" viewBox="0 0 28 28" fill="none" xmlns="http://www.w3.org/2000/svg">
<mask id="path-1-outside-1_470_32707" maskUnits="userSpaceOnUse" x="7" y="1" width="14" height="26" fill="black">
<rect fill="white" x="7" y="1" width="14" height="26"/>
<path fill-rule="evenodd" clip-rule="evenodd" d="M10 2H8V4H10V6H12V8H14V10H16V12H18V14V16H16V18H14V20H12V22H10V24H8V26H10V24H12V22H14V20H16V18H18V16H20V14V12H18V10H16V8H14V6H12V4H10V2Z"/>
</mask>
<path fill-rule="evenodd" clip-rule="evenodd" d="M10 2H8V4H10V6H12V8H14V10H16V12H18V14V16H16V18H14V20H12V22H10V24H8V26H10V24H12V22H14V20H16V18H18V16H20V14V12H18V10H16V8H14V6H12V4H10V2Z" fill="#797979"/>
<path d="M8 2V1H7V2H8ZM10 2H11V1H10V2ZM8 4H7V5H8V4ZM10 6H9V7H10V6ZM12 8H11V9H12V8ZM14 10H13V11H14V10ZM16 12H15V13H16V12ZM16 16V15H15V16H16ZM14 18V17H13V18H14ZM12 20V19H11V20H12ZM10 22V21H9V22H10ZM8 24V23H7V24H8ZM8 26H7V27H8V26ZM10 26V27H11V26H10ZM12 24V25H13V24H12ZM14 22V23H15V22H14ZM16 20V21H17V20H16ZM18 18V19H19V18H18ZM20 16V17H21V16H20ZM20 12H21V11H20V12ZM18 10H19V9H18V10ZM16 8H17V7H16V8ZM14 6H15V5H14V6ZM12 4H13V3H12V4ZM8 3H10V1H8V3ZM9 4V2H7V4H9ZM10 3H8V5H10V3ZM11 6V4H9V6H11ZM12 5H10V7H12V5ZM13 8V6H11V8H13ZM14 7H12V9H14V7ZM15 10V8H13V10H15ZM16 9H14V11H16V9ZM17 12V10H15V12H17ZM18 11H16V13H18V11ZM19 14V12H17V14H19ZM19 16V14H17V16H19ZM16 17H18V15H16V17ZM17 18V16H15V18H17ZM14 19H16V17H14V19ZM15 20V18H13V20H15ZM14 19H12V21H14V19ZM11 20V22H13V20H11ZM10 23H12V21H10V23ZM11 24V22H9V24H11ZM8 25H10V23H8V25ZM9 26V24H7V26H9ZM10 25H8V27H10V25ZM9 24V26H11V24H9ZM12 23H10V25H12V23ZM11 22V24H13V22H11ZM12 23H14V21H12V23ZM15 22V20H13V22H15ZM16 19H14V21H16V19ZM15 18V20H17V18H15ZM18 17H16V19H18V17ZM17 16V18H19V16H17ZM20 15H18V17H20V15ZM19 14V16H21V14H19ZM19 12V14H21V12H19ZM18 13H20V11H18V13ZM17 10V12H19V10H17ZM16 11H18V9H16V11ZM15 8V10H17V8H15ZM14 9H16V7H14V9ZM13 6V8H15V6H13ZM12 7H14V5H12V7ZM11 4V6H13V4H11ZM10 5H12V3H10V5ZM9 2V4H11V2H9Z" fill="#797979" mask="url(#path-1-outside-1_470_32707)"/>
</svg>
