<svg width="40" height="40" viewBox="0 0 40 40" fill="none" xmlns="http://www.w3.org/2000/svg">
<rect width="40" height="40" fill="#D9D9D9"/>
<rect x="14" y="4" width="2" height="2" fill="black"/>
<rect x="16" y="8" width="2" height="2" fill="black"/>
<rect x="8" y="4" width="2" height="2" fill="black"/>
<rect x="24" y="20" width="2" height="2" fill="black"/>
<rect x="26" y="22" width="2" height="2" fill="black"/>
<rect x="26" y="30" width="2" height="2" fill="black"/>
<rect x="14" y="30" width="2" height="2" fill="black"/>
<rect x="14" y="22" width="2" height="2" fill="black"/>
<rect x="24" y="32" width="2" height="2" fill="black"/>
<rect x="16" y="32" width="2" height="2" fill="black"/>
<rect x="20" y="33" width="6" height="2" fill="black"/>
<rect x="28" y="24" width="2" height="6" fill="black"/>
<rect x="12" y="24" width="2" height="6" fill="black"/>
<rect x="14" y="24" width="14" height="6" fill="#F1F0F6"/>
<rect x="16" y="22" width="10" height="2" fill="#F1F0F6"/>
<rect x="16" y="30" width="10" height="2" fill="#F1F0F6"/>
<rect x="18" y="32" width="6" height="2" fill="#F1F0F6"/>
<rect x="18" y="20" width="6" height="2" fill="#F1F0F6"/>
<rect x="16" y="16" width="2" height="2" fill="#402F5C"/>
<rect x="24" y="16" width="2" height="2" fill="#795BAB"/>
<rect x="14" y="14" width="4" height="2" fill="#402F5C"/>
<rect x="24" y="14" width="4" height="2" fill="#795BAB"/>
<rect x="14" y="12" width="4" height="2" fill="#402F5C"/>
<rect x="24" y="12" width="4" height="2" fill="#795BAB"/>
<rect x="12" y="8" width="4" height="4" fill="#402F5C"/>
<rect x="18" y="14" width="6" height="4" fill="#BDB9D2"/>
<rect x="26" y="8" width="4" height="4" fill="#795BAB"/>
<rect x="10" y="4" width="4" height="4" fill="#402F5C"/>
<rect x="28" y="4" width="4" height="4" fill="#795BAB"/>
<rect x="10" y="8" width="2" height="2" fill="black"/>
<rect x="16" y="20" width="2" height="2" fill="black"/>
<rect x="18" y="20" width="2" height="2" fill="white"/>
<rect x="18" y="26" width="2" height="2" fill="white"/>
<rect x="20" y="28" width="2" height="2" fill="white"/>
<rect x="16" y="18" width="10" height="2" fill="black"/>
<rect x="14" y="6" width="2" height="2" fill="black"/>
<rect x="16" y="8" width="2" height="4" fill="black"/>
<rect x="18" y="12" width="2" height="2" fill="black"/>
<rect x="22" y="12" width="2" height="2" fill="black"/>
<rect x="26" y="16" width="2" height="4" fill="black"/>
<rect x="14" y="16" width="2" height="4" fill="black"/>
<rect x="24" y="8" width="2" height="4" fill="black"/>
<rect x="28" y="12" width="2" height="4" fill="black"/>
<rect x="26" y="4" width="2" height="4" fill="black"/>
<rect x="30" y="8" width="2" height="4" fill="black"/>
<rect x="32" y="4" width="2" height="4" fill="black"/>
<rect x="12" y="12" width="2" height="4" fill="black"/>
<rect x="8" y="6" width="2" height="2" fill="black"/>
<rect x="10" y="10" width="2" height="2" fill="black"/>
<rect x="16" y="24" width="2" height="6" fill="#BDB9D2"/>
<rect x="20" y="24" width="4" height="4" fill="white"/>
<rect x="24" y="24" width="2" height="6" fill="#BDB9D2"/>
<rect x="18" y="30" width="6" height="2" fill="#BDB9D2"/>
<rect x="18" y="22" width="6" height="2" fill="#BDB9D2"/>
<rect x="22" y="24" width="2" height="2" fill="#F1F0F6"/>
</svg>
