<svg width="45" height="40" viewBox="0 0 45 40" fill="none" xmlns="http://www.w3.org/2000/svg">
<g clip-path="url(#clip0_700_31907)">
<path d="M41.9815 10.7001C39.9695 7.55892 37.2403 5.07207 33.7933 3.23896C30.3458 1.40575 26.5821 0.48938 22.4996 0.48938C18.4177 0.48938 14.6528 1.40603 11.206 3.23896C7.75863 5.07198 5.02959 7.55892 3.01759 10.7001C1.0059 13.8411 0 17.2712 0 20.9901C0 25.4574 1.4304 29.4746 4.29191 33.0425C7.15312 36.6108 10.8494 39.0799 15.3804 40.4501C15.9078 40.5393 16.2982 40.4765 16.5521 40.2634C16.8061 40.0501 16.9329 39.7829 16.9329 39.4629C16.9329 39.4095 16.9279 38.9292 16.9181 38.0215C16.9081 37.1137 16.9033 36.3218 16.9033 35.6461L16.2295 35.7523C15.7999 35.824 15.2579 35.8544 14.6035 35.8458C13.9495 35.8375 13.2705 35.775 12.5675 35.6589C11.8642 35.5438 11.2101 35.2768 10.6046 34.8586C9.99935 34.4404 9.56972 33.893 9.31576 33.2172L9.0228 32.6029C8.82753 32.1939 8.52011 31.7396 8.10012 31.2417C7.68013 30.7432 7.25543 30.4053 6.82579 30.2274L6.62067 30.0936C6.484 30.0047 6.35717 29.8975 6.23988 29.773C6.1227 29.6486 6.03497 29.524 5.97638 29.3993C5.91769 29.2745 5.96632 29.1721 6.1228 29.0918C6.27929 29.0115 6.56208 28.9725 6.97242 28.9725L7.55813 29.0522C7.94877 29.1236 8.43197 29.3367 9.00833 29.6928C9.58439 30.0486 10.0579 30.5113 10.4291 31.0805C10.8785 31.8103 11.42 32.3665 12.0551 32.7491C12.6896 33.1318 13.3294 33.3228 13.9738 33.3228C14.6182 33.3228 15.1747 33.2783 15.6437 33.1898C16.1121 33.1008 16.5516 32.967 16.9619 32.7892C17.1377 31.5963 17.6163 30.6799 18.3972 30.0394C17.2841 29.9328 16.2834 29.7723 15.3944 29.5588C14.506 29.3451 13.588 28.9982 12.6409 28.5172C11.6933 28.037 10.9072 27.4405 10.2824 26.729C9.65745 26.0171 9.1446 25.0825 8.74452 23.926C8.34423 22.7691 8.14404 21.4345 8.14404 19.9219C8.14404 17.7682 8.91567 15.9355 10.4586 14.4227C9.73584 12.8035 9.80408 10.9883 10.6636 8.97737C11.23 8.81702 12.0699 8.93736 13.1831 9.33762C14.2964 9.73807 15.1115 10.0811 15.6293 10.3655C16.1471 10.6499 16.5619 10.8908 16.8745 11.0862C18.6912 10.6237 20.566 10.3924 22.4994 10.3924C24.4328 10.3924 26.3081 10.6237 28.1249 11.0862L29.2381 10.4458C29.9994 10.0186 30.8984 9.62699 31.9329 9.27105C32.968 8.91529 33.7596 8.8173 34.3067 8.97765C35.1852 10.9887 35.2635 12.8038 34.5405 14.423C36.0834 15.9357 36.8553 17.7689 36.8553 19.9222C36.8553 21.4348 36.6544 22.7736 36.2548 23.9394C35.8546 25.1054 35.3373 26.0391 34.7028 26.7424C34.0675 27.4456 33.2764 28.0373 32.3293 28.5175C31.382 28.9981 30.4636 29.345 29.5752 29.5587C28.6864 29.7725 27.6856 29.9331 26.5725 30.0399C27.5877 30.8404 28.0954 32.104 28.0954 33.8302V39.4622C28.0954 39.7821 28.2175 40.0492 28.462 40.2627C28.7061 40.4758 29.0916 40.5385 29.619 40.4492C34.1506 39.0792 37.8469 36.61 40.708 33.0418C43.5688 29.4738 44.9997 25.4567 44.9997 20.9894C44.9987 17.2709 43.9923 13.8411 41.9815 10.7001Z" fill="white"/>
</g>
<defs>
<clipPath id="clip0_700_31907">
<rect width="45" height="40" fill="black"/>
</clipPath>
</defs>
</svg>
