<svg width="48" height="48" viewBox="0 0 48 48" fill="none" xmlns="http://www.w3.org/2000/svg">
<rect width="48" height="48" fill="#444444"/>
<rect x="22" y="42" width="2" height="2" fill="black"/>
<rect x="22" y="40" width="2" height="2" fill="black"/>
<rect x="24" y="42" width="2" height="2" fill="black"/>
<rect x="24" y="40" width="2" height="2" fill="black"/>
<rect x="26" y="42" width="2" height="2" fill="black"/>
<rect x="26" y="40" width="2" height="2" fill="black"/>
<rect x="28" y="40" width="2" height="2" fill="black"/>
<rect x="28" y="38" width="2" height="2" fill="black"/>
<rect x="18" y="40" width="2" height="2" fill="black"/>
<rect x="18" y="38" width="2" height="2" fill="black"/>
<rect x="32" y="38" width="2" height="2" fill="black"/>
<rect x="32" y="36" width="2" height="2" fill="black"/>
<rect x="14" y="38" width="2" height="2" fill="black"/>
<rect x="14" y="36" width="2" height="2" fill="black"/>
<rect x="36" y="36" width="2" height="2" fill="black"/>
<rect x="12" y="36" width="2" height="2" fill="black"/>
<rect x="30" y="40" width="2" height="2" fill="black"/>
<rect x="30" y="38" width="2" height="2" fill="black"/>
<rect x="20" y="40" width="2" height="2" fill="black"/>
<rect x="20" y="38" width="2" height="2" fill="black"/>
<rect x="34" y="38" width="2" height="2" fill="black"/>
<rect x="34" y="36" width="2" height="2" fill="black"/>
<rect x="16" y="38" width="2" height="2" fill="black"/>
<rect x="16" y="36" width="2" height="2" fill="black"/>
<rect x="40" y="32" width="2" height="2" fill="black"/>
<rect x="38" y="32" width="2" height="2" fill="black"/>
<rect x="8" y="32" width="2" height="2" fill="black"/>
<rect x="10" y="32" width="2" height="2" fill="black"/>
<rect x="40" y="30" width="2" height="2" fill="black"/>
<rect x="38" y="30" width="2" height="2" fill="black"/>
<rect x="8" y="30" width="2" height="2" fill="black"/>
<rect x="10" y="30" width="2" height="2" fill="black"/>
<rect x="42" y="28" width="2" height="2" fill="black"/>
<rect x="40" y="28" width="2" height="2" fill="black"/>
<rect x="6" y="28" width="2" height="2" fill="black"/>
<rect x="8" y="28" width="2" height="2" fill="black"/>
<rect x="42" y="26" width="2" height="2" fill="black"/>
<rect x="40" y="26" width="2" height="2" fill="black"/>
<rect x="6" y="26" width="2" height="2" fill="black"/>
<rect x="8" y="26" width="2" height="2" fill="black"/>
<rect x="42" y="24" width="2" height="2" fill="black"/>
<rect x="40" y="24" width="2" height="2" fill="black"/>
<rect x="6" y="24" width="2" height="2" fill="black"/>
<rect x="8" y="24" width="2" height="2" fill="black"/>
<rect x="42" y="22" width="2" height="2" fill="black"/>
<rect x="40" y="22" width="2" height="2" fill="black"/>
<rect x="6" y="22" width="2" height="2" fill="black"/>
<rect x="8" y="22" width="2" height="2" fill="black"/>
<rect x="42" y="20" width="2" height="2" fill="black"/>
<rect x="40" y="20" width="2" height="2" fill="black"/>
<rect x="6" y="20" width="2" height="2" fill="black"/>
<rect x="8" y="20" width="2" height="2" fill="black"/>
<rect x="40" y="16" width="2" height="2" fill="black"/>
<rect x="38" y="16" width="2" height="2" fill="black"/>
<rect x="8" y="16" width="2" height="2" fill="black"/>
<rect x="10" y="16" width="2" height="2" fill="black"/>
<rect x="38" y="14" width="2" height="2" fill="black"/>
<rect x="36" y="14" width="2" height="2" fill="black"/>
<rect x="10" y="14" width="2" height="2" fill="black"/>
<rect x="12" y="14" width="2" height="2" fill="black"/>
<rect x="36" y="12" width="2" height="2" fill="black"/>
<rect x="12" y="12" width="2" height="2" fill="black"/>
<rect x="34" y="10" width="2" height="2" fill="black"/>
<rect x="34" y="12" width="2" height="2" fill="black"/>
<rect x="16" y="10" width="2" height="2" fill="black"/>
<rect x="16" y="12" width="2" height="2" fill="black"/>
<rect x="30" y="8" width="2" height="2" fill="black"/>
<rect x="30" y="10" width="2" height="2" fill="black"/>
<rect x="20" y="8" width="2" height="2" fill="black"/>
<rect x="20" y="10" width="2" height="2" fill="black"/>
<rect x="26" y="6" width="2" height="2" fill="black"/>
<rect x="26" y="8" width="2" height="2" fill="black"/>
<rect x="32" y="10" width="2" height="2" fill="black"/>
<rect x="32" y="12" width="2" height="2" fill="black"/>
<rect x="14" y="10" width="2" height="2" fill="black"/>
<rect x="14" y="12" width="2" height="2" fill="black"/>
<rect x="28" y="8" width="2" height="2" fill="black"/>
<rect x="28" y="10" width="2" height="2" fill="black"/>
<rect x="18" y="8" width="2" height="2" fill="black"/>
<rect x="18" y="10" width="2" height="2" fill="black"/>
<rect x="24" y="6" width="2" height="2" fill="black"/>
<rect x="24" y="8" width="2" height="2" fill="black"/>
<rect x="25" y="16" width="2" height="2" fill="black"/>
<rect x="25" y="22" width="2" height="2" fill="black"/>
<rect x="25" y="26" width="2" height="2" fill="black"/>
<rect x="25" y="30" width="2" height="2" fill="black"/>
<rect x="25" y="18" width="2" height="2" fill="black"/>
<rect x="25" y="24" width="2" height="2" fill="black"/>
<rect x="25" y="28" width="2" height="2" fill="black"/>
<rect x="25" y="32" width="2" height="2" fill="black"/>
<rect x="22" y="6" width="2" height="2" fill="black"/>
<rect x="22" y="8" width="2" height="2" fill="black"/>
<rect x="23" y="16" width="2" height="2" fill="black"/>
<rect x="23" y="22" width="2" height="2" fill="black"/>
<rect x="23" y="26" width="2" height="2" fill="black"/>
<rect x="23" y="30" width="2" height="2" fill="black"/>
<rect x="23" y="18" width="2" height="2" fill="black"/>
<rect x="23" y="24" width="2" height="2" fill="black"/>
<rect x="23" y="28" width="2" height="2" fill="black"/>
<rect x="23" y="32" width="2" height="2" fill="black"/>
<rect x="40" y="18" width="2" height="2" fill="black"/>
<rect x="38" y="18" width="2" height="2" fill="black"/>
<rect x="8" y="18" width="2" height="2" fill="black"/>
<rect x="10" y="18" width="2" height="2" fill="black"/>
<rect x="38" y="34" width="2" height="2" fill="black"/>
<rect x="36" y="34" width="2" height="2" fill="black"/>
<rect x="10" y="34" width="2" height="2" fill="black"/>
<rect x="12" y="34" width="2" height="2" fill="black"/>
</svg>
