<svg width="32" height="38" viewBox="0 0 32 38" fill="none" xmlns="http://www.w3.org/2000/svg">
<mask id="path-1-outside-1_892_214309" maskUnits="userSpaceOnUse" x="0" y="22" width="32" height="16" fill="black">
<rect fill="white" y="22" width="32" height="16"/>
<path fill-rule="evenodd" clip-rule="evenodd" d="M15 23H17H19H21H23V25H25V27H27V29H29V31H31V33V35V37H29H27H25H23H21H19H17H15H13H11H9H7H5H3H1V35V33V31H3V29H5V27H7V25H9V23H11H13H15Z"/>
</mask>
<path fill-rule="evenodd" clip-rule="evenodd" d="M15 23H17H19H21H23V25H25V27H27V29H29V31H31V33V35V37H29H27H25H23H21H19H17H15H13H11H9H7H5H3H1V35V33V31H3V29H5V27H7V25H9V23H11H13H15Z" fill="white"/>
<path d="M23 23H24V22H23V23ZM23 25H22V26H23V25ZM25 25H26V24H25V25ZM25 27H24V28H25V27ZM27 27H28V26H27V27ZM27 29H26V30H27V29ZM29 29H30V28H29V29ZM29 31H28V32H29V31ZM31 31H32V30H31V31ZM31 37V38H32V37H31ZM1 37H0V38H1V37ZM1 31V30H0V31H1ZM3 31V32H4V31H3ZM3 29V28H2V29H3ZM5 29V30H6V29H5ZM5 27V26H4V27H5ZM7 27V28H8V27H7ZM7 25V24H6V25H7ZM9 25V26H10V25H9ZM9 23V22H8V23H9ZM17 22H15V24H17V22ZM19 22H17V24H19V22ZM21 22H19V24H21V22ZM23 22H21V24H23V22ZM24 25V23H22V25H24ZM25 24H23V26H25V24ZM26 27V25H24V27H26ZM27 26H25V28H27V26ZM28 29V27H26V29H28ZM29 28H27V30H29V28ZM30 31V29H28V31H30ZM31 30H29V32H31V30ZM32 33V31H30V33H32ZM30 33V35H32V33H30ZM32 37V35H30V37H32ZM29 38H31V36H29V38ZM27 38H29V36H27V38ZM25 38H27V36H25V38ZM23 38H25V36H23V38ZM21 38H23V36H21V38ZM19 38H21V36H19V38ZM17 38H19V36H17V38ZM15 38H17V36H15V38ZM13 38H15V36H13V38ZM11 38H13V36H11V38ZM9 38H11V36H9V38ZM7 38H9V36H7V38ZM5 38H7V36H5V38ZM3 38H5V36H3V38ZM1 38H3V36H1V38ZM0 35V37H2V35H0ZM0 33V35H2V33H0ZM0 31V33H2V31H0ZM3 30H1V32H3V30ZM2 29V31H4V29H2ZM5 28H3V30H5V28ZM4 27V29H6V27H4ZM7 26H5V28H7V26ZM6 25V27H8V25H6ZM9 24H7V26H9V24ZM8 23V25H10V23H8ZM11 22H9V24H11V22ZM13 22H11V24H13V22ZM15 22H13V24H15V22Z" fill="#797979" mask="url(#path-1-outside-1_892_214309)"/>
<mask id="path-3-outside-2_892_214309" maskUnits="userSpaceOnUse" x="6" y="0" width="20" height="20" fill="black">
<rect fill="white" x="6" width="20" height="20"/>
<path fill-rule="evenodd" clip-rule="evenodd" d="M15 1H17H19V3H21V5H23V7H25V9V11V13H23V15H21V17H19V19H17H15H13V17H11V15H9V13H7V11V9V7H9V5H11V3H13V1H15Z"/>
</mask>
<path fill-rule="evenodd" clip-rule="evenodd" d="M15 1H17H19V3H21V5H23V7H25V9V11V13H23V15H21V17H19V19H17H15H13V17H11V15H9V13H7V11V9V7H9V5H11V3H13V1H15Z" fill="white"/>
<path d="M19 1H20V0H19V1ZM19 3H18V4H19V3ZM21 3H22V2H21V3ZM21 5H20V6H21V5ZM23 5H24V4H23V5ZM23 7H22V8H23V7ZM25 7H26V6H25V7ZM25 13V14H26V13H25ZM23 13V12H22V13H23ZM23 15V16H24V15H23ZM21 15V14H20V15H21ZM21 17V18H22V17H21ZM19 17V16H18V17H19ZM19 19V20H20V19H19ZM13 19H12V20H13V19ZM13 17H14V16H13V17ZM11 17H10V18H11V17ZM11 15H12V14H11V15ZM9 15H8V16H9V15ZM9 13H10V12H9V13ZM7 13H6V14H7V13ZM7 7V6H6V7H7ZM9 7V8H10V7H9ZM9 5V4H8V5H9ZM11 5V6H12V5H11ZM11 3V2H10V3H11ZM13 3V4H14V3H13ZM13 1V0H12V1H13ZM17 0H15V2H17V0ZM19 0H17V2H19V0ZM20 3V1H18V3H20ZM21 2H19V4H21V2ZM22 5V3H20V5H22ZM23 4H21V6H23V4ZM24 7V5H22V7H24ZM25 6H23V8H25V6ZM26 9V7H24V9H26ZM26 11V9H24V11H26ZM26 13V11H24V13H26ZM23 14H25V12H23V14ZM22 13V15H24V13H22ZM23 14H21V16H23V14ZM22 17V15H20V17H22ZM19 18H21V16H19V18ZM20 19V17H18V19H20ZM17 20H19V18H17V20ZM15 20H17V18H15V20ZM13 20H15V18H13V20ZM12 17V19H14V17H12ZM11 18H13V16H11V18ZM10 15V17H12V15H10ZM9 16H11V14H9V16ZM8 13V15H10V13H8ZM7 14H9V12H7V14ZM6 11V13H8V11H6ZM6 9V11H8V9H6ZM6 7V9H8V7H6ZM9 6H7V8H9V6ZM8 5V7H10V5H8ZM11 4H9V6H11V4ZM10 3V5H12V3H10ZM13 2H11V4H13V2ZM12 1V3H14V1H12ZM15 0H13V2H15V0Z" fill="#797979" mask="url(#path-3-outside-2_892_214309)"/>
</svg>
