<svg width="56" height="56" viewBox="0 0 56 56" fill="none" xmlns="http://www.w3.org/2000/svg">
<g clip-path="url(#clip0_399_33304)">
<rect width="56" height="56" fill="#2C2C2C"/>
<path fill-rule="evenodd" clip-rule="evenodd" d="M4 0H2.38419e-06L0 52H4L4 4H52V0H4Z" fill="#F0F0F0"/>
<path fill-rule="evenodd" clip-rule="evenodd" d="M56 52L56 0H52L52 52H0V56H56L56 52Z" fill="black"/>
<mask id="path-3-inside-1_399_33304" fill="white">
<path fill-rule="evenodd" clip-rule="evenodd" d="M18 16H16H14H12H10V18H8V20V22V24V26V28V30V32V34V36V38H10V40H12H14H16H18H20H22H24H26H28H30V38H32V36V34V32V30V28V26V24V22V20V18H30V16H28H26H24H22H20H18Z"/>
</mask>
<path fill-rule="evenodd" clip-rule="evenodd" d="M18 16H16H14H12H10V18H8V20V22V24V26V28V30V32V34V36V38H10V40H12H14H16H18H20H22H24H26H28H30V38H32V36V34V32V30V28V26V24V22V20V18H30V16H28H26H24H22H20H18Z" fill="white"/>
<path d="M10 16V15H9V16H10ZM10 18V19H11V18H10ZM8 18V17H7V18H8ZM8 38H7V39H8V38ZM10 38H11V37H10V38ZM10 40H9V41H10V40ZM30 40V41H31V40H30ZM30 38V37H29V38H30ZM32 38V39H33V38H32ZM32 18H33V17H32V18ZM30 18H29V19H30V18ZM30 16H31V15H30V16ZM16 17H18V15H16V17ZM14 17H16V15H14V17ZM12 17H14V15H12V17ZM10 17H12V15H10V17ZM11 18V16H9V18H11ZM8 19H10V17H8V19ZM9 20V18H7V20H9ZM9 22V20H7V22H9ZM9 24V22H7V24H9ZM9 26V24H7V26H9ZM9 28V26H7V28H9ZM9 30V28H7V30H9ZM9 32V30H7V32H9ZM9 34V32H7V34H9ZM9 36V34H7V36H9ZM9 38V36H7V38H9ZM10 37H8V39H10V37ZM11 40V38H9V40H11ZM12 39H10V41H12V39ZM14 39H12V41H14V39ZM16 39H14V41H16V39ZM18 39H16V41H18V39ZM20 39H18V41H20V39ZM22 39H20V41H22V39ZM24 39H22V41H24V39ZM26 39H24V41H26V39ZM28 39H26V41H28V39ZM30 39H28V41H30V39ZM29 38V40H31V38H29ZM32 37H30V39H32V37ZM31 36V38H33V36H31ZM31 34V36H33V34H31ZM31 32V34H33V32H31ZM31 30V32H33V30H31ZM31 28V30H33V28H31ZM31 26V28H33V26H31ZM31 24V26H33V24H31ZM31 22V24H33V22H31ZM31 20V22H33V20H31ZM31 18V20H33V18H31ZM30 19H32V17H30V19ZM29 16V18H31V16H29ZM28 17H30V15H28V17ZM26 17H28V15H26V17ZM24 17H26V15H24V17ZM22 17H24V15H22V17ZM20 17H22V15H20V17ZM18 17H20V15H18V17Z" fill="#797979" mask="url(#path-3-inside-1_399_33304)"/>
<mask id="path-5-inside-2_399_33304" fill="white">
<path fill-rule="evenodd" clip-rule="evenodd" d="M44 18H42V20H40H38V22H36H34V24V26V28V30V32V34H36H38V36H40H42V38H44H46H48V36V34V32V30V28V26V24V22V20V18H46H44Z"/>
</mask>
<path fill-rule="evenodd" clip-rule="evenodd" d="M44 18H42V20H40H38V22H36H34V24V26V28V30V32V34H36H38V36H40H42V38H44H46H48V36V34V32V30V28V26V24V22V20V18H46H44Z" fill="white"/>
<path d="M42 18V17H41V18H42ZM42 20V21H43V20H42ZM38 20V19H37V20H38ZM38 22V23H39V22H38ZM34 22V21H33V22H34ZM34 34H33V35H34V34ZM38 34H39V33H38V34ZM38 36H37V37H38V36ZM42 36H43V35H42V36ZM42 38H41V39H42V38ZM48 38V39H49V38H48ZM48 18H49V17H48V18ZM42 19H44V17H42V19ZM43 20V18H41V20H43ZM40 21H42V19H40V21ZM38 21H40V19H38V21ZM39 22V20H37V22H39ZM36 23H38V21H36V23ZM34 23H36V21H34V23ZM35 24V22H33V24H35ZM35 26V24H33V26H35ZM35 28V26H33V28H35ZM35 30V28H33V30H35ZM35 32V30H33V32H35ZM35 34V32H33V34H35ZM36 33H34V35H36V33ZM38 33H36V35H38V33ZM39 36V34H37V36H39ZM40 35H38V37H40V35ZM42 35H40V37H42V35ZM43 38V36H41V38H43ZM44 37H42V39H44V37ZM46 37H44V39H46V37ZM48 37H46V39H48V37ZM47 36V38H49V36H47ZM47 34V36H49V34H47ZM47 32V34H49V32H47ZM47 30V32H49V30H47ZM47 28V30H49V28H47ZM47 26V28H49V26H47ZM47 24V26H49V24H47ZM47 22V24H49V22H47ZM47 20V22H49V20H47ZM47 18V20H49V18H47ZM46 19H48V17H46V19ZM44 19H46V17H44V19Z" fill="#797979" mask="url(#path-5-inside-2_399_33304)"/>
</g>
<defs>
<clipPath id="clip0_399_33304">
<rect width="56" height="56" fill="white"/>
</clipPath>
</defs>
</svg>
