<svg width="26" height="32" viewBox="0 0 26 32" fill="none" xmlns="http://www.w3.org/2000/svg">
<path d="M6 0H8V2H6V0Z" fill="#BBBBBB"/>
<path d="M8 4H10V6H8V4Z" fill="#BBBBBB"/>
<path d="M0 0H2V2H0V0Z" fill="#BBBBBB"/>
<path d="M16 16H18V18H16V16Z" fill="#BBBBBB"/>
<path d="M18 18H20V20H18V18Z" fill="#BBBBBB"/>
<path d="M18 26H20V28H18V26Z" fill="#BBBBBB"/>
<path d="M6 26H8V28H6V26Z" fill="#BBBBBB"/>
<path d="M6 18H8V20H6V18Z" fill="#BBBBBB"/>
<path d="M16 28H18V30H16V28Z" fill="#BBBBBB"/>
<path d="M8 28H10V30H8V28Z" fill="#BBBBBB"/>
<path d="M10 30H16V32H10V30Z" fill="#BBBBBB"/>
<path d="M20 20H22V26H20V20Z" fill="#BBBBBB"/>
<path d="M4 20H6V26H4V20Z" fill="#BBBBBB"/>
<path d="M6 20H20V26H6V20Z" fill="#F1F0F6"/>
<path d="M8 18H18V20H8V18Z" fill="#F1F0F6"/>
<path d="M8 26H18V28H8V26Z" fill="#F1F0F6"/>
<path d="M10 28H16V30H10V28Z" fill="#F1F0F6"/>
<path d="M10 16H16V18H10V16Z" fill="#F1F0F6"/>
<path d="M8 12H10V14H8V12Z" fill="#402F5C"/>
<path d="M16 12H18V14H16V12Z" fill="#795BAB"/>
<path d="M6 10H10V12H6V10Z" fill="#402F5C"/>
<path d="M16 10H20V12H16V10Z" fill="#795BAB"/>
<path d="M6 8H10V10H6V8Z" fill="#402F5C"/>
<path d="M16 8H20V10H16V8Z" fill="#795BAB"/>
<path d="M4 4H8V8H4V4Z" fill="#402F5C"/>
<path d="M10 10H16V14H10V10Z" fill="#795BAB"/>
<path d="M18 4H22V8H18V4Z" fill="#795BAB"/>
<path d="M2 0H6V4H2V0Z" fill="#402F5C"/>
<path d="M20 0H24V4H20V0Z" fill="#795BAB"/>
<path d="M2 4H4V6H2V4Z" fill="#BBBBBB"/>
<path d="M8 16H10V18H8V16Z" fill="#BBBBBB"/>
<path d="M10 16H12V18H10V16Z" fill="white"/>
<path d="M10 22H12V24H10V22Z" fill="white"/>
<path d="M12 24H14V26H12V24Z" fill="white"/>
<path d="M8 14H18V16H8V14Z" fill="#BBBBBB"/>
<path d="M6 2H8V4H6V2Z" fill="#BBBBBB"/>
<path d="M8 4H10V8H8V4Z" fill="#BBBBBB"/>
<path d="M10 8H12V10H10V8Z" fill="#BBBBBB"/>
<path d="M14 8H16V10H14V8Z" fill="#BBBBBB"/>
<path d="M18 12H20V16H18V12Z" fill="#BBBBBB"/>
<path d="M6 12H8V16H6V12Z" fill="#BBBBBB"/>
<path d="M16 4H18V8H16V4Z" fill="#BBBBBB"/>
<path d="M20 8H22V12H20V8Z" fill="#BBBBBB"/>
<path d="M18 0H20V4H18V0Z" fill="#BBBBBB"/>
<path d="M22 4H24V8H22V4Z" fill="#BBBBBB"/>
<path d="M24 0H26V4H24V0Z" fill="#BBBBBB"/>
<path d="M4 8H6V12H4V8Z" fill="#BBBBBB"/>
<path d="M0 2H2V4H0V2Z" fill="#BBBBBB"/>
<path d="M2 6H4V8H2V6Z" fill="#BBBBBB"/>
<path d="M8 20H10V26H8V20Z" fill="#BDB9D2"/>
<path d="M12 20H16V24H12V20Z" fill="white"/>
<path d="M16 20H18V26H16V20Z" fill="#BDB9D2"/>
<path d="M10 26H16V28H10V26Z" fill="#BDB9D2"/>
<path d="M10 18H16V20H10V18Z" fill="#BDB9D2"/>
<path d="M14 20H16V22H14V20Z" fill="#F1F0F6"/>
</svg>
