<svg width="36" height="28" viewBox="0 0 36 28" fill="none" xmlns="http://www.w3.org/2000/svg">
<rect x="4.90918" y="2.72656" width="2.18182" height="2.18182" fill="#212122"/>
<rect x="4.90918" y="0.546875" width="2.18182" height="2.18182" fill="#212122"/>
<rect x="7.09082" y="0.546875" width="2.18182" height="2.18182" fill="#212122"/>
<rect x="4.90918" y="4.91016" width="2.18182" height="2.18182" fill="#212122"/>
<rect x="4.90918" y="7.08984" width="2.18182" height="2.18182" fill="#212122"/>
<rect x="7.09082" y="7.08984" width="2.18182" height="2.18182" fill="white"/>
<rect x="7.09082" y="4.91016" width="2.18182" height="2.18182" fill="white"/>
<rect x="7.09082" y="2.72656" width="2.18182" height="2.18182" fill="white"/>
<rect x="2.72729" y="9.27344" width="2.18182" height="2.18182" fill="#212122"/>
<rect x="4.90918" y="9.27344" width="2.18182" height="2.18182" fill="white"/>
<rect x="7.09082" y="9.27344" width="2.18182" height="2.18182" fill="white"/>
<rect x="13.6365" y="9.27344" width="2.18182" height="2.18182" fill="white"/>
<rect x="13.6365" y="7.08984" width="2.18182" height="2.18182" fill="white"/>
<rect x="9.27271" y="9.27344" width="2.18182" height="2.18182" fill="white"/>
<rect x="9.27271" y="7.08984" width="2.18182" height="2.18182" fill="white"/>
<rect x="9.27271" y="4.91016" width="2.18182" height="2.18182" fill="white"/>
<rect x="15.8181" y="9.27344" width="2.18182" height="2.18182" fill="white"/>
<rect x="15.8181" y="7.08984" width="2.18182" height="2.18182" fill="white"/>
<rect x="11.4546" y="9.27344" width="2.18182" height="2.18182" fill="white"/>
<rect x="11.4546" y="7.08984" width="2.18182" height="2.18182" fill="white"/>
<rect x="18" y="9.27344" width="2.18182" height="2.18182" fill="white"/>
<rect x="18" y="7.08984" width="2.18182" height="2.18182" fill="white"/>
<rect x="22.3635" y="9.27344" width="2.18182" height="2.18182" fill="white"/>
<rect x="22.3635" y="7.08984" width="2.18182" height="2.18182" fill="white"/>
<rect x="20.1819" y="9.27344" width="2.18182" height="2.18182" fill="white"/>
<rect x="20.1819" y="7.08984" width="2.18182" height="2.18182" fill="white"/>
<rect x="24.5454" y="9.27344" width="2.18182" height="2.18182" fill="white"/>
<rect x="24.5454" y="7.08984" width="2.18182" height="2.18182" fill="white"/>
<rect x="24.5454" y="4.91016" width="2.18182" height="2.18182" fill="white"/>
<rect x="26.7273" y="9.27344" width="2.18182" height="2.18182" fill="white"/>
<rect x="26.7273" y="7.08984" width="2.18182" height="2.18182" fill="white"/>
<rect x="26.7273" y="4.91016" width="2.18182" height="2.18182" fill="white"/>
<rect x="26.7273" y="2.72656" width="2.18182" height="2.18182" fill="white"/>
<rect x="28.9092" y="9.27344" width="2.18182" height="2.18182" fill="white"/>
<rect x="11.4546" y="13.6367" width="2.18182" height="2.18182" fill="white"/>
<rect x="9.27271" y="13.6367" width="2.18182" height="2.18182" fill="white"/>
<rect x="24.5454" y="13.6367" width="2.18182" height="2.18182" fill="white"/>
<rect x="22.3635" y="13.6367" width="2.18182" height="2.18182" fill="white"/>
<rect x="11.4546" y="15.8203" width="2.18182" height="2.18182" fill="#D7D7D7"/>
<rect x="9.27271" y="15.8203" width="2.18182" height="2.18182" fill="#D7D7D7"/>
<rect x="24.5454" y="15.8203" width="2.18182" height="2.18182" fill="#D7D7D7"/>
<rect x="22.3635" y="15.8203" width="2.18182" height="2.18182" fill="#D7D7D7"/>
<rect x="2.72729" y="11.457" width="2.18182" height="2.18182" fill="#212122"/>
<rect x="4.90918" y="11.457" width="2.18182" height="2.18182" fill="white"/>
<rect x="7.09082" y="11.457" width="2.18182" height="2.18182" fill="white"/>
<rect x="13.6365" y="11.457" width="2.18182" height="2.18182" fill="white"/>
<rect x="9.27271" y="11.457" width="2.18182" height="2.18182" fill="white"/>
<rect x="15.8181" y="11.457" width="2.18182" height="2.18182" fill="white"/>
<rect x="11.4546" y="11.457" width="2.18182" height="2.18182" fill="white"/>
<rect x="18" y="11.457" width="2.18182" height="2.18182" fill="white"/>
<rect x="22.3635" y="11.457" width="2.18182" height="2.18182" fill="white"/>
<rect x="20.1819" y="11.457" width="2.18182" height="2.18182" fill="white"/>
<rect x="24.5454" y="11.457" width="2.18182" height="2.18182" fill="white"/>
<rect x="26.7273" y="11.457" width="2.18182" height="2.18182" fill="white"/>
<rect x="28.9092" y="11.457" width="2.18182" height="2.18182" fill="white"/>
<rect x="2.72729" y="13.6367" width="2.18182" height="2.18182" fill="#212122"/>
<rect x="4.90918" y="13.6367" width="2.18182" height="2.18182" fill="white"/>
<rect x="7.09082" y="13.6367" width="2.18182" height="2.18182" fill="white"/>
<rect x="13.6365" y="13.6367" width="2.18182" height="2.18182" fill="white"/>
<rect x="15.8181" y="13.6367" width="2.18182" height="2.18182" fill="white"/>
<rect x="18" y="13.6367" width="2.18182" height="2.18182" fill="white"/>
<rect x="20.1819" y="13.6367" width="2.18182" height="2.18182" fill="white"/>
<rect x="26.7273" y="13.6367" width="2.18182" height="2.18182" fill="white"/>
<rect x="28.9092" y="13.6367" width="2.18182" height="2.18182" fill="white"/>
<rect x="2.72729" y="18" width="2.18182" height="2.18182" fill="#212122"/>
<rect x="4.90918" y="18" width="2.18182" height="2.18182" fill="#D7D7D7"/>
<rect x="7.09082" y="18" width="2.18182" height="2.18182" fill="#D7D7D7"/>
<rect x="7.09082" y="20.1836" width="2.18182" height="2.18182" fill="#D7D7D7"/>
<rect x="9.27271" y="22.3633" width="2.18182" height="2.18182" fill="#D7D7D7"/>
<rect x="7.09082" y="22.3633" width="2.18182" height="2.18182" fill="#D7D7D7"/>
<rect x="9.27271" y="18" width="2.18182" height="2.18182" fill="#D7D7D7"/>
<rect x="9.27271" y="20.1836" width="2.18182" height="2.18182" fill="#D7D7D7"/>
<rect x="11.4546" y="18" width="2.18182" height="2.18182" fill="#D7D7D7"/>
<rect x="11.4546" y="20.1836" width="2.18182" height="2.18182" fill="#D7D7D7"/>
<rect x="13.6365" y="18" width="2.18182" height="2.18182" fill="#D7D7D7"/>
<rect x="13.6365" y="20.1836" width="2.18182" height="2.18182" fill="#D7D7D7"/>
<rect x="15.8181" y="18" width="2.18182" height="2.18182" fill="#D7D7D7"/>
<rect x="15.8181" y="20.1836" width="2.18182" height="2.18182" fill="#D7D7D7"/>
<rect x="18" y="18" width="2.18182" height="2.18182" fill="#D7D7D7"/>
<rect x="18" y="20.1836" width="2.18182" height="2.18182" fill="#D7D7D7"/>
<rect x="20.1819" y="18" width="2.18182" height="2.18182" fill="#D7D7D7"/>
<rect x="20.1819" y="20.1836" width="2.18182" height="2.18182" fill="#D7D7D7"/>
<rect x="22.3635" y="18" width="2.18182" height="2.18182" fill="#D7D7D7"/>
<rect x="22.3635" y="20.1836" width="2.18182" height="2.18182" fill="#D7D7D7"/>
<rect x="24.5454" y="18" width="2.18182" height="2.18182" fill="#D7D7D7"/>
<rect x="24.5454" y="20.1836" width="2.18182" height="2.18182" fill="#D7D7D7"/>
<rect x="26.7273" y="18" width="2.18182" height="2.18182" fill="#D7D7D7"/>
<rect x="26.7273" y="20.1836" width="2.18182" height="2.18182" fill="#D7D7D7"/>
<rect x="24.5454" y="22.3633" width="2.18182" height="2.18182" fill="#D7D7D7"/>
<rect x="26.7273" y="22.3633" width="2.18182" height="2.18182" fill="#D7D7D7"/>
<rect x="28.9092" y="18" width="2.18182" height="2.18182" fill="#D7D7D7"/>
<rect x="4.90918" y="20.1836" width="2.18182" height="2.18182" fill="#212122"/>
<rect x="2.72729" y="15.8203" width="2.18182" height="2.18182" fill="#212122"/>
<rect x="4.90918" y="15.8203" width="2.18182" height="2.18182" fill="#D7D7D7"/>
<rect x="7.09082" y="15.8203" width="2.18182" height="2.18182" fill="#D7D7D7"/>
<rect x="13.6365" y="15.8203" width="2.18182" height="2.18182" fill="#D7D7D7"/>
<rect x="15.8181" y="15.8203" width="2.18182" height="2.18182" fill="#D7D7D7"/>
<rect x="18" y="15.8203" width="2.18182" height="2.18182" fill="#D7D7D7"/>
<rect x="20.1819" y="15.8203" width="2.18182" height="2.18182" fill="#D7D7D7"/>
<rect x="26.7273" y="15.8203" width="2.18182" height="2.18182" fill="#D7D7D7"/>
<rect x="28.9092" y="15.8203" width="2.18182" height="2.18182" fill="#D7D7D7"/>
<rect x="0.54541" y="13.6367" width="2.18182" height="2.18182" fill="#212122"/>
<rect x="0.54541" y="18" width="2.18182" height="2.18182" fill="#212122"/>
<rect x="13.6365" y="4.91016" width="2.18182" height="2.18182" fill="#212122"/>
<rect x="13.6365" y="24.5469" width="2.18182" height="2.18182" fill="#212122"/>
<rect x="13.6365" y="22.3633" width="2.18182" height="2.18182" fill="#D7D7D7"/>
<rect x="11.4546" y="4.91016" width="2.18182" height="2.18182" fill="#212122"/>
<rect x="11.4546" y="24.5469" width="2.18182" height="2.18182" fill="#212122"/>
<rect x="11.4546" y="22.3633" width="2.18182" height="2.18182" fill="#D7D7D7"/>
<rect x="9.27271" y="24.5469" width="2.18182" height="2.18182" fill="#212122"/>
<rect x="4.90918" y="22.3633" width="2.18182" height="2.18182" fill="#212122"/>
<rect x="7.09082" y="24.5469" width="2.18182" height="2.18182" fill="#212122"/>
<rect x="18" y="4.91016" width="2.18182" height="2.18182" fill="#212122"/>
<rect x="18" y="24.5469" width="2.18182" height="2.18182" fill="#212122"/>
<rect x="18" y="22.3633" width="2.18182" height="2.18182" fill="#D7D7D7"/>
<rect x="9.27271" y="2.72656" width="2.18182" height="2.18182" fill="#212122"/>
<rect x="15.8181" y="4.91016" width="2.18182" height="2.18182" fill="#212122"/>
<rect x="15.8181" y="24.5469" width="2.18182" height="2.18182" fill="#212122"/>
<rect x="15.8181" y="22.3633" width="2.18182" height="2.18182" fill="#D7D7D7"/>
<rect x="20.1819" y="4.91016" width="2.18182" height="2.18182" fill="#212122"/>
<rect x="20.1819" y="24.5469" width="2.18182" height="2.18182" fill="#212122"/>
<rect x="20.1819" y="22.3633" width="2.18182" height="2.18182" fill="#D7D7D7"/>
<rect x="24.5454" y="2.72656" width="2.18182" height="2.18182" fill="#212122"/>
<rect x="22.3635" y="4.91016" width="2.18182" height="2.18182" fill="#212122"/>
<rect x="22.3635" y="24.5469" width="2.18182" height="2.18182" fill="#212122"/>
<rect x="22.3635" y="22.3633" width="2.18182" height="2.18182" fill="#D7D7D7"/>
<rect x="24.5454" y="24.5469" width="2.18182" height="2.18182" fill="#212122"/>
<rect x="26.7273" y="24.5469" width="2.18182" height="2.18182" fill="#212122"/>
<rect x="28.9092" y="22.3633" width="2.18182" height="2.18182" fill="#212122"/>
<rect x="26.7273" y="0.546875" width="2.18182" height="2.18182" fill="#212122"/>
<rect x="28.9092" y="4.91016" width="2.18182" height="2.18182" fill="#212122"/>
<rect x="28.9092" y="7.08984" width="2.18182" height="2.18182" fill="#212122"/>
<rect x="31.0908" y="9.27344" width="2.18182" height="2.18182" fill="#212122"/>
<rect x="31.0908" y="11.457" width="2.18182" height="2.18182" fill="#212122"/>
<rect x="31.0908" y="13.6367" width="2.18182" height="2.18182" fill="#212122"/>
<rect x="31.0908" y="18" width="2.18182" height="2.18182" fill="#212122"/>
<rect x="28.9092" y="20.1836" width="2.18182" height="2.18182" fill="#212122"/>
<rect x="31.0908" y="15.8203" width="2.18182" height="2.18182" fill="#212122"/>
<rect x="33.2727" y="13.6367" width="2.18182" height="2.18182" fill="#212122"/>
<rect x="33.2727" y="18" width="2.18182" height="2.18182" fill="#212122"/>
<rect x="28.9092" y="2.72656" width="2.18182" height="2.18182" fill="#212122"/>
<rect x="31.0908" y="0.546875" width="0.545455" height="8.72727" fill="black"/>
<rect x="4.36377" y="0.546875" width="0.545455" height="8.72727" fill="black"/>
<rect x="26.7273" y="0.546875" width="0.545454" height="4.90909" transform="rotate(-90 26.7273 0.546875)" fill="black"/>
<rect x="4.36377" y="0.546875" width="0.545454" height="4.90909" transform="rotate(-90 4.36377 0.546875)" fill="black"/>
<rect x="11.4546" y="4.91016" width="0.545454" height="13.0909" transform="rotate(-90 11.4546 4.91016)" fill="black"/>
<rect x="24.5454" y="2.72656" width="0.545454" height="2.18182" transform="rotate(-90 24.5454 2.72656)" fill="black"/>
<rect x="9.27271" y="2.72656" width="0.545454" height="2.18182" transform="rotate(-90 9.27271 2.72656)" fill="black"/>
<rect x="31.6365" y="9.27344" width="0.545454" height="2.18182" transform="rotate(-90 31.6365 9.27344)" fill="black"/>
<rect x="2.18164" y="9.27344" width="0.545454" height="2.18182" transform="rotate(-90 2.18164 9.27344)" fill="black"/>
<rect x="33.8181" y="13.6367" width="0.545454" height="2.18182" transform="rotate(-90 33.8181 13.6367)" fill="black"/>
<rect y="13.6367" width="0.545454" height="2.18182" transform="rotate(-90 0 13.6367)" fill="black"/>
<rect x="33.2727" y="16.3633" width="0.545454" height="2.18182" transform="rotate(-90 33.2727 16.3633)" fill="black"/>
<rect x="0.54541" y="16.3633" width="0.545454" height="2.18182" transform="rotate(-90 0.54541 16.3633)" fill="black"/>
<rect x="33.2727" y="18" width="0.545454" height="2.18182" transform="rotate(-90 33.2727 18)" fill="black"/>
<rect x="0.54541" y="18" width="0.545454" height="2.18182" transform="rotate(-90 0.54541 18)" fill="black"/>
<rect x="31.0908" y="20.7266" width="0.545454" height="4.36364" transform="rotate(-90 31.0908 20.7266)" fill="black"/>
<rect x="0.54541" y="20.7266" width="0.545454" height="4.36364" transform="rotate(-90 0.54541 20.7266)" fill="black"/>
<rect x="7.09082" y="27.2734" width="0.545454" height="21.8182" transform="rotate(-90 7.09082 27.2734)" fill="black"/>
<rect x="28.9092" y="25.0898" width="0.545454" height="2.72727" transform="rotate(-90 28.9092 25.0898)" fill="black"/>
<rect x="4.36377" y="25.0898" width="0.545454" height="2.72727" transform="rotate(-90 4.36377 25.0898)" fill="black"/>
<rect x="24" y="2.18359" width="0.545454" height="2.18182" fill="black"/>
<rect x="11.4546" y="2.18359" width="0.545454" height="2.18182" fill="black"/>
<rect x="33.2727" y="9.27344" width="0.545455" height="4.36364" fill="black"/>
<rect x="33.2727" y="15.8203" width="0.545455" height="2.18182" fill="black"/>
<rect x="2.18164" y="15.8203" width="0.545455" height="2.18182" fill="black"/>
<rect x="2.18164" y="9.27344" width="0.545455" height="4.36364" fill="black"/>
<rect x="35.4546" y="13.6367" width="0.545455" height="2.72727" fill="black"/>
<rect y="13.6367" width="0.545455" height="2.72727" fill="black"/>
<rect x="35.4546" y="17.457" width="0.545455" height="3.27273" fill="black"/>
<rect y="17.457" width="0.545455" height="3.27273" fill="black"/>
<rect x="31.0908" y="20.7266" width="0.545455" height="3.81818" fill="black"/>
<rect x="4.36377" y="20.7266" width="0.545455" height="3.81818" fill="black"/>
<rect x="28.9092" y="25.0898" width="0.545455" height="2.18182" fill="black"/>
<rect x="6.54541" y="24.5469" width="0.545455" height="2.72727" fill="black"/>
<rect x="26.1816" width="0.545454" height="2.18182" fill="black"/>
<rect x="9.27271" width="0.545454" height="2.18182" fill="black"/>
<rect x="28.9092" y="0.546875" width="2.18182" height="2.18182" fill="#212122"/>
</svg>
