<svg width="26" height="28" viewBox="0 0 26 28" fill="none" xmlns="http://www.w3.org/2000/svg">
<mask id="path-1-outside-1_672_185686" maskUnits="userSpaceOnUse" x="0" y="0" width="26" height="28" fill="black">
<rect fill="white" width="26" height="28"/>
<path fill-rule="evenodd" clip-rule="evenodd" d="M8.5 1H17.5V2.5H19V5.5H20.5V8.5H23.5V10H25V25H23.5V26.5H2.5V25H1V10H2.5V8.5H5.5V5.5H7V2.5H8.5V1ZM8.5 8.5H17.5V5.5H16V4H10V5.5H8.5V8.5ZM11.5 14.5H14.5V20.5H11.5V14.5Z"/>
</mask>
<path fill-rule="evenodd" clip-rule="evenodd" d="M8.5 1H17.5V2.5H19V5.5H20.5V8.5H23.5V10H25V25H23.5V26.5H2.5V25H1V10H2.5V8.5H5.5V5.5H7V2.5H8.5V1ZM8.5 8.5H17.5V5.5H16V4H10V5.5H8.5V8.5ZM11.5 14.5H14.5V20.5H11.5V14.5Z" fill="#D9D9D9"/>
<path d="M17.5 1H18.5V0H17.5V1ZM8.5 1V0H7.5V1H8.5ZM17.5 2.5H16.5V3.5H17.5V2.5ZM19 2.5H20V1.5H19V2.5ZM19 5.5H18V6.5H19V5.5ZM20.5 5.5H21.5V4.5H20.5V5.5ZM20.5 8.5H19.5V9.5H20.5V8.5ZM23.5 8.5H24.5V7.5H23.5V8.5ZM23.5 10H22.5V11H23.5V10ZM25 10H26V9H25V10ZM25 25V26H26V25H25ZM23.5 25V24H22.5V25H23.5ZM23.5 26.5V27.5H24.5V26.5H23.5ZM2.5 26.5H1.5V27.5H2.5V26.5ZM2.5 25H3.5V24H2.5V25ZM1 25H0V26H1V25ZM1 10V9H0V10H1ZM2.5 10V11H3.5V10H2.5ZM2.5 8.5V7.5H1.5V8.5H2.5ZM5.5 8.5V9.5H6.5V8.5H5.5ZM5.5 5.5V4.5H4.5V5.5H5.5ZM7 5.5V6.5H8V5.5H7ZM7 2.5V1.5H6V2.5H7ZM8.5 2.5V3.5H9.5V2.5H8.5ZM8.5 8.5H7.5V9.5H8.5V8.5ZM17.5 8.5V9.5H18.5V8.5H17.5ZM17.5 5.5H18.5V4.5H17.5V5.5ZM16 5.5H15V6.5H16V5.5ZM16 4H17V3H16V4ZM10 4V3H9V4H10ZM10 5.5V6.5H11V5.5H10ZM8.5 5.5V4.5H7.5V5.5H8.5ZM14.5 14.5H15.5V13.5H14.5V14.5ZM11.5 14.5V13.5H10.5V14.5H11.5ZM14.5 20.5V21.5H15.5V20.5H14.5ZM11.5 20.5H10.5V21.5H11.5V20.5ZM17.5 0H8.5V2H17.5V0ZM18.5 2.5V1H16.5V2.5H18.5ZM19 1.5H17.5V3.5H19V1.5ZM20 5.5V2.5H18V5.5H20ZM20.5 4.5H19V6.5H20.5V4.5ZM21.5 8.5V5.5H19.5V8.5H21.5ZM20.5 9.5H23.5V7.5H20.5V9.5ZM22.5 8.5V10H24.5V8.5H22.5ZM23.5 11H25V9H23.5V11ZM24 10V25H26V10H24ZM25 24H23.5V26H25V24ZM22.5 25V26.5H24.5V25H22.5ZM23.5 25.5H2.5V27.5H23.5V25.5ZM3.5 26.5V25H1.5V26.5H3.5ZM2.5 24H1V26H2.5V24ZM2 25V10H0V25H2ZM1 11H2.5V9H1V11ZM3.5 10V8.5H1.5V10H3.5ZM2.5 9.5H5.5V7.5H2.5V9.5ZM4.5 5.5V8.5H6.5V5.5H4.5ZM7 4.5H5.5V6.5H7V4.5ZM6 2.5V5.5H8V2.5H6ZM8.5 1.5H7V3.5H8.5V1.5ZM7.5 1V2.5H9.5V1H7.5ZM8.5 9.5H17.5V7.5H8.5V9.5ZM16.5 5.5V8.5H18.5V5.5H16.5ZM16 6.5H17.5V4.5H16V6.5ZM15 4V5.5H17V4H15ZM10 5H16V3H10V5ZM11 5.5V4H9V5.5H11ZM8.5 6.5H10V4.5H8.5V6.5ZM9.5 8.5V5.5H7.5V8.5H9.5ZM14.5 13.5H11.5V15.5H14.5V13.5ZM15.5 20.5V14.5H13.5V20.5H15.5ZM11.5 21.5H14.5V19.5H11.5V21.5ZM10.5 14.5V20.5H12.5V14.5H10.5Z" fill="#797979" mask="url(#path-1-outside-1_672_185686)"/>
</svg>
