<svg width="30" height="32" viewBox="0 0 30 32" fill="none" xmlns="http://www.w3.org/2000/svg">
<mask id="path-1-outside-1_892_214454" maskUnits="userSpaceOnUse" x="0" y="0" width="30" height="32" fill="black">
<rect fill="white" width="30" height="32"/>
<path fill-rule="evenodd" clip-rule="evenodd" d="M13 1H15H17V3H19V5H21V7H23V9H25V11H27V13H29V15H27V17V19V21V23V25V27V29V31H25H23H21H19V29V27V25V23H17H15H13H11V25V27V29V31H9H7H5H3V29V27V25V23V21V19V17V15H1V13H3V11H5V9H7V7H9V5H11V3H13V1Z"/>
</mask>
<path fill-rule="evenodd" clip-rule="evenodd" d="M13 1H15H17V3H19V5H21V7H23V9H25V11H27V13H29V15H27V17V19V21V23V25V27V29V31H25H23H21H19V29V27V25V23H17H15H13H11V25V27V29V31H9H7H5H3V29V27V25V23V21V19V17V15H1V13H3V11H5V9H7V7H9V5H11V3H13V1Z" fill="white"/>
<path d="M13 1V0H12V1H13ZM17 1H18V0H17V1ZM17 3H16V4H17V3ZM19 3H20V2H19V3ZM19 5H18V6H19V5ZM21 5H22V4H21V5ZM21 7H20V8H21V7ZM23 7H24V6H23V7ZM23 9H22V10H23V9ZM25 9H26V8H25V9ZM25 11H24V12H25V11ZM27 11H28V10H27V11ZM27 13H26V14H27V13ZM29 13H30V12H29V13ZM29 15V16H30V15H29ZM27 15V14H26V15H27ZM27 31V32H28V31H27ZM19 31H18V32H19V31ZM19 23H20V22H19V23ZM11 23V22H10V23H11ZM11 31V32H12V31H11ZM3 31H2V32H3V31ZM3 15H4V14H3V15ZM1 15H0V16H1V15ZM1 13V12H0V13H1ZM3 13V14H4V13H3ZM3 11V10H2V11H3ZM5 11V12H6V11H5ZM5 9V8H4V9H5ZM7 9V10H8V9H7ZM7 7V6H6V7H7ZM9 7V8H10V7H9ZM9 5V4H8V5H9ZM11 5V6H12V5H11ZM11 3V2H10V3H11ZM13 3V4H14V3H13ZM15 0H13V2H15V0ZM17 0H15V2H17V0ZM18 3V1H16V3H18ZM19 2H17V4H19V2ZM20 5V3H18V5H20ZM21 4H19V6H21V4ZM22 7V5H20V7H22ZM23 6H21V8H23V6ZM24 9V7H22V9H24ZM25 8H23V10H25V8ZM26 11V9H24V11H26ZM27 10H25V12H27V10ZM28 13V11H26V13H28ZM27 14H29V12H27V14ZM28 13V15H30V13H28ZM29 14H27V16H29V14ZM28 17V15H26V17H28ZM28 19V17H26V19H28ZM28 21V19H26V21H28ZM28 23V21H26V23H28ZM28 25V23H26V25H28ZM28 27V25H26V27H28ZM28 29V27H26V29H28ZM28 31V29H26V31H28ZM25 32H27V30H25V32ZM23 32H25V30H23V32ZM21 32H23V30H21V32ZM19 32H21V30H19V32ZM18 29V31H20V29H18ZM18 27V29H20V27H18ZM18 25V27H20V25H18ZM18 23V25H20V23H18ZM17 24H19V22H17V24ZM15 24H17V22H15V24ZM13 24H15V22H13V24ZM11 24H13V22H11V24ZM12 25V23H10V25H12ZM12 27V25H10V27H12ZM12 29V27H10V29H12ZM12 31V29H10V31H12ZM9 32H11V30H9V32ZM7 32H9V30H7V32ZM5 32H7V30H5V32ZM3 32H5V30H3V32ZM2 29V31H4V29H2ZM2 27V29H4V27H2ZM2 25V27H4V25H2ZM2 23V25H4V23H2ZM2 21V23H4V21H2ZM2 19V21H4V19H2ZM2 17V19H4V17H2ZM2 15V17H4V15H2ZM1 16H3V14H1V16ZM0 13V15H2V13H0ZM3 12H1V14H3V12ZM2 11V13H4V11H2ZM5 10H3V12H5V10ZM4 9V11H6V9H4ZM7 8H5V10H7V8ZM6 7V9H8V7H6ZM9 6H7V8H9V6ZM8 5V7H10V5H8ZM11 4H9V6H11V4ZM10 3V5H12V3H10ZM13 2H11V4H13V2ZM12 1V3H14V1H12Z" fill="#797979" mask="url(#path-1-outside-1_892_214454)"/>
</svg>
