<svg width="328" height="72" viewBox="0 0 328 72" fill="none" xmlns="http://www.w3.org/2000/svg">
<g clip-path="url(#clip0_399_34117)">
<rect width="328" height="72" fill="#2C2C2C"/>
<rect y="68" width="328" height="4" fill="black"/>
<rect width="328" height="4" fill="white"/>
<rect width="4" height="72" fill="white"/>
<rect x="324" width="4" height="72" fill="black"/>
<path d="M127.392 47H118.992V44.2H116.192V41.4H113.392V47H107.792V27.4H124.592V30.2H127.392V38.6H121.792V41.4H124.592V44.2H127.392V47ZM121.792 35.8V30.2H113.392V38.6H118.992V35.8H121.792ZM150.58 47H130.98V27.4H150.58V30.2H136.579V35.8H147.78V38.6H136.579V44.2H150.58V47ZM173.767 47H168.167V41.4H159.767V47H154.167V33H156.967V30.2H159.767V27.4H168.167V30.2H170.967V33H173.767V47ZM168.167 38.6V33H165.367V30.2H162.567V33H159.767V38.6H168.167ZM196.955 41.4H194.155V44.2H191.355V47H177.355V27.4H191.355V30.2H194.155V33H196.955V41.4ZM191.355 41.4V33H188.555V30.2H182.954V44.2H188.555V41.4H191.355ZM218.742 35.8H215.942V38.6H213.142V47H207.542V38.6H204.714V35.8H201.942V27.4H207.542V35.8H213.142V27.4H218.742V35.8Z" fill="white"/>
<path d="M127.392 47V48H128.392V47H127.392ZM118.992 47H117.992V48H118.992V47ZM118.992 44.2H119.992V43.2H118.992V44.2ZM116.192 44.2H115.192V45.2H116.192V44.2ZM116.192 41.4H117.192V40.4H116.192V41.4ZM113.392 41.4V40.4H112.392V41.4H113.392ZM113.392 47V48H114.392V47H113.392ZM107.792 47H106.792V48H107.792V47ZM107.792 27.4V26.4H106.792V27.4H107.792ZM124.592 27.4H125.592V26.4H124.592V27.4ZM124.592 30.2H123.592V31.2H124.592V30.2ZM127.392 30.2H128.392V29.2H127.392V30.2ZM127.392 38.6V39.6H128.392V38.6H127.392ZM121.792 38.6V37.6H120.792V38.6H121.792ZM121.792 41.4H120.792V42.4H121.792V41.4ZM124.592 41.4H125.592V40.4H124.592V41.4ZM124.592 44.2H123.592V45.2H124.592V44.2ZM127.392 44.2H128.392V43.2H127.392V44.2ZM121.792 35.8V36.8H122.792V35.8H121.792ZM121.792 30.2H122.792V29.2H121.792V30.2ZM113.392 30.2V29.2H112.392V30.2H113.392ZM113.392 38.6H112.392V39.6H113.392V38.6ZM118.992 38.6V39.6H119.992V38.6H118.992ZM118.992 35.8V34.8H117.992V35.8H118.992ZM127.392 46H118.992V48H127.392V46ZM119.992 47V44.2H117.992V47H119.992ZM118.992 43.2H116.192V45.2H118.992V43.2ZM117.192 44.2V41.4H115.192V44.2H117.192ZM116.192 40.4H113.392V42.4H116.192V40.4ZM112.392 41.4V47H114.392V41.4H112.392ZM113.392 46H107.792V48H113.392V46ZM108.792 47V27.4H106.792V47H108.792ZM107.792 28.4H124.592V26.4H107.792V28.4ZM123.592 27.4V30.2H125.592V27.4H123.592ZM124.592 31.2H127.392V29.2H124.592V31.2ZM126.392 30.2V38.6H128.392V30.2H126.392ZM127.392 37.6H121.792V39.6H127.392V37.6ZM120.792 38.6V41.4H122.792V38.6H120.792ZM121.792 42.4H124.592V40.4H121.792V42.4ZM123.592 41.4V44.2H125.592V41.4H123.592ZM124.592 45.2H127.392V43.2H124.592V45.2ZM126.392 44.2V47H128.392V44.2H126.392ZM122.792 35.8V30.2H120.792V35.8H122.792ZM121.792 29.2H113.392V31.2H121.792V29.2ZM112.392 30.2V38.6H114.392V30.2H112.392ZM113.392 39.6H118.992V37.6H113.392V39.6ZM119.992 38.6V35.8H117.992V38.6H119.992ZM118.992 36.8H121.792V34.8H118.992V36.8ZM150.58 47V48H151.58V47H150.58ZM130.98 47H129.98V48H130.98V47ZM130.98 27.4V26.4H129.98V27.4H130.98ZM150.58 27.4H151.58V26.4H150.58V27.4ZM150.58 30.2V31.2H151.58V30.2H150.58ZM136.579 30.2V29.2H135.579V30.2H136.579ZM136.579 35.8H135.579V36.8H136.579V35.8ZM147.78 35.8H148.78V34.8H147.78V35.8ZM147.78 38.6V39.6H148.78V38.6H147.78ZM136.579 38.6V37.6H135.579V38.6H136.579ZM136.579 44.2H135.579V45.2H136.579V44.2ZM150.58 44.2H151.58V43.2H150.58V44.2ZM150.58 46H130.98V48H150.58V46ZM131.98 47V27.4H129.98V47H131.98ZM130.98 28.4H150.58V26.4H130.98V28.4ZM149.58 27.4V30.2H151.58V27.4H149.58ZM150.58 29.2H136.579V31.2H150.58V29.2ZM135.579 30.2V35.8H137.579V30.2H135.579ZM136.579 36.8H147.78V34.8H136.579V36.8ZM146.78 35.8V38.6H148.78V35.8H146.78ZM147.78 37.6H136.579V39.6H147.78V37.6ZM135.579 38.6V44.2H137.579V38.6H135.579ZM136.579 45.2H150.58V43.2H136.579V45.2ZM149.58 44.2V47H151.58V44.2H149.58ZM173.767 47V48H174.767V47H173.767ZM168.167 47H167.167V48H168.167V47ZM168.167 41.4H169.167V40.4H168.167V41.4ZM159.767 41.4V40.4H158.767V41.4H159.767ZM159.767 47V48H160.767V47H159.767ZM154.167 47H153.167V48H154.167V47ZM154.167 33V32H153.167V33H154.167ZM156.967 33V34H157.967V33H156.967ZM156.967 30.2V29.2H155.967V30.2H156.967ZM159.767 30.2V31.2H160.767V30.2H159.767ZM159.767 27.4V26.4H158.767V27.4H159.767ZM168.167 27.4H169.167V26.4H168.167V27.4ZM168.167 30.2H167.167V31.2H168.167V30.2ZM170.967 30.2H171.967V29.2H170.967V30.2ZM170.967 33H169.967V34H170.967V33ZM173.767 33H174.767V32H173.767V33ZM168.167 38.6V39.6H169.167V38.6H168.167ZM168.167 33H169.167V32H168.167V33ZM165.367 33H164.367V34H165.367V33ZM165.367 30.2H166.367V29.2H165.367V30.2ZM162.567 30.2V29.2H161.567V30.2H162.567ZM162.567 33V34H163.567V33H162.567ZM159.767 33V32H158.767V33H159.767ZM159.767 38.6H158.767V39.6H159.767V38.6ZM173.767 46H168.167V48H173.767V46ZM169.167 47V41.4H167.167V47H169.167ZM168.167 40.4H159.767V42.4H168.167V40.4ZM158.767 41.4V47H160.767V41.4H158.767ZM159.767 46H154.167V48H159.767V46ZM155.167 47V33H153.167V47H155.167ZM154.167 34H156.967V32H154.167V34ZM157.967 33V30.2H155.967V33H157.967ZM156.967 31.2H159.767V29.2H156.967V31.2ZM160.767 30.2V27.4H158.767V30.2H160.767ZM159.767 28.4H168.167V26.4H159.767V28.4ZM167.167 27.4V30.2H169.167V27.4H167.167ZM168.167 31.2H170.967V29.2H168.167V31.2ZM169.967 30.2V33H171.967V30.2H169.967ZM170.967 34H173.767V32H170.967V34ZM172.767 33V47H174.767V33H172.767ZM169.167 38.6V33H167.167V38.6H169.167ZM168.167 32H165.367V34H168.167V32ZM166.367 33V30.2H164.367V33H166.367ZM165.367 29.2H162.567V31.2H165.367V29.2ZM161.567 30.2V33H163.567V30.2H161.567ZM162.567 32H159.767V34H162.567V32ZM158.767 33V38.6H160.767V33H158.767ZM159.767 39.6H168.167V37.6H159.767V39.6ZM196.955 41.4V42.4H197.955V41.4H196.955ZM194.155 41.4V40.4H193.155V41.4H194.155ZM194.155 44.2V45.2H195.155V44.2H194.155ZM191.355 44.2V43.2H190.355V44.2H191.355ZM191.355 47V48H192.355V47H191.355ZM177.355 47H176.355V48H177.355V47ZM177.355 27.4V26.4H176.355V27.4H177.355ZM191.355 27.4H192.355V26.4H191.355V27.4ZM191.355 30.2H190.355V31.2H191.355V30.2ZM194.155 30.2H195.155V29.2H194.155V30.2ZM194.155 33H193.155V34H194.155V33ZM196.955 33H197.955V32H196.955V33ZM191.355 41.4V42.4H192.355V41.4H191.355ZM191.355 33H192.355V32H191.355V33ZM188.555 33H187.555V34H188.555V33ZM188.555 30.2H189.555V29.2H188.555V30.2ZM182.954 30.2V29.2H181.954V30.2H182.954ZM182.954 44.2H181.954V45.2H182.954V44.2ZM188.555 44.2V45.2H189.555V44.2H188.555ZM188.555 41.4V40.4H187.555V41.4H188.555ZM196.955 40.4H194.155V42.4H196.955V40.4ZM193.155 41.4V44.2H195.155V41.4H193.155ZM194.155 43.2H191.355V45.2H194.155V43.2ZM190.355 44.2V47H192.355V44.2H190.355ZM191.355 46H177.355V48H191.355V46ZM178.355 47V27.4H176.355V47H178.355ZM177.355 28.4H191.355V26.4H177.355V28.4ZM190.355 27.4V30.2H192.355V27.4H190.355ZM191.355 31.2H194.155V29.2H191.355V31.2ZM193.155 30.2V33H195.155V30.2H193.155ZM194.155 34H196.955V32H194.155V34ZM195.955 33V41.4H197.955V33H195.955ZM192.355 41.4V33H190.355V41.4H192.355ZM191.355 32H188.555V34H191.355V32ZM189.555 33V30.2H187.555V33H189.555ZM188.555 29.2H182.954V31.2H188.555V29.2ZM181.954 30.2V44.2H183.954V30.2H181.954ZM182.954 45.2H188.555V43.2H182.954V45.2ZM189.555 44.2V41.4H187.555V44.2H189.555ZM188.555 42.4H191.355V40.4H188.555V42.4ZM218.742 35.8V36.8H219.742V35.8H218.742ZM215.942 35.8V34.8H214.942V35.8H215.942ZM215.942 38.6V39.6H216.942V38.6H215.942ZM213.142 38.6V37.6H212.142V38.6H213.142ZM213.142 47V48H214.142V47H213.142ZM207.542 47H206.542V48H207.542V47ZM207.542 38.6H208.542V37.6H207.542V38.6ZM204.714 38.6H203.714V39.6H204.714V38.6ZM204.714 35.8H205.714V34.8H204.714V35.8ZM201.942 35.8H200.942V36.8H201.942V35.8ZM201.942 27.4V26.4H200.942V27.4H201.942ZM207.542 27.4H208.542V26.4H207.542V27.4ZM207.542 35.8H206.542V36.8H207.542V35.8ZM213.142 35.8V36.8H214.142V35.8H213.142ZM213.142 27.4V26.4H212.142V27.4H213.142ZM218.742 27.4H219.742V26.4H218.742V27.4ZM218.742 34.8H215.942V36.8H218.742V34.8ZM214.942 35.8V38.6H216.942V35.8H214.942ZM215.942 37.6H213.142V39.6H215.942V37.6ZM212.142 38.6V47H214.142V38.6H212.142ZM213.142 46H207.542V48H213.142V46ZM208.542 47V38.6H206.542V47H208.542ZM207.542 37.6H204.714V39.6H207.542V37.6ZM205.714 38.6V35.8H203.714V38.6H205.714ZM204.714 34.8H201.942V36.8H204.714V34.8ZM202.942 35.8V27.4H200.942V35.8H202.942ZM201.942 28.4H207.542V26.4H201.942V28.4ZM206.542 27.4V35.8H208.542V27.4H206.542ZM207.542 36.8H213.142V34.8H207.542V36.8ZM214.142 35.8V27.4H212.142V35.8H214.142ZM213.142 28.4H218.742V26.4H213.142V28.4ZM217.742 27.4V35.8H219.742V27.4H217.742Z" fill="black"/>
<mask id="mask0_399_34117" style="mask-type:alpha" maskUnits="userSpaceOnUse" x="107" y="27" width="112" height="20">
<path d="M127.392 47H118.992V44.2H116.192V41.4H113.392V47H107.792V27.4H124.592V30.2H127.392V38.6H121.792V41.4H124.592V44.2H127.392V47ZM121.792 35.8V30.2H113.392V38.6H118.992V35.8H121.792ZM150.58 47H130.98V27.4H150.58V30.2H136.579V35.8H147.78V38.6H136.579V44.2H150.58V47ZM173.767 47H168.167V41.4H159.767V47H154.167V33H156.967V30.2H159.767V27.4H168.167V30.2H170.967V33H173.767V47ZM168.167 38.6V33H165.367V30.2H162.567V33H159.767V38.6H168.167ZM196.955 41.4H194.155V44.2H191.355V47H177.355V27.4H191.355V30.2H194.155V33H196.955V41.4ZM191.355 41.4V33H188.555V30.2H182.954V44.2H188.555V41.4H191.355ZM218.742 35.8H215.942V38.6H213.142V47H207.542V38.6H204.714V35.8H201.942V27.4H207.542V35.8H213.142V27.4H218.742V35.8Z" fill="white"/>
<path d="M127.392 47V48H128.392V47H127.392ZM118.992 47H117.992V48H118.992V47ZM118.992 44.2H119.992V43.2H118.992V44.2ZM116.192 44.2H115.192V45.2H116.192V44.2ZM116.192 41.4H117.192V40.4H116.192V41.4ZM113.392 41.4V40.4H112.392V41.4H113.392ZM113.392 47V48H114.392V47H113.392ZM107.792 47H106.792V48H107.792V47ZM107.792 27.4V26.4H106.792V27.4H107.792ZM124.592 27.4H125.592V26.4H124.592V27.4ZM124.592 30.2H123.592V31.2H124.592V30.2ZM127.392 30.2H128.392V29.2H127.392V30.2ZM127.392 38.6V39.6H128.392V38.6H127.392ZM121.792 38.6V37.6H120.792V38.6H121.792ZM121.792 41.4H120.792V42.4H121.792V41.4ZM124.592 41.4H125.592V40.4H124.592V41.4ZM124.592 44.2H123.592V45.2H124.592V44.2ZM127.392 44.2H128.392V43.2H127.392V44.2ZM121.792 35.8V36.8H122.792V35.8H121.792ZM121.792 30.2H122.792V29.2H121.792V30.2ZM113.392 30.2V29.2H112.392V30.2H113.392ZM113.392 38.6H112.392V39.6H113.392V38.6ZM118.992 38.6V39.6H119.992V38.6H118.992ZM118.992 35.8V34.8H117.992V35.8H118.992ZM127.392 46H118.992V48H127.392V46ZM119.992 47V44.2H117.992V47H119.992ZM118.992 43.2H116.192V45.2H118.992V43.2ZM117.192 44.2V41.4H115.192V44.2H117.192ZM116.192 40.4H113.392V42.4H116.192V40.4ZM112.392 41.4V47H114.392V41.4H112.392ZM113.392 46H107.792V48H113.392V46ZM108.792 47V27.4H106.792V47H108.792ZM107.792 28.4H124.592V26.4H107.792V28.4ZM123.592 27.4V30.2H125.592V27.4H123.592ZM124.592 31.2H127.392V29.2H124.592V31.2ZM126.392 30.2V38.6H128.392V30.2H126.392ZM127.392 37.6H121.792V39.6H127.392V37.6ZM120.792 38.6V41.4H122.792V38.6H120.792ZM121.792 42.4H124.592V40.4H121.792V42.4ZM123.592 41.4V44.2H125.592V41.4H123.592ZM124.592 45.2H127.392V43.2H124.592V45.2ZM126.392 44.2V47H128.392V44.2H126.392ZM122.792 35.8V30.2H120.792V35.8H122.792ZM121.792 29.2H113.392V31.2H121.792V29.2ZM112.392 30.2V38.6H114.392V30.2H112.392ZM113.392 39.6H118.992V37.6H113.392V39.6ZM119.992 38.6V35.8H117.992V38.6H119.992ZM118.992 36.8H121.792V34.8H118.992V36.8ZM150.58 47V48H151.58V47H150.58ZM130.98 47H129.98V48H130.98V47ZM130.98 27.4V26.4H129.98V27.4H130.98ZM150.58 27.4H151.58V26.4H150.58V27.4ZM150.58 30.2V31.2H151.58V30.2H150.58ZM136.579 30.2V29.2H135.579V30.2H136.579ZM136.579 35.8H135.579V36.8H136.579V35.8ZM147.78 35.8H148.78V34.8H147.78V35.8ZM147.78 38.6V39.6H148.78V38.6H147.78ZM136.579 38.6V37.6H135.579V38.6H136.579ZM136.579 44.2H135.579V45.2H136.579V44.2ZM150.58 44.2H151.58V43.2H150.58V44.2ZM150.58 46H130.98V48H150.58V46ZM131.98 47V27.4H129.98V47H131.98ZM130.98 28.4H150.58V26.4H130.98V28.4ZM149.58 27.4V30.2H151.58V27.4H149.58ZM150.58 29.2H136.579V31.2H150.58V29.2ZM135.579 30.2V35.8H137.579V30.2H135.579ZM136.579 36.8H147.78V34.8H136.579V36.8ZM146.78 35.8V38.6H148.78V35.8H146.78ZM147.78 37.6H136.579V39.6H147.78V37.6ZM135.579 38.6V44.2H137.579V38.6H135.579ZM136.579 45.2H150.58V43.2H136.579V45.2ZM149.58 44.2V47H151.58V44.2H149.58ZM173.767 47V48H174.767V47H173.767ZM168.167 47H167.167V48H168.167V47ZM168.167 41.4H169.167V40.4H168.167V41.4ZM159.767 41.4V40.4H158.767V41.4H159.767ZM159.767 47V48H160.767V47H159.767ZM154.167 47H153.167V48H154.167V47ZM154.167 33V32H153.167V33H154.167ZM156.967 33V34H157.967V33H156.967ZM156.967 30.2V29.2H155.967V30.2H156.967ZM159.767 30.2V31.2H160.767V30.2H159.767ZM159.767 27.4V26.4H158.767V27.4H159.767ZM168.167 27.4H169.167V26.4H168.167V27.4ZM168.167 30.2H167.167V31.2H168.167V30.2ZM170.967 30.2H171.967V29.2H170.967V30.2ZM170.967 33H169.967V34H170.967V33ZM173.767 33H174.767V32H173.767V33ZM168.167 38.6V39.6H169.167V38.6H168.167ZM168.167 33H169.167V32H168.167V33ZM165.367 33H164.367V34H165.367V33ZM165.367 30.2H166.367V29.2H165.367V30.2ZM162.567 30.2V29.2H161.567V30.2H162.567ZM162.567 33V34H163.567V33H162.567ZM159.767 33V32H158.767V33H159.767ZM159.767 38.6H158.767V39.6H159.767V38.6ZM173.767 46H168.167V48H173.767V46ZM169.167 47V41.4H167.167V47H169.167ZM168.167 40.4H159.767V42.4H168.167V40.4ZM158.767 41.4V47H160.767V41.4H158.767ZM159.767 46H154.167V48H159.767V46ZM155.167 47V33H153.167V47H155.167ZM154.167 34H156.967V32H154.167V34ZM157.967 33V30.2H155.967V33H157.967ZM156.967 31.2H159.767V29.2H156.967V31.2ZM160.767 30.2V27.4H158.767V30.2H160.767ZM159.767 28.4H168.167V26.4H159.767V28.4ZM167.167 27.4V30.2H169.167V27.4H167.167ZM168.167 31.2H170.967V29.2H168.167V31.2ZM169.967 30.2V33H171.967V30.2H169.967ZM170.967 34H173.767V32H170.967V34ZM172.767 33V47H174.767V33H172.767ZM169.167 38.6V33H167.167V38.6H169.167ZM168.167 32H165.367V34H168.167V32ZM166.367 33V30.2H164.367V33H166.367ZM165.367 29.2H162.567V31.2H165.367V29.2ZM161.567 30.2V33H163.567V30.2H161.567ZM162.567 32H159.767V34H162.567V32ZM158.767 33V38.6H160.767V33H158.767ZM159.767 39.6H168.167V37.6H159.767V39.6ZM196.955 41.4V42.4H197.955V41.4H196.955ZM194.155 41.4V40.4H193.155V41.4H194.155ZM194.155 44.2V45.2H195.155V44.2H194.155ZM191.355 44.2V43.2H190.355V44.2H191.355ZM191.355 47V48H192.355V47H191.355ZM177.355 47H176.355V48H177.355V47ZM177.355 27.4V26.4H176.355V27.4H177.355ZM191.355 27.4H192.355V26.4H191.355V27.4ZM191.355 30.2H190.355V31.2H191.355V30.2ZM194.155 30.2H195.155V29.2H194.155V30.2ZM194.155 33H193.155V34H194.155V33ZM196.955 33H197.955V32H196.955V33ZM191.355 41.4V42.4H192.355V41.4H191.355ZM191.355 33H192.355V32H191.355V33ZM188.555 33H187.555V34H188.555V33ZM188.555 30.2H189.555V29.2H188.555V30.2ZM182.954 30.2V29.2H181.954V30.2H182.954ZM182.954 44.2H181.954V45.2H182.954V44.2ZM188.555 44.2V45.2H189.555V44.2H188.555ZM188.555 41.4V40.4H187.555V41.4H188.555ZM196.955 40.4H194.155V42.4H196.955V40.4ZM193.155 41.4V44.2H195.155V41.4H193.155ZM194.155 43.2H191.355V45.2H194.155V43.2ZM190.355 44.2V47H192.355V44.2H190.355ZM191.355 46H177.355V48H191.355V46ZM178.355 47V27.4H176.355V47H178.355ZM177.355 28.4H191.355V26.4H177.355V28.4ZM190.355 27.4V30.2H192.355V27.4H190.355ZM191.355 31.2H194.155V29.2H191.355V31.2ZM193.155 30.2V33H195.155V30.2H193.155ZM194.155 34H196.955V32H194.155V34ZM195.955 33V41.4H197.955V33H195.955ZM192.355 41.4V33H190.355V41.4H192.355ZM191.355 32H188.555V34H191.355V32ZM189.555 33V30.2H187.555V33H189.555ZM188.555 29.2H182.954V31.2H188.555V29.2ZM181.954 30.2V44.2H183.954V30.2H181.954ZM182.954 45.2H188.555V43.2H182.954V45.2ZM189.555 44.2V41.4H187.555V44.2H189.555ZM188.555 42.4H191.355V40.4H188.555V42.4ZM218.742 35.8V36.8H219.742V35.8H218.742ZM215.942 35.8V34.8H214.942V35.8H215.942ZM215.942 38.6V39.6H216.942V38.6H215.942ZM213.142 38.6V37.6H212.142V38.6H213.142ZM213.142 47V48H214.142V47H213.142ZM207.542 47H206.542V48H207.542V47ZM207.542 38.6H208.542V37.6H207.542V38.6ZM204.714 38.6H203.714V39.6H204.714V38.6ZM204.714 35.8H205.714V34.8H204.714V35.8ZM201.942 35.8H200.942V36.8H201.942V35.8ZM201.942 27.4V26.4H200.942V27.4H201.942ZM207.542 27.4H208.542V26.4H207.542V27.4ZM207.542 35.8H206.542V36.8H207.542V35.8ZM213.142 35.8V36.8H214.142V35.8H213.142ZM213.142 27.4V26.4H212.142V27.4H213.142ZM218.742 27.4H219.742V26.4H218.742V27.4ZM218.742 34.8H215.942V36.8H218.742V34.8ZM214.942 35.8V38.6H216.942V35.8H214.942ZM215.942 37.6H213.142V39.6H215.942V37.6ZM212.142 38.6V47H214.142V38.6H212.142ZM213.142 46H207.542V48H213.142V46ZM208.542 47V38.6H206.542V47H208.542ZM207.542 37.6H204.714V39.6H207.542V37.6ZM205.714 38.6V35.8H203.714V38.6H205.714ZM204.714 34.8H201.942V36.8H204.714V34.8ZM202.942 35.8V27.4H200.942V35.8H202.942ZM201.942 28.4H207.542V26.4H201.942V28.4ZM206.542 27.4V35.8H208.542V27.4H206.542ZM207.542 36.8H213.142V34.8H207.542V36.8ZM214.142 35.8V27.4H212.142V35.8H214.142ZM213.142 28.4H218.742V26.4H213.142V28.4ZM217.742 27.4V35.8H219.742V27.4H217.742Z" fill="black"/>
</mask>
<g mask="url(#mask0_399_34117)">
<rect x="106" y="38" width="112" height="10" fill="#9400B9"/>
</g>
</g>
<defs>
<clipPath id="clip0_399_34117">
<rect width="328" height="72" fill="white"/>
</clipPath>
</defs>
</svg>
